<?xml version="1.0" encoding="iso-8859-1"?>
<!-- Generator: Adobe Illustrator 16.0.0, SVG Export Plug-In . SVG Version: 6.00 Build 0)  -->
<!DOCTYPE svg PUBLIC "-//W3C//DTD SVG 1.1//EN" "http://www.w3.org/Graphics/SVG/1.1/DTD/svg11.dtd">
<svg version="1.1" id="Capa_1" xmlns="http://www.w3.org/2000/svg" xmlns:xlink="http://www.w3.org/1999/xlink" x="0px" y="0px"
	 width="106.059px" height="106.059px" viewBox="0 0 106.059 106.059" style="enable-background:new 0 0 106.059 106.059;"
	 xml:space="preserve">
<g>
	<path d="M90.544,90.542c20.687-20.685,20.685-54.342,0.002-75.024C69.858-5.172,36.199-5.172,15.515,15.513
		C-5.173,36.198-5.171,69.858,15.517,90.547C36.199,111.23,69.858,111.23,90.544,90.542z M21.302,21.3
		C38.796,3.807,67.261,3.805,84.759,21.302c17.494,17.494,17.492,45.962-0.002,63.455c-17.494,17.494-45.96,17.496-63.455,0.002
		C3.804,67.263,3.806,38.794,21.302,21.3z M58.857,41.671c0-4.798,3.903-8.701,8.703-8.701c4.797,0,8.7,3.902,8.7,8.701
		c0,1.381-1.119,2.5-2.5,2.5s-2.5-1.119-2.5-2.5c0-2.041-1.66-3.701-3.7-3.701c-2.042,0-3.703,1.66-3.703,3.701
		c0,1.381-1.119,2.5-2.5,2.5C59.976,44.171,58.857,43.051,58.857,41.671z M31.134,41.644c0-4.797,3.904-8.701,8.703-8.701
		c4.797,0,8.701,3.903,8.701,8.701c0,1.381-1.119,2.5-2.5,2.5c-1.381,0-2.5-1.119-2.5-2.5c0-2.041-1.66-3.701-3.701-3.701
		c-2.042,0-3.703,1.66-3.703,3.701c0,1.381-1.119,2.5-2.5,2.5S31.134,43.024,31.134,41.644z M30.025,63.994
		c-0.636-1.529,0.089-3.285,1.62-3.921c0.376-0.155,0.766-0.229,1.15-0.229c1.176,0,2.292,0.695,2.771,1.85
		c2.777,6.686,9.655,11.004,17.523,11.004c7.69,0,14.528-4.321,17.42-11.011c0.658-1.521,2.424-2.222,3.944-1.563
		s2.22,2.424,1.562,3.944c-3.843,8.887-12.843,14.629-22.927,14.629C42.788,78.697,33.735,72.927,30.025,63.994z"/>
</g>
<g>
</g>
<g>
</g>
<g>
</g>
<g>
</g>
<g>
</g>
<g>
</g>
<g>
</g>
<g>
</g>
<g>
</g>
<g>
</g>
<g>
</g>
<g>
</g>
<g>
</g>
<g>
</g>
<g>
</g>
</svg>
