<?xml version="1.0" encoding="UTF-8" standalone="no"?>
<!-- Created with Inkscape (http://www.inkscape.org/) -->

<svg
   xmlns:dc="http://purl.org/dc/elements/1.1/"
   xmlns:cc="http://creativecommons.org/ns#"
   xmlns:rdf="http://www.w3.org/1999/02/22-rdf-syntax-ns#"
   xmlns:svg="http://www.w3.org/2000/svg"
   xmlns="http://www.w3.org/2000/svg"
   xmlns:sodipodi="http://sodipodi.sourceforge.net/DTD/sodipodi-0.dtd"
   xmlns:inkscape="http://www.inkscape.org/namespaces/inkscape"
   width="244.60001"
   height="173.39999"
   id="svg2"
   version="1.1"
   inkscape:version="0.48.4 r9939"
   sodipodi:docname="loom_vector_logo_washed.svg">
  <defs
     id="defs4" />
  <sodipodi:namedview
     id="base"
     pagecolor="#ffffff"
     bordercolor="#666666"
     borderopacity="1.0"
     inkscape:pageopacity="0.0"
     inkscape:pageshadow="2"
     inkscape:zoom="2"
     inkscape:cx="140.94126"
     inkscape:cy="36.364194"
     inkscape:document-units="px"
     inkscape:current-layer="g2988"
     showgrid="false"
     inkscape:window-width="1680"
     inkscape:window-height="987"
     inkscape:window-x="1912"
     inkscape:window-y="-8"
     inkscape:window-maximized="1"
     fit-margin-top="0"
     fit-margin-left="0"
     fit-margin-right="0"
     fit-margin-bottom="0" />
  <metadata
     id="metadata7">
    <rdf:RDF>
      <cc:Work
         rdf:about="">
        <dc:format>image/svg+xml</dc:format>
        <dc:type
           rdf:resource="http://purl.org/dc/dcmitype/StillImage" />
        <dc:title></dc:title>
      </cc:Work>
    </rdf:RDF>
  </metadata>
  <g
     inkscape:label="Layer 1"
     inkscape:groupmode="layer"
     id="layer1"
     transform="translate(0,7.7e-4)">
    <g
       id="g2986"
       transform="translate(-351.6,-146.50077)">
	<g
   id="g2988">
		<path
   id="path2990"
   d="m 375.3,319.9 v -25.7 h -2.6 l -0.4,-3.4 c -0.1,-0.6 -0.2,-1.2 -0.3,-1.7 -1.4,-5.1 -5.9,-9.1 -11.2,-9.8 l -3.3,-0.4 v -2.5 h -5.9 V 190 h 5.9 v -2.5 l 3.3,-0.4 c 5.3,-0.7 9.8,-4.6 11.2,-9.7 0.2,-0.6 0.3,-1.1 0.3,-1.8 l 0.4,-3.4 h 2.6 v -25.7 h 197.2 v 25.7 h 2.6 l 0.4,3.4 c 0.1,0.7 0.2,1.2 0.3,1.8 1.4,5.1 5.9,9 11.2,9.7 l 3.3,0.4 v 2.5 h 5.9 v 86.4 h -5.9 v 2.5 l -3.3,0.4 c -5.3,0.7 -9.8,4.6 -11.2,9.8 -0.2,0.5 -0.3,1.1 -0.3,1.7 l -0.4,3.4 h -2.6 v 25.7 H 375.3 z"
   inkscape:connector-curvature="0"
   style="opacity:0.21495325" />

		<g
   id="g2992">
			<path
   id="path2994"
   d="m 407.9,175.4 c 0,-0.6 -0.5,-1.1 -1.1,-1.1 -0.6,0 -1.1,0.5 -1.1,1.1 0,0.5 0.3,0.9 0.7,1 v 49.4 c -0.4,0.2 -0.7,0.5 -0.7,1 0,0.6 0.5,1.1 1.1,1.1 0.6,0 1.1,-0.5 1.1,-1.1 0,-0.5 -0.3,-0.9 -0.7,-1 v -49.4 c 0.4,-0.1 0.7,-0.5 0.7,-1 z"
   inkscape:connector-curvature="0"
   style="fill:none" />

		</g>

		<g
   id="g2996">
			<path
   id="path2998"
   d="m 542.6,175.4 c 0,-0.6 -0.5,-1.1 -1.1,-1.1 -0.6,0 -1.1,0.5 -1.1,1.1 0,0.5 0.3,0.9 0.7,1 v 49.4 c -0.4,0.2 -0.7,0.5 -0.7,1 0,0.6 0.5,1.1 1.1,1.1 0.6,0 1.1,-0.5 1.1,-1.1 0,-0.5 -0.3,-0.9 -0.7,-1 v -49.4 c 0.4,-0.1 0.7,-0.5 0.7,-1 z"
   inkscape:connector-curvature="0"
   style="fill:none" />

		</g>

		<path
   id="path3000"
   d="m 476,230.8 c -1.1,-0.5 -1.7,-1.2 -2,-1.9 -0.3,0.7 -0.9,1.4 -2,1.9 0.7,0 1.3,0 2,0 0.6,0 1.3,0 2,0 z"
   inkscape:connector-curvature="0"
   style="fill:none" />

	</g>

	<g
   id="g3002">
		<path
   id="path3004"
   d="m 456.6,298.4 c 0.3,0.3 1,-0.3 1.2,-0.7 l 0.2,-0.4 c 0,0 -0.4,0.1 -0.7,0.2 -0.3,0.1 -1.1,0.6 -0.7,0.9 z"
   inkscape:connector-curvature="0"
   style="fill:none" />

		<path
   id="path3006"
   d="m 470.4,294.4 c 0.4,-0.3 1.1,-1.3 0.6,-1.4 -0.4,-0.1 -1,0.4 -1.3,1 0,0 0.2,0.1 0.1,0.3 0,0 0,0.1 -0.1,0 0,0 -0.1,0 -0.1,0 -0.1,0 -0.2,0.2 -0.1,0.3 0.3,0.1 0.6,0 0.9,-0.2 z"
   inkscape:connector-curvature="0"
   style="fill:none" />

		<path
   id="path3008"
   d="m 462.9,294.4 c 0.4,-0.3 1.1,-1.3 0.6,-1.4 -0.4,-0.1 -1,0.4 -1.3,1 0,0 0.2,0.1 0.1,0.3 0,0 0,0.1 0,0 0,0 -0.1,0 -0.1,0 -0.1,0 -0.2,0.2 -0.1,0.3 0.1,0.1 0.5,0 0.8,-0.2 z"
   inkscape:connector-curvature="0"
   style="fill:none" />

		<path
   id="path3010"
   d="m 476,230.8 c -1.1,-0.5 -1.7,-1.2 -2,-1.9 -0.3,0.7 -0.9,1.4 -2,1.9 0.7,0 1.3,0 2,0 0.6,0 1.3,0 2,0 z"
   inkscape:connector-curvature="0"
   style="fill:none" />

		<polygon
   id="polygon3012"
   points="468,281.8 466.9,282 467.7,282.8 467.5,283.8 468.5,283.3 469.4,283.8 469.2,282.7 470,282 468.9,281.8 468.4,280.9 "
   style="fill:none" />

		<polygon
   id="polygon3014"
   points="480.3,283.8 480.1,282.7 480.9,282 479.8,281.8 479.3,280.9 478.9,281.8 477.8,282 478.6,282.8 478.4,283.8 479.4,283.3 "
   style="fill:none" />

		<path
   id="path3016"
   d="m 555.4,257.3 c -0.5,-1.8 -1.3,-3.4 -2.4,-4.8 -3.3,-4.4 -9.3,-7.2 -14.9,-7.3 -2.7,-0.1 -5.4,0.4 -7.4,2 -0.8,0.7 -1.4,1.8 -1.4,2.9 0,0.5 0.1,1.2 0.6,1.6 0.1,0.1 0.3,0.2 0.4,0.2 0.2,-0.4 0.8,-0.9 1.5,-1.3 1.3,-0.7 2.7,-0.7 4.2,-0.2 2.6,0.9 4.5,3.5 4.1,6.1 -0.2,1.4 -1,2.4 -2,3.2 -2,1.4 -4.4,1.7 -6.9,1.5 -3.8,-0.4 -7.5,-1.8 -11,-3.5 -4.2,-2.1 -8.2,-4.5 -12.3,-6.9 -1.6,2.7 -4.6,4 -7.8,3.4 -2.7,-0.6 -4,-1.7 -4.6,-2.8 -0.4,-0.3 -0.9,-0.4 -1.3,-0.5 0,0.1 0.1,0.2 0.1,0.3 0,0.4 -0.3,0.7 -0.7,0.7 -0.4,0 -0.7,-0.3 -0.7,-0.7 0,0 0,-0.1 0,-0.1 -0.4,0.2 -0.8,0.6 -1,1.1 -0.2,0.6 -1,0 -1.6,-0.2 -0.2,-0.1 -0.3,-0.3 -0.3,-0.5 0.1,-0.9 -0.4,-1.9 -1.3,-2.6 -0.8,-0.7 -1.8,-0.9 -2.8,-0.7 0,0.1 0,0.3 0,0.4 0,0.8 0.2,1.6 0.7,2.2 0.4,0.6 1.1,1.3 2.4,1.5 0.2,0 0.4,0.2 0.4,0.5 0,0.1 0,0.3 -0.1,0.4 l -1.6,1.8 c -0.2,0.2 -0.4,0.2 -0.6,0.1 -2.1,-0.9 -5.4,-1.9 -8.5,-2.3 -1.3,-0.1 -2.8,0 -3.3,0.3 0,0.1 0.1,0.2 0.1,0.3 0.1,0.5 -0.3,0.8 -0.7,0.8 -0.4,0 -0.7,-0.2 -0.9,-0.5 -0.2,0.3 -0.5,0.5 -0.9,0.5 -0.4,0 -0.8,-0.4 -0.7,-0.8 0,-0.1 0,-0.2 0.1,-0.3 -0.5,-0.2 -1.9,-0.4 -3.3,-0.3 -3.1,0.3 -6.4,1.4 -8.5,2.3 -0.2,0.1 -0.4,0 -0.6,-0.1 l -1.7,-1.8 c -0.1,-0.1 -0.1,-0.2 -0.1,-0.4 0,-0.3 0.2,-0.5 0.4,-0.5 1.3,-0.2 2,-1 2.4,-1.5 0.4,-0.6 0.7,-1.5 0.7,-2.2 0,-0.2 0,-0.3 0,-0.4 -1,-0.2 -2,0 -2.8,0.7 -0.8,0.7 -1.3,1.7 -1.3,2.6 0,0.2 -0.1,0.4 -0.3,0.5 -0.6,0.3 -1.4,0.9 -1.6,0.2 -0.2,-0.6 -0.6,-0.9 -1,-1.1 0,0 0,0.1 0,0.1 0,0.4 -0.3,0.7 -0.7,0.7 -0.4,0 -0.7,-0.3 -0.7,-0.7 0,-0.1 0,-0.2 0.1,-0.3 -0.4,0.1 -0.9,0.2 -1.3,0.5 -0.6,1.1 -1.9,2.2 -4.6,2.8 -3.2,0.6 -6.2,-0.7 -7.8,-3.4 -4.1,2.4 -8.1,4.9 -12.3,6.9 -3.5,1.7 -7.2,3.1 -10.9,3.5 -2.4,0.2 -4.8,-0.1 -6.9,-1.5 -1.1,-0.8 -1.9,-1.8 -2,-3.2 -0.4,-2.6 1.5,-5.2 4.1,-6.1 1.4,-0.5 2.8,-0.4 4.2,0.2 0.7,0.4 1.3,0.9 1.5,1.3 0.2,0 0.3,-0.1 0.4,-0.2 0.4,-0.4 0.5,-1.1 0.6,-1.6 0,-1.1 -0.5,-2.2 -1.4,-2.9 -2,-1.7 -4.7,-2.1 -7.4,-2 -5.7,0.1 -11.7,3 -14.9,7.3 -1,1.4 -1.9,3 -2.4,4.8 -1.7,-1.7 -5,-2.3 -8,-2.4 v 13.3 19.3 c 0.4,-0.5 0.9,-0.7 1.5,-0.7 1.6,-0.1 2.2,2.5 0.9,2.9 -0.3,-0.9 -1.3,-0.7 -1.5,-0.2 -0.2,0.4 -0.3,1.5 -0.1,3 0.4,2.3 1.3,4.4 2.7,6.3 0.8,1 1.7,2 2.7,2.8 0.7,0.6 1.5,1.2 2.4,1.8 v 3.1 c -0.3,0.2 -0.7,0.6 -1.1,1.2 1.8,1 3.5,1.3 5.2,1.4 v 1.5 h 65.7 22.4 65.7 V 309 c 1.7,-0.1 3.4,-0.3 5.2,-1.4 -0.4,-0.6 -0.8,-1 -1.1,-1.2 v -3.1 c 0.9,-0.6 1.7,-1.2 2.4,-1.8 1,-0.8 1.9,-1.8 2.7,-2.8 1.4,-1.9 2.3,-4 2.7,-6.3 0.2,-1.5 0.1,-2.6 -0.1,-3 -0.2,-0.5 -1.2,-0.8 -1.5,0.2 -1.3,-0.4 -0.6,-2.9 0.9,-2.9 0.6,0 1.1,0.2 1.5,0.7 v -19.9 c 0,0 0,-5.1 0,-12.7 -3,0.1 -6.3,0.7 -8,2.5 z m -18.7,22.6 c 3.7,2.1 7.3,4.5 10.9,7 -0.6,0.9 -1.3,1.7 -1.9,2.6 -0.5,-0.3 -0.9,-0.7 -1.4,-1 0.2,-0.2 0.3,-0.5 0.5,-0.7 -0.3,-0.6 -0.5,-1.3 -0.8,-1.9 -0.9,-0.6 -1.8,-1.2 -2.7,-1.8 -0.4,0.6 -0.8,1.3 -1.3,1.9 0.3,0.2 0.5,0.3 0.8,0.5 0.5,-0.2 1,-0.3 1.5,-0.5 0.3,0.2 0.7,0.4 1,0.7 -0.7,1 -1.4,2 -2.1,3.1 -0.3,-0.2 -0.6,-0.4 -1,-0.6 0,-0.5 0,-1.1 -0.1,-1.6 -0.3,-0.2 -0.5,-0.3 -0.8,-0.5 -0.5,0.8 -1,1.6 -1.5,2.3 0.8,0.5 1.5,1 2.3,1.5 0.9,0 1.7,0 2.6,0 0.1,-0.2 0.3,-0.4 0.4,-0.6 0.5,0.3 0.9,0.7 1.4,1 -0.7,0.9 -1.4,1.9 -2.1,2.8 -3.3,-2.4 -6.8,-4.6 -10.3,-6.7 0.2,-0.4 0.4,-0.7 0.6,-1.1 0.3,0.2 0.6,0.3 0.9,0.5 0.2,-0.1 0.4,-0.1 0.7,-0.1 0.9,-1.5 1.8,-3.1 2.7,-4.6 -0.1,-0.2 -0.1,-0.4 -0.2,-0.7 -0.3,-0.2 -0.6,-0.4 -0.9,-0.5 0.3,-0.3 0.5,-0.6 0.8,-1 z m -16.3,-0.5 c 0.7,-1.6 1.3,-3.1 2,-4.7 -0.1,-0.2 -0.2,-0.4 -0.3,-0.6 -0.3,-0.1 -0.6,-0.3 -1,-0.4 0.2,-0.4 0.3,-0.8 0.5,-1.2 2.1,0.8 4.1,1.8 6.1,2.7 -0.1,0.2 -0.2,0.3 -0.2,0.5 0.9,2 1.7,4 2.5,6.1 0.5,-0.9 1,-1.8 1.5,-2.8 -0.1,-0.2 -0.2,-0.4 -0.2,-0.7 -0.4,-0.2 -0.8,-0.4 -1.1,-0.6 0.2,-0.4 0.4,-0.8 0.6,-1.1 1.6,0.8 3.1,1.6 4.6,2.5 -0.2,0.4 -0.4,0.7 -0.6,1.1 -0.3,-0.2 -0.6,-0.3 -0.9,-0.5 -0.2,0 -0.5,0.1 -0.7,0.2 -1.1,2.1 -2.3,4.2 -3.4,6.2 -1.1,-0.6 -2.2,-1.2 -3.4,-1.8 0.1,-0.1 0.1,-0.3 0.2,-0.4 -0.9,-2.4 -1.9,-4.8 -3,-7.2 -0.5,1.1 -1,2.2 -1.5,3.4 0.1,0.3 0.2,0.6 0.2,0.9 0.4,0.2 0.8,0.4 1.3,0.6 -0.2,0.4 -0.4,0.8 -0.5,1.2 -1.6,-0.7 -3.1,-1.4 -4.7,-2.1 0.2,-0.4 0.3,-0.8 0.5,-1.2 0.3,0.1 0.6,0.2 0.8,0.3 0.2,-0.1 0.4,-0.2 0.7,-0.4 z m -9.1,-2.6 c 0.2,-0.1 0.4,-0.2 0.6,-0.3 0.6,-1.7 1.1,-3.4 1.7,-5.1 -0.1,-0.2 -0.2,-0.4 -0.3,-0.6 -0.3,-0.1 -0.7,-0.2 -1,-0.3 0.1,-0.4 0.3,-0.8 0.4,-1.2 2.4,0.8 4.9,1.7 7.3,2.6 -0.2,0.4 -0.3,0.8 -0.5,1.2 -0.3,-0.1 -0.7,-0.3 -1,-0.4 -0.2,0.1 -0.4,0.2 -0.7,0.3 -0.6,1.7 -1.3,3.3 -1.9,5 0.1,0.2 0.2,0.4 0.3,0.6 0.3,0.1 0.6,0.2 0.9,0.4 -0.2,0.4 -0.3,0.8 -0.5,1.2 -2.2,-0.9 -4.5,-1.7 -6.8,-2.4 0.1,-0.4 0.3,-0.8 0.4,-1.2 0.5,-0.1 0.8,0.1 1.1,0.2 z M 497.5,267 c 1.4,-0.3 2.8,-0.6 4.3,-0.9 1.7,0.4 3.4,0.8 5,1.3 0.5,0.3 1.1,0.7 1.6,1 0,-0.1 0.1,-0.3 0.1,-0.4 0.5,0.2 1.1,0.3 1.6,0.5 -0.3,1.1 -0.7,2.2 -1,3.3 -0.6,-0.2 -1.2,-0.4 -1.8,-0.5 0.1,-0.2 0.1,-0.4 0.2,-0.5 -0.6,-0.7 -1.3,-1.5 -2,-2.2 -0.7,-0.2 -1.3,-0.3 -2,-0.5 -0.5,0.3 -1.1,0.6 -1.6,0.9 -0.3,1.3 -0.6,2.7 -0.9,4 0.3,0.4 0.5,0.8 0.8,1.1 0.6,0.2 1.3,0.3 1.9,0.5 0.2,-0.1 0.4,-0.2 0.6,-0.3 0.1,-0.5 0.3,-1 0.4,-1.5 -0.5,-0.1 -1,-0.3 -1.5,-0.4 0.1,-0.4 0.2,-0.8 0.3,-1.2 2.3,0.6 4.6,1.2 6.9,1.9 -0.1,0.4 -0.3,0.8 -0.4,1.2 -0.4,-0.1 -0.8,-0.2 -1.2,-0.4 -0.3,1.1 -0.6,2.1 -1,3.2 -0.5,-0.2 -1.1,-0.3 -1.6,-0.5 0.1,-0.2 0.1,-0.5 0.2,-0.7 -0.8,0.1 -1.5,0.1 -2.3,0.2 -1.4,-0.4 -2.9,-0.7 -4.4,-1.1 -1.1,-0.8 -2.2,-1.5 -3.4,-2.2 0.4,-2 0.8,-3.9 1.2,-5.8 z m 1.1,26 c -0.4,0.2 -0.7,0.9 -0.7,0.9 -0.1,0.1 0,0.3 0.1,0.3 l 0,0 c 0,0 0,0 0,0 0,0.1 -0.1,0.2 -0.1,0.2 -0.1,0.1 -0.3,0.2 -0.5,0.1 l -1.2,2.3 h -0.9 l 1.9,-3.5 c 0.1,-0.1 0,-0.2 0,-0.3 -0.1,0 -0.2,0.1 -0.3,0.2 -0.3,0.4 -0.6,0.9 -0.9,1.3 l -0.1,-0.1 c -0.3,0.4 -0.8,1.2 -1.3,1.4 -0.2,0.1 -0.4,0.1 -0.6,0.1 -0.5,0.5 -1.1,0.9 -1.7,0.9 -0.5,0 -0.8,-0.3 -0.9,-0.8 0,-0.1 0,-0.2 0,-0.4 -0.3,0.4 -0.6,0.7 -0.8,0.8 -0.3,0.2 -0.7,0.4 -1,0.5 l -0.5,0.8 c -0.4,0.7 -0.8,1 -1.5,1.2 -0.7,0.1 -1.3,-0.3 -1.2,-1 0.1,-0.5 0.9,-0.8 1.4,-1 0.3,-0.1 0.6,-0.2 0.9,-0.3 l 0.3,-0.5 c -0.3,0.2 -0.5,0.3 -0.6,0.3 -0.5,0 -0.8,-0.4 -0.8,-0.8 0,-0.1 0,-0.2 0,-0.4 -0.6,0.8 -1.4,1.6 -2.2,1.4 -0.9,-0.2 -1,-0.9 -0.9,-1.6 0.2,-1 0.9,-2 1.7,-2.6 0.3,-0.2 0.8,-0.4 1.2,-0.4 0.7,0 0.8,0.7 0.6,1.2 -0.5,0.9 -1.3,1.4 -1.8,1.5 -0.6,0.1 -0.7,-0.3 -0.7,-0.3 0,0 -0.1,0.1 -0.1,0.3 -0.1,0.5 0,1 0.4,1 0.7,0.1 1.1,-0.3 1.7,-1.1 0.1,-0.2 0.2,-0.3 0.3,-0.4 0,0 0,-0.1 0.1,-0.1 0.5,-1.1 1.4,-2.1 2.6,-2 0.2,0 0.4,0.1 0.6,0.3 l 0.1,-0.2 h 0.9 l -2.3,4.1 c 0,0 0.4,-0.2 0.6,-0.3 0.4,-0.3 0.7,-0.6 1,-1.1 0.2,-0.7 0.7,-1.4 1.1,-2 0.5,-0.5 1.2,-0.9 1.9,-0.8 0.9,0.2 0.9,1.3 0.3,2.5 -0.1,0.3 -0.3,0.5 -0.4,0.7 0,0 0.1,0 0.4,-0.2 0.5,-0.4 1,-1.3 1,-1.3 l 0.1,0.1 c 0.3,-0.4 0.6,-0.9 0.8,-1.2 0.2,-0.3 0.7,-0.7 1.1,-0.6 0.2,0.1 0.3,0.3 0.3,0.5 0.1,-0.1 0.3,-0.3 0.4,-0.3 0.4,-0.2 0.6,-0.2 0.9,-0.1 0.6,0.2 0.6,0.9 0.4,1.3 -0.2,0.4 -0.5,0.8 -0.7,1.2 -0.1,0.1 -0.2,0.5 -0.3,0.6 -0.2,0.5 0.1,0.6 0.4,0.3 0.5,-0.5 1.1,-1.5 1.4,-2 l 0.2,0.2 c -0.3,0.4 -0.8,1.4 -1.6,2.3 -0.4,0.4 -0.9,0.6 -1.2,0.4 -0.4,-0.2 -0.3,-1 0.1,-1.5 l 0.1,-0.2 0.7,-1.3 c 0.5,-0.3 0.3,-0.7 -0.2,-0.5 z m -14.7,1.1 0,0 c 0.1,0 0.1,0 0,0 0.1,0.1 0,0.2 0,0.3 -0.1,0.1 -0.3,0.2 -0.4,0.1 l -1.2,2.3 h -1 l 1.9,-3.5 c 0,-0.1 0,-0.2 -0.1,-0.2 -0.1,0 -0.2,0.1 -0.3,0.2 -0.3,0.4 -0.6,0.9 -0.9,1.3 l -0.2,-0.3 c 0.3,-0.4 0.7,-1 0.9,-1.4 0.2,-0.3 0.7,-0.7 1.1,-0.5 0.2,0.1 0.3,0.3 0.3,0.5 v 0.1 c 0,0 0,-0.1 0.1,-0.1 0.3,-0.2 0.7,-0.5 1.1,-0.5 0.2,0 0.4,0 0.5,0.1 0,0 0,0 0,0.1 l -0.4,0.7 c 0,0 0,0 -0.1,0 -0.1,-0.2 -0.2,-0.2 -0.3,-0.3 -0.5,-0.1 -0.9,0.2 -1.1,0.5 l -0.2,0.4 c 0.2,0 0.2,0.3 0.3,0.2 z m -6.6,3.1 c -1.6,-0.1 -2.1,-1.7 -1.2,-3.7 0.9,-2.1 2.9,-3.8 4.5,-3.8 1.6,0 2.1,1.3 1.2,3.7 -0.8,2.1 -2.5,3.8 -4.5,3.8 z m 10.8,-14.4 v -0.6 h 10.2 c 0.1,-0.3 0.4,-0.5 0.8,-0.5 0.4,0 0.8,0.4 0.8,0.8 0,0.5 -0.4,0.8 -0.8,0.8 -0.4,0 -0.6,-0.2 -0.8,-0.5 h -10.2 z m -7,-11.9 c 0.3,0 0.6,0 0.9,0.1 0.2,-0.2 0.4,-0.5 0.6,-0.7 0.1,-1.7 0.2,-3.4 0.4,-5 -0.2,-0.2 -0.3,-0.3 -0.5,-0.5 -0.3,0 -0.7,0 -1,-0.1 0,-0.4 0.1,-0.9 0.1,-1.3 2.2,0.1 4.4,0.3 6.6,0.6 0,0.2 0,0.4 -0.1,0.5 1.5,1.6 2.9,3.3 4.2,4.9 0.2,-1 0.3,-2.1 0.5,-3.1 -0.1,-0.2 -0.3,-0.4 -0.4,-0.5 -0.4,-0.1 -0.8,-0.1 -1.2,-0.2 0.1,-0.4 0.1,-0.8 0.2,-1.3 1.7,0.2 3.4,0.5 5.1,0.8 -0.1,0.4 -0.2,0.8 -0.2,1.3 -0.3,-0.1 -0.7,-0.1 -1,-0.2 -0.2,0.1 -0.4,0.2 -0.6,0.4 -0.4,2.3 -0.8,4.7 -1.2,7 -1.2,-0.2 -2.4,-0.4 -3.7,-0.6 0,-0.2 0,-0.3 0.1,-0.5 -1.6,-2 -3.3,-3.9 -5.1,-5.9 -0.1,1.2 -0.2,2.4 -0.3,3.7 0.2,0.3 0.3,0.5 0.5,0.8 0.5,0 0.9,0.1 1.4,0.1 0,0.4 -0.1,0.9 -0.1,1.3 -1.7,-0.2 -3.4,-0.3 -5,-0.4 -0.3,-0.3 -0.2,-0.8 -0.2,-1.2 z m -1.3,-7.6 c -0.1,1.1 -0.1,2.1 -0.2,3.2 -0.5,0 -1.1,0 -1.6,-0.1 0,-0.3 0,-0.6 0,-0.8 -0.5,-0.4 -1.1,-0.8 -1.6,-1.2 -1,0 -2.1,0 -3.1,0 0,0.8 0,1.5 0,2.3 0.3,0 0.6,0 0.9,0 0.3,-0.4 0.6,-0.8 0.9,-1.2 0.4,0 0.8,0 1.1,0 0,1.2 0,2.5 -0.1,3.7 -0.4,0 -0.7,0 -1.1,0 -0.3,-0.4 -0.6,-0.9 -0.9,-1.3 -0.3,0 -0.6,0 -0.9,0 0,0.9 0,1.8 0,2.8 0.9,0 1.8,0 2.7,0 0.7,-0.5 1.4,-1 2.1,-1.4 0,-0.2 0,-0.5 0,-0.7 0.5,0 1.1,0 1.6,0.1 -0.1,1.2 -0.1,2.3 -0.2,3.5 -3.9,-0.2 -7.8,-0.2 -11.8,0 0,-0.4 0,-0.9 -0.1,-1.3 0.3,0 0.7,0 1,0 0.2,-0.2 0.3,-0.3 0.5,-0.5 -0.1,-1.8 -0.1,-3.6 -0.2,-5.3 -0.2,-0.1 -0.4,-0.3 -0.5,-0.4 -0.3,0 -0.7,0 -1,0 0,-0.4 0,-0.9 -0.1,-1.3 4.3,-0.3 8.5,-0.3 12.6,-0.1 z m -18.8,16.2 12.7,-1.6 13,1.6 v 5.9 l -13.1,1.7 -12.7,-1.7 v -5.9 z m 10.9,17.3 c -0.1,-0.2 -0.1,-0.4 0,-0.5 0.1,-0.3 0.3,-0.5 0.6,-0.5 0.4,0 0.2,0.5 0.1,0.8 -0.2,0.4 -0.5,0.7 -1,0.8 l -0.2,0 0.1,-0.1 0.1,0 c 0.1,0 0.3,-0.1 0.4,-0.2 0,-0.1 0,-0.2 -0.1,-0.3 z m -11.3,-4.2 0.1,-0.2 h 0.9 l -2.3,4.1 c 0,0 0.4,-0.2 0.6,-0.3 0.3,-0.2 0.5,-0.5 0.8,-0.8 0,0 0,-0.1 0,-0.1 0.2,-1 0.9,-2 1.7,-2.6 0.3,-0.2 0.8,-0.4 1.2,-0.4 0.7,0 0.8,0.7 0.6,1.2 -0.5,0.9 -1.3,1.4 -1.8,1.5 -0.6,0.1 -0.7,-0.3 -0.7,-0.3 0,0 -0.1,0.1 -0.1,0.3 -0.1,0.5 0,1 0.4,1 0.7,0.1 1.1,-0.3 1.7,-1.1 0.1,-0.2 0.3,-0.3 0.4,-0.5 l 0,-0.1 c 0.3,-0.4 0.7,-1 0.9,-1.4 0.2,-0.3 0.7,-0.7 1.1,-0.6 0.2,0.1 0.3,0.3 0.3,0.5 0.1,-0.1 0.3,-0.3 0.4,-0.3 0.4,-0.2 0.6,-0.2 0.9,-0.1 0.6,0.2 0.6,0.9 0.4,1.3 -0.2,0.4 -0.5,0.8 -0.7,1.2 -0.1,0.1 -0.2,0.5 -0.3,0.6 -0.2,0.5 0,0.6 0.4,0.3 0.3,-0.3 0.5,-0.7 0.8,-1 0.3,-0.8 0.9,-1.6 1.6,-2.1 0.3,-0.2 0.8,-0.4 1.2,-0.4 0.7,0 0.8,0.7 0.6,1.2 -0.5,0.9 -1.3,1.4 -1.8,1.5 -0.6,0.1 -0.7,-0.3 -0.7,-0.3 0,0 -0.1,0.1 -0.1,0.3 -0.1,0.5 0,1 0.4,1 0.7,0.1 1.1,-0.3 1.7,-1.1 0.4,-0.5 0.7,-1 0.7,-1 l 0.2,0.2 c 0,0 -1.5,3 -3.1,2.7 -0.7,-0.1 -1,-0.6 -1,-1.2 -0.2,0.3 -0.4,0.5 -0.6,0.8 -0.4,0.4 -0.9,0.6 -1.2,0.4 -0.4,-0.2 -0.3,-1 0,-1.5 l 0.1,-0.2 0.7,-1.3 c 0.3,-0.5 0.1,-1 -0.4,-0.8 -0.4,0.2 -0.7,0.9 -0.7,0.9 -0.1,0.1 0,0.3 0.1,0.3 l 0,0 c 0,0 0.1,0 0.1,0 0,0.1 -0.1,0.2 -0.1,0.2 -0.1,0.1 -0.3,0.2 -0.5,0.1 l -1.2,2.3 h -0.9 l 1.9,-3.5 c 0.1,-0.1 0.1,-0.2 0,-0.3 -0.1,0 -0.2,0.1 -0.3,0.2 -0.2,0.2 -0.4,0.5 -0.5,0.8 l 0.1,0.1 c 0,0 -1.5,3 -3.1,2.7 -0.6,-0.1 -0.9,-0.5 -0.9,-0.9 -0.2,0.3 -0.5,0.6 -0.7,0.7 -0.3,0.2 -0.7,0.4 -1,0.5 l -0.5,0.8 c -0.4,0.7 -0.8,1 -1.5,1.2 -0.7,0.1 -1.3,-0.3 -1.2,-1 0.1,-0.5 0.9,-0.8 1.4,-1 0.3,-0.1 0.6,-0.2 0.9,-0.3 l 0.3,-0.5 c -0.3,0.2 -0.5,0.3 -0.6,0.3 -0.5,0 -0.8,-0.4 -0.8,-0.8 0,0 0,-0.1 0,-0.1 -0.2,0.2 -0.4,0.5 -0.6,0.7 -0.4,0.4 -0.9,0.6 -1.2,0.4 -0.2,-0.2 -0.3,-0.5 -0.2,-0.9 -0.2,0.1 -0.3,0.3 -0.6,0.5 -0.5,0.4 -0.9,0.6 -1.2,0.4 -0.4,-0.2 -0.3,-1 0,-1.5 l 1.5,-2.8 h 0.9 l -1.1,2 c 0,0.1 0,0.3 0.1,0.3 0,0 0.1,0 0.1,0 0,0 -0.1,0.2 -0.1,0.2 -0.1,0.1 -0.4,0.2 -0.5,0.1 -0.1,0.2 -0.1,0.3 -0.2,0.4 -0.2,0.5 0,0.7 0.4,0.4 0.7,-0.5 0.9,-0.8 1.1,-1.1 l 1.2,-2.3 h 0.9 l -1.1,2 c -0.1,0.1 0,0.3 0.1,0.3 0.1,0 0.1,0 0.1,0 0,0 -0.1,0.2 -0.1,0.2 -0.1,0.1 -0.4,0.2 -0.5,0.1 -0.1,0.2 -0.1,0.3 -0.2,0.4 -0.2,0.5 0.1,0.7 0.4,0.3 0.2,-0.2 0.4,-0.5 0.6,-0.8 0.1,-0.2 0.1,-0.5 0.2,-0.7 0.5,-1.1 1.4,-2.1 2.6,-2 0.7,0.1 0.9,0.1 1.1,0.3 z m -8.7,-0.1 h 0.4 c 0,0 0.1,0 0,0.1 l -0.1,0.3 c 0,0 -0.1,0.1 -0.1,0.1 h -0.7 c -1.2,0 -1.9,0.8 -2.2,1.8 -0.2,0.7 0,1.6 1.1,1.8 1,0.2 1.8,-0.7 1.5,-1.6 -0.1,-0.3 -0.5,-0.4 -0.7,-0.1 0,0 -0.1,0 -0.1,0 -0.1,-0.7 0.7,-1 1.2,-0.8 0.8,0.3 0.9,1.3 0.4,2 -0.5,0.9 -1.6,1.2 -2.6,1.1 -1.6,-0.1 -2.5,-1.3 -2.2,-2.5 0.3,-1.2 1.4,-1.8 2.6,-2 l 0.2,0 c -0.2,-0.1 -0.3,-0.2 -0.4,-0.4 0,0 -0.4,0 -0.8,-0.1 -0.4,-0.1 -0.8,-0.2 -1,-0.5 -0.3,-0.4 -0.5,-0.9 -0.1,-1.3 0.3,-0.3 0.8,-0.4 1.1,-0.1 0.1,0.1 0.2,0.3 0.2,0.4 0,0.1 0,0.2 -0.1,0.3 0,0 -0.1,0 -0.1,-0.1 0,-0.1 -0.1,-0.1 -0.2,-0.1 -0.2,0 -0.3,0.2 -0.2,0.3 0,0.3 0.2,0.5 0.7,0.6 0.4,0.1 0.6,0.1 0.6,0.1 0,0 -0.1,-0.3 0,-0.7 0.3,-1.2 1.4,-1.5 2.4,-1.5 0.7,0 1.7,0.2 1.7,1 0,0.6 -0.6,1 -1.1,1.2 -0.5,0.2 -1.1,0.3 -1.6,0.4 l -0.2,0 c -0.1,0.2 0.1,0.3 0.4,0.3 z m -4,-10 c 0,-0.4 0.4,-0.8 0.8,-0.8 0.3,0 0.6,0.2 0.8,0.5 h 10.2 v 0.6 h -10.2 c -0.1,0.3 -0.4,0.5 -0.8,0.5 -0.4,0 -0.8,-0.3 -0.8,-0.8 z m 11,-18.5 c 0.1,1.1 0.3,2.1 0.4,3.2 -0.5,0.1 -1.1,0.1 -1.6,0.2 0,-0.3 -0.1,-0.5 -0.1,-0.8 -0.6,-0.3 -1.2,-0.6 -1.8,-0.9 -1,0.2 -2.1,0.3 -3.1,0.5 0.1,0.8 0.3,1.5 0.4,2.3 0.3,-0.1 0.6,-0.1 0.9,-0.2 0.2,-0.4 0.5,-0.9 0.7,-1.3 0.4,-0.1 0.8,-0.1 1.1,-0.2 0.2,1.2 0.4,2.4 0.5,3.7 -0.4,0.1 -0.7,0.1 -1.1,0.2 -0.4,-0.4 -0.7,-0.8 -1.1,-1.1 -0.3,0 -0.6,0.1 -0.9,0.2 0.2,0.9 0.3,1.8 0.5,2.7 0.9,-0.2 1.7,-0.3 2.6,-0.4 0.6,-0.6 1.2,-1.2 1.9,-1.8 0,-0.2 -0.1,-0.5 -0.1,-0.7 0.5,-0.1 1.1,-0.1 1.6,-0.2 0.1,1.2 0.3,2.3 0.4,3.5 -3.9,0.5 -7.8,1.1 -11.6,2 -0.1,-0.4 -0.2,-0.8 -0.3,-1.3 0.3,-0.1 0.6,-0.1 1,-0.2 0.1,-0.2 0.3,-0.4 0.4,-0.6 -0.4,-1.7 -0.7,-3.5 -1.1,-5.2 -0.2,-0.1 -0.4,-0.2 -0.6,-0.4 -0.3,0.1 -0.7,0.1 -1,0.2 -0.1,-0.4 -0.2,-0.8 -0.3,-1.3 4,-0.9 8.1,-1.6 12.3,-2.1 z m -25.2,5.7 c 0.1,0.2 0.1,0.3 0.2,0.5 1.3,0.9 2.6,1.9 3.9,2.8 0.5,-1.5 0.9,-3 1.5,-4.5 -0.1,-0.2 -0.1,-0.4 -0.2,-0.5 2,-0.6 4,-1.1 6,-1.6 0.1,0.4 0.2,0.8 0.3,1.3 -0.3,0.1 -0.7,0.2 -1,0.2 -0.1,0.2 -0.3,0.4 -0.4,0.6 0.4,1.7 0.9,3.5 1.3,5.2 0.2,0.1 0.4,0.2 0.6,0.3 0.3,-0.1 0.6,-0.2 1,-0.2 0.1,0.4 0.2,0.8 0.3,1.3 -2.2,0.5 -4.4,1.1 -6.6,1.8 -0.1,-0.4 -0.2,-0.8 -0.4,-1.2 0.3,-0.1 0.6,-0.2 0.9,-0.3 0.1,-0.2 0.2,-0.4 0.4,-0.6 -0.4,-1.4 -0.8,-2.8 -1.2,-4.3 -0.7,2.2 -1.4,4.4 -2,6.6 0,0.1 0.1,0.3 0.1,0.4 -0.4,0.1 -0.7,0.2 -1.1,0.4 0,-0.1 -0.1,-0.3 -0.1,-0.4 -1.7,-1.3 -3.4,-2.5 -5.2,-3.8 0.4,1.2 0.9,2.4 1.3,3.5 0.2,0.1 0.5,0.3 0.7,0.4 0.3,-0.1 0.6,-0.2 0.9,-0.3 0.1,0.4 0.3,0.8 0.4,1.2 -1.4,0.5 -2.8,1 -4.2,1.6 -0.2,-0.4 -0.3,-0.8 -0.5,-1.2 0.3,-0.1 0.6,-0.2 0.9,-0.4 0.1,-0.3 0.2,-0.5 0.2,-0.8 -0.6,-1.6 -1.2,-3.2 -1.8,-4.8 -0.2,-0.1 -0.4,-0.2 -0.7,-0.2 -0.3,0.1 -0.6,0.3 -1,0.4 -0.2,-0.4 -0.3,-0.8 -0.5,-1.2 2,-0.7 4,-1.5 6,-2.2 z m -16.4,6.9 c 1.6,-0.8 3.2,-1.6 4.8,-2.3 0.1,0.2 0.2,0.3 0.2,0.5 2.1,1.6 4.1,3.3 6,5 0.2,-0.1 0.5,-0.2 0.7,-0.3 0.2,0.4 0.3,0.8 0.5,1.2 -2.3,0.9 -4.5,2 -6.8,3 -0.2,-0.4 -0.4,-0.8 -0.6,-1.2 0.4,-0.2 0.9,-0.4 1.3,-0.6 0,-0.2 0.1,-0.4 0.1,-0.7 -0.2,-0.2 -0.5,-0.4 -0.7,-0.6 -1.3,0.6 -2.6,1.3 -3.9,1.9 0,0.3 0,0.6 0,0.9 0.2,0.1 0.4,0.2 0.6,0.3 0.4,-0.2 0.8,-0.4 1.2,-0.6 0.2,0.4 0.4,0.8 0.6,1.1 -1.4,0.7 -2.8,1.5 -4.2,2.2 -0.2,-0.4 -0.4,-0.7 -0.6,-1.1 0.2,-0.1 0.5,-0.3 0.7,-0.4 0,-2.7 0.1,-5.3 0.2,-8 0.1,0.1 0,-0.1 -0.1,-0.3 z m -13.7,8 c 1.5,-1 3,-2 4.5,-2.9 0.6,-0.2 1.3,-0.3 1.9,-0.5 -0.1,-0.1 -0.2,-0.3 -0.2,-0.4 0.5,-0.3 1,-0.6 1.5,-0.9 0.6,1 1.1,2 1.7,3 -0.5,0.3 -1.1,0.6 -1.6,1 -0.1,-0.2 -0.2,-0.3 -0.3,-0.5 -1,0 -2,0 -3,0 -0.6,0.4 -1.2,0.8 -1.8,1.2 -0.2,0.6 -0.3,1.2 -0.5,1.8 0.8,1.2 1.5,2.3 2.3,3.5 0.5,0.1 0.9,0.1 1.4,0.2 0.6,-0.4 1.1,-0.7 1.7,-1.1 0.1,-0.2 0.1,-0.4 0.2,-0.7 -0.3,-0.4 -0.6,-0.9 -0.8,-1.3 -0.5,0.3 -0.9,0.6 -1.4,0.9 -0.2,-0.4 -0.5,-0.7 -0.7,-1.1 2.1,-1.3 4.1,-2.6 6.3,-3.8 0.2,0.4 0.4,0.7 0.6,1.1 -0.4,0.2 -0.7,0.4 -1.1,0.6 0.6,1 1.1,1.9 1.7,2.9 -0.5,0.3 -1,0.6 -1.5,0.9 -0.1,-0.2 -0.3,-0.4 -0.4,-0.6 -0.5,0.6 -1,1.2 -1.5,1.9 -1.3,0.8 -2.6,1.7 -3.9,2.5 -1.3,0.3 -2.7,0.7 -4,1 -1.1,-1.6 -2.3,-3.1 -3.4,-4.7 0.7,-1.5 1.5,-2.7 2.3,-4 z m 147.3,21.5 c -0.5,0 -1,-0.3 -1.2,-0.8 H 398.2 c -0.2,0.5 -0.6,0.8 -1.2,0.8 -0.7,0 -1.2,-0.6 -1.2,-1.2 0,-0.7 0.6,-1.2 1.2,-1.2 0.5,0 1,0.3 1.2,0.8 h 151.6 c 0.2,-0.5 0.6,-0.8 1.2,-0.8 0.7,0 1.2,0.6 1.2,1.2 -0.1,0.6 -0.6,1.2 -1.3,1.2 z"
   inkscape:connector-curvature="0"
   style="fill:none" />

		<path
   id="path3018"
   d="m 439.8,247.2 c 0.3,-0.5 0.5,-0.4 0.6,0.2 0.2,1.3 0.8,3 2,3.7 1.1,0.6 1.7,0.1 1.9,-0.3 -0.2,-0.1 -0.5,-0.3 -0.5,-0.5 -0.2,-0.6 0.4,-1 0.9,-1 0.7,0 1.2,0.7 1.3,1.3 0.1,0.6 -0.3,1.2 -0.8,1.5 -0.6,0.4 -1.5,0.5 -2.2,0.3 1.2,0.7 2.7,1.1 4.4,0.7 2.8,-0.6 4.3,-2 4.2,-3.8 0,-0.5 -0.2,-1 -0.5,-1.4 -0.6,-0.8 -1.6,-0.5 -1.5,0 0.1,0.1 0.1,0.2 0.1,0.4 0,0.6 -0.5,1 -1,0.9 -0.6,-0.1 -1,-0.9 -0.7,-1.5 0.3,-0.7 1.2,-1.4 2.4,-1.3 1.2,0.1 2.3,1.4 2.3,2.9 0,0.2 0,0.4 0,0.8 0.8,-0.2 1.6,-0.3 2.2,0 0.7,0.2 1.2,0.7 1.6,1.3 0.1,0 0.1,-0.1 0.2,-0.1 0,-1.1 0.6,-2.3 1.7,-3.2 1.2,-0.9 2.7,-1.2 4.1,-0.8 0.2,0.1 0.3,0.2 0.3,0.4 0.2,1.3 0,2.7 -0.8,3.8 -0.5,0.8 -1.3,1.4 -2.2,1.7 0.4,0.4 0.6,0.7 0.8,0.9 2.1,-0.9 5.5,-2 8.8,-2.3 1.8,-0.2 2.8,-0.1 3.5,0.1 0.5,0.1 0.8,0.4 1,0.8 0.2,-0.4 0.5,-0.7 1,-0.8 0.7,-0.2 1.7,-0.2 3.5,-0.1 3.3,0.3 6.7,1.4 8.8,2.3 0.2,-0.2 0.4,-0.5 0.8,-0.9 -0.9,-0.3 -1.6,-0.9 -2.2,-1.7 -0.7,-1.1 -1,-2.5 -0.8,-3.8 0,-0.2 0.2,-0.3 0.3,-0.4 1.4,-0.5 2.9,-0.2 4.1,0.8 1,0.8 1.6,2 1.7,3.2 0.1,0 0.1,0 0.2,0.1 0.4,-0.6 0.9,-1.1 1.6,-1.3 0.7,-0.2 1.5,-0.2 2.2,0 0,-0.3 0,-0.6 0,-0.8 0.1,-1.5 1.1,-2.8 2.3,-2.9 1.2,-0.1 2.1,0.6 2.4,1.3 0.3,0.6 -0.1,1.5 -0.7,1.5 -0.5,0.1 -1.1,-0.3 -1,-0.9 0,-0.1 0,-0.3 0.1,-0.4 0,-0.5 -0.9,-0.8 -1.6,0 -0.3,0.4 -0.5,0.9 -0.5,1.4 -0.1,1.8 1.5,3.2 4.2,3.8 1.7,0.3 3.2,0 4.4,-0.7 -0.8,0.2 -1.6,0.1 -2.2,-0.3 -0.5,-0.3 -0.8,-0.9 -0.8,-1.5 0.1,-0.7 0.6,-1.3 1.3,-1.3 0.5,0 1,0.4 0.9,1 -0.1,0.2 -0.3,0.4 -0.5,0.5 0.3,0.5 0.9,0.9 1.9,0.3 1.2,-0.7 1.9,-2.4 2,-3.7 0.1,-0.6 0.3,-0.7 0.6,-0.2 0.1,-1.4 -0.2,-3.1 -1.1,-4.6 0.1,0.5 0.1,1.1 -0.1,1.5 -0.3,0.7 -0.8,1.2 -1.5,1.4 -0.7,0.3 -1.5,0.2 -2.1,-0.1 -0.6,-0.3 -0.9,-0.9 -0.8,-1.5 0.1,-0.5 0.4,-0.9 0.9,-0.9 0.4,0 0.8,0.3 0.8,0.7 0,0.1 0,0.2 -0.1,0.3 0.4,0.4 1.5,0.4 1.9,-0.3 1,-1.9 -1.4,-3.3 -2.8,-4.1 -0.4,-0.2 -0.3,-0.4 0.5,-0.6 -0.1,-0.1 -0.1,-0.1 -0.2,-0.1 -1.5,-0.9 -3.3,-1.8 -5.3,-2.6 -3.2,-1.2 -7,-2.3 -11.2,-2.9 -4,-0.7 -8.4,-1 -13,-1 -4.6,0 -8.9,0.4 -13,1 -4.2,0.7 -8,1.7 -11.2,2.9 -2,0.8 -3.7,1.6 -5.3,2.6 -0.1,0 -0.1,0.1 -0.2,0.1 0.8,0.2 0.9,0.4 0.5,0.6 -1.4,0.7 -3.8,2.2 -2.8,4.1 0.4,0.7 1.4,0.7 1.9,0.3 0,-0.1 -0.1,-0.2 -0.1,-0.3 0,-0.4 0.3,-0.7 0.8,-0.7 0.5,0 0.8,0.4 0.9,0.9 0.1,0.6 -0.3,1.2 -0.8,1.5 -0.6,0.3 -1.5,0.3 -2.2,0.1 -0.7,-0.2 -1.2,-0.8 -1.5,-1.4 -0.2,-0.5 -0.2,-1 -0.1,-1.5 -0.8,1.6 -1.1,3.2 -0.9,4.6 z"
   inkscape:connector-curvature="0"
   style="fill:none" />

		<path
   id="path3020"
   d="m 419.1,277.6 c 0,1.2 0,2.4 0,3.6 0.9,-0.5 1.8,-0.9 2.8,-1.4 -1,-0.7 -1.9,-1.5 -2.8,-2.2 z"
   inkscape:connector-curvature="0"
   style="fill:none" />

		<path
   id="path3022"
   d="m 459,293.4 c -0.5,0.6 -1,1.4 -1,2 0.1,0.9 0.9,0.2 1.2,-0.3 0.1,-0.3 0.3,-0.5 0.4,-0.8 l 0,-0.1 c -0.2,0.1 -0.5,-0.1 -0.4,-0.3 0,0 0,-0.1 0,0 0.2,0.1 0.5,-0.1 0.7,-0.3 0.1,-0.2 0.2,-0.5 0,-0.7 -0.2,-0.1 -0.6,0.2 -0.9,0.5 z"
   inkscape:connector-curvature="0"
   style="fill:none" />

		<path
   id="path3024"
   d="m 453.7,290.5 c 0,-0.5 -0.4,-0.6 -1,-0.6 -0.7,0 -1.4,0.6 -1.5,1.4 0,0.1 0,0.2 0,0.4 0,0 0.7,0 1.7,-0.3 0.4,-0.2 0.8,-0.5 0.8,-0.9 z"
   inkscape:connector-curvature="0"
   style="fill:none" />

		<polygon
   id="polygon3026"
   points="474.7,282.7 475.5,282 474.4,281.8 473.9,280.9 473.4,281.8 472.3,282 473.1,282.8 473,283.8 473.9,283.3 474.9,283.8 "
   style="fill:none" />

		<path
   id="path3028"
   d="m 389.8,163.9 c 0.8,-0.7 1.5,-1.2 2.1,-1.5 v -1.7 c -0.4,-0.3 -0.8,-0.7 -1,-1.2 -0.3,0.3 -0.7,0.5 -1,0.8 -2.6,2.4 -3.9,3.1 -5.4,3 v 8.4 c 0.5,-1.6 1.3,-3.1 2.4,-4.5 0.7,-1.1 1.8,-2.2 2.9,-3.3 z"
   inkscape:connector-curvature="0"
   style="fill:none" />

		<path
   id="path3030"
   d="m 386.7,299.2 c -1,-1.4 -1.8,-2.9 -2.4,-4.5 v 8.4 c 1.5,-0.1 2.8,0.6 5.4,3 0.3,0.3 0.7,0.6 1,0.8 0.3,-0.4 0.6,-0.8 1,-1.2 V 304 c -0.6,-0.3 -1.3,-0.8 -2.1,-1.5 -0.9,-1 -2,-2.1 -2.9,-3.3 z"
   inkscape:connector-curvature="0"
   style="fill:none" />

		<polygon
   id="polygon3032"
   points="370.5,239.2 370.5,237 370.8,237 371.3,237.5 371.3,237.9 371.9,237.9 371.9,236.5 367.5,236.5 367.5,237.9 368.1,237.9 368.1,237.5 368.7,237 369,237 369,239.2 368.8,239.4 368.2,239.4 368.2,239.9 371.2,239.9 371.2,239.4 370.7,239.4 "
   style="fill:none" />

		<polygon
   id="polygon3034"
   points="370,234.4 369.3,234.4 368.4,233.8 368.3,233.6 367.7,233.6 367.7,234.9 368.3,234.9 368.3,234.7 368.8,234.9 370.6,234.9 371.8,234.3 371.8,233.1 370.6,232.5 369.7,232.5 369.2,232.3 369.2,232 369.4,231.9 370.2,231.9 371,232.3 371.1,232.5 371.6,232.5 371.6,231.4 371.1,231.4 371.1,231.6 370.5,231.4 368.9,231.4 367.7,231.9 367.7,233.1 369,233.7 369.9,233.7 370.4,233.9 370.4,234.2 "
   style="fill:none" />

		<path
   id="path3036"
   d="m 480.3,291.3 c -0.1,0.3 0.3,0.5 0.6,0.3 0.4,-0.2 0.5,-0.7 0.3,-1.1 -0.1,-0.2 -0.3,-0.3 -0.5,-0.3 -0.5,0 -1,0.3 -1.6,1 -0.7,0.7 -1.3,1.6 -1.7,2.7 -0.2,0.6 -0.3,1.1 -0.4,1.6 0,0.7 0.2,1.1 0.6,1.1 0.5,0 1,-0.3 1.6,-1 0.7,-0.7 1.3,-1.6 1.7,-2.6 0.1,-0.2 0.2,-0.6 0.2,-0.6 -0.7,0.2 -1.3,-0.6 -0.8,-1.1 -0.1,0 0,0 0,0 z"
   inkscape:connector-curvature="0"
   style="fill:none" />

		<polygon
   id="polygon3038"
   points="369.5,229.3 369.5,228.2 369.8,228.2 370.2,228.7 370.6,228.7 370.6,227.3 370.2,227.3 369.8,227.8 369.5,227.8 369.5,226.9 370.6,226.9 371.2,227.3 371.2,227.6 371.8,227.6 371.8,226.4 367.5,226.4 367.5,226.9 367.8,226.9 368,227 368,229.1 367.8,229.3 367.5,229.3 367.5,229.8 371.8,229.8 371.8,228.5 371.3,228.5 371.3,228.7 370.5,229.3 "
   style="fill:none" />

		<path
   id="path3040"
   d="m 494.4,292.9 c -0.3,-0.2 -1,0.5 -1.2,0.8 -0.2,0.3 -0.7,0.9 -0.9,1.8 -0.2,0.9 0.1,1 0.7,0.6 0.2,-0.1 0.6,-0.6 0.8,-1 0.3,-0.5 0.4,-0.7 0.4,-0.7 -0.2,0.1 -0.4,0 -0.5,-0.3 0,0 0,-0.1 0.1,0 0.2,0.1 0.4,-0.1 0.6,-0.3 0.1,-0.3 0.2,-0.8 0,-0.9 z"
   inkscape:connector-curvature="0"
   style="fill:none" />

		<path
   id="path3042"
   d="m 490.3,294.3 c -0.2,0.1 -0.5,-0.1 -0.4,-0.3 0,0 0,-0.1 0,0 0.2,0.1 0.5,-0.1 0.7,-0.3 0.1,-0.2 0.2,-0.5 0,-0.7 -0.2,-0.2 -0.6,0.1 -0.9,0.4 -0.5,0.6 -1,1.4 -1,2 0.1,0.9 0.9,0.2 1.2,-0.3 0.1,-0.3 0.3,-0.5 0.4,-0.8 l 0,0 z"
   inkscape:connector-curvature="0"
   style="fill:none" />

		<path
   id="path3044"
   d="m 558.2,302.5 c -0.8,0.7 -1.5,1.2 -2.1,1.5 v 1.7 c 0.4,0.3 0.8,0.7 1,1.2 0.3,-0.3 0.7,-0.5 1,-0.8 2.6,-2.4 3.9,-3.1 5.4,-3 v -8.4 c -0.5,1.6 -1.3,3.1 -2.4,4.5 -0.8,1.2 -1.8,2.3 -2.9,3.3 z"
   inkscape:connector-curvature="0"
   style="fill:none" />

		<path
   id="path3046"
   d="m 487.2,298.4 c 0.3,0.3 1,-0.3 1.2,-0.7 l 0.2,-0.4 c 0,0 -0.4,0.1 -0.7,0.2 -0.3,0.1 -1,0.6 -0.7,0.9 z"
   inkscape:connector-curvature="0"
   style="fill:none" />

		<path
   id="path3048"
   d="m 486.7,294.4 c 0.4,-0.3 1.1,-1.3 0.6,-1.4 -0.4,-0.1 -1,0.4 -1.3,1 0,0 0.2,0.1 0.1,0.3 0,0 0,0.1 -0.1,0 0,0 -0.1,0 -0.1,0 -0.1,0 -0.2,0.2 -0.1,0.3 0.3,0.1 0.6,0 0.9,-0.2 z"
   inkscape:connector-curvature="0"
   style="fill:none" />

		<path
   id="path3050"
   d="m 577.2,228.9 -1.2,0.6 v 2.5 l 1,0.5 h 2.2 l 1.2,-0.6 v -2.5 l -1,-0.5 h -2.2 z m 1.7,2.7 -0.3,0.3 h -0.7 l -0.3,-0.3 v -1.8 l 0.3,-0.3 h 0.7 l 0.3,0.3 v 1.8 z"
   inkscape:connector-curvature="0"
   style="fill:none" />

		<polygon
   id="polygon3052"
   points="580,225.7 580,224.6 579,224.2 577.3,224.2 576.2,224.7 576.2,225.3 576.6,225.5 577.2,225.5 577.6,225.3 577.6,224.9 577.7,224.7 578.2,224.7 578.5,225 578.5,225.5 576.7,226.1 576.2,227 576.2,227.7 580.1,227.7 580.1,226.2 579.6,226.2 579.6,226.5 579.4,226.7 577.7,226.7 577.1,226.8 577.3,226.5 "
   style="fill:none" />

		<path
   id="path3054"
   d="m 557.1,159.5 c -0.3,0.4 -0.6,0.8 -1,1.2 v 1.7 c 0.6,0.3 1.3,0.8 2.1,1.5 1.1,1 2.2,2.1 3,3.3 1,1.4 1.8,2.9 2.4,4.5 v -8.4 c -1.5,0.1 -2.8,-0.6 -5.4,-3 -0.4,-0.2 -0.8,-0.5 -1.1,-0.8 z"
   inkscape:connector-curvature="0"
   style="fill:none" />

		<path
   id="path3056"
   d="m 450.2,169.2 c -3,0 -3.6,1.9 -3.6,5.5 -0.2,14.1 -0.4,28.2 -0.6,42.3 -0.1,3.9 0.9,4.7 3.6,4.3 2.7,-0.4 3.7,-1.4 3.7,-5.3 0.1,-13.8 0.3,-27.6 0.4,-41.4 0.1,-3.6 -0.5,-5.4 -3.5,-5.4 z"
   inkscape:connector-curvature="0"
   style="fill:none" />

		<path
   id="path3058"
   d="m 487.8,169.2 c -3,0 -3.6,1.8 -3.5,5.3 0.1,13.6 0.2,27.1 0.2,40.7 0,3.8 1,4.8 3.7,5 2.7,0.2 3.7,-0.6 3.6,-4.4 -0.1,-13.7 -0.3,-27.4 -0.4,-41.1 0,-3.7 -0.6,-5.5 -3.6,-5.5 z"
   inkscape:connector-curvature="0"
   style="fill:none" />

		<path
   id="path3060"
   d="m 562,179.7 c -1.6,0.1 -2.2,-2.5 -0.9,-2.9 0.3,0.9 1.3,0.7 1.5,0.2 0.2,-0.4 0.3,-1.5 0.1,-3 -0.4,-2.3 -1.3,-4.4 -2.7,-6.3 -0.8,-1 -1.7,-2 -2.7,-2.8 -0.7,-0.6 -1.5,-1.2 -2.4,-1.8 V 160 c 0.3,-0.2 0.7,-0.6 1.1,-1.2 -1.8,-1 -3.5,-1.3 -5.2,-1.4 V 156 H 485.1 462.7 397 v 1.5 c -1.7,0.1 -3.4,0.3 -5.2,1.4 0.4,0.6 0.8,1 1.1,1.2 v 3.1 c -0.9,0.6 -1.7,1.2 -2.4,1.8 -1,0.8 -1.9,1.8 -2.7,2.8 -1.4,1.8 -2.3,4 -2.7,6.3 -0.2,1.5 -0.1,2.6 0.1,3 0.2,0.5 1.2,0.8 1.5,-0.2 1.3,0.4 0.6,2.9 -0.9,2.9 -0.6,0 -1.1,-0.2 -1.5,-0.7 l 0,74.9 c 0.6,0 1.2,0 1.7,0.1 2.5,0.2 4.4,0.8 5.8,1.6 0.6,-1.6 1.5,-3.1 2.6,-4.4 3.5,-4.2 9.4,-6.8 15.1,-7 3.3,-0.1 6.6,0.4 8.7,2.7 0.7,0.8 1.2,2 1.2,3.1 0,1 -0.5,2.1 -1.3,2.7 -0.3,0.2 -0.8,0.3 -1.1,0.2 -0.4,-0.2 -0.5,-0.6 -0.9,-0.9 -1.2,-0.9 -2.7,-1.1 -4.2,-0.5 -2.1,0.8 -3.6,2.8 -3.3,5 0.2,1.5 1.2,2.5 2.6,3.1 1.6,0.8 3.4,0.9 5.2,0.8 3.8,-0.3 7.5,-1.9 11,-3.6 4.1,-2 8,-4.4 12,-6.8 0,-0.1 -0.1,-0.2 -0.1,-0.3 -0.3,-0.8 -0.5,-1.6 -0.6,-2.6 -0.3,0.3 -0.6,0.4 -0.9,0.4 -0.8,-0.1 -0.9,-0.7 -0.8,-1 0.1,-0.4 0.8,-0.5 0.9,-0.3 0.1,0.2 0.6,-0.6 0.9,-1.3 0.5,-2.3 1.9,-4.7 4.9,-6.6 1.4,-0.9 2.9,-1.6 4.7,-2.4 3.3,-1.4 7.2,-2.4 11.5,-3.2 1.3,-0.2 2.7,-0.4 4.1,-0.6 -1.8,-0.3 -3.7,-1.4 -3.6,-3.4 0.1,-1.4 1.4,-2.1 2.7,-2 0.7,0.1 1.3,0.6 1.2,1.3 0,0.4 -0.4,0.9 -0.9,0.9 -0.5,0 -0.9,-0.3 -0.9,-0.7 -0.5,0.1 -0.9,0.6 -0.5,1.4 0.6,1.1 2.4,1.3 3.5,1.4 1.6,0.2 3.4,0.2 4.9,-0.4 2.9,-1 2.8,-2.7 2.5,-3.6 -0.1,-0.3 -0.2,-0.5 -0.5,-0.7 -0.5,-0.2 -0.9,-0.2 -0.9,0.1 0.1,0.1 0.2,0.3 0.2,0.5 0,0.4 -0.4,0.8 -0.9,0.8 -0.5,0 -0.9,-0.5 -0.9,-0.9 -0.2,-0.8 0.2,-1.4 1,-1.7 1.1,-0.5 2.5,0.1 3.1,1.1 0.6,-1 1.9,-1.6 3.1,-1.1 0.7,0.3 1.2,1 1,1.7 -0.1,0.4 -0.5,0.9 -0.9,0.9 -0.5,0 -0.9,-0.4 -0.9,-0.8 0,-0.2 0.1,-0.4 0.2,-0.5 -0.1,-0.3 -0.4,-0.4 -0.9,-0.1 -0.3,0.1 -0.4,0.4 -0.5,0.7 -0.3,0.9 -0.4,2.6 2.5,3.6 1.5,0.5 3.3,0.6 4.9,0.4 1.1,-0.2 2.9,-0.4 3.5,-1.4 0.5,-0.8 0,-1.3 -0.5,-1.4 -0.1,0.4 -0.5,0.7 -1,0.7 -0.5,0 -0.8,-0.5 -0.9,-0.9 -0.1,-0.7 0.5,-1.3 1.2,-1.3 1.3,-0.1 2.6,0.6 2.7,2 0.1,2 -1.7,3 -3.6,3.4 1.4,0.2 2.7,0.4 4.1,0.6 4.3,0.8 8.1,1.8 11.5,3.2 1.8,0.7 3.3,1.5 4.7,2.4 3,1.9 4.5,4.3 4.9,6.6 0.2,0.7 0.7,1.5 0.9,1.3 0.1,-0.3 0.8,-0.2 0.9,0.3 0.1,0.4 0,1 -0.8,1 -0.3,0 -0.6,-0.1 -0.9,-0.4 -0.1,0.9 -0.3,1.8 -0.6,2.6 0,0.1 -0.1,0.2 -0.2,0.3 4,2.4 7.9,4.7 12,6.7 3.5,1.7 7.2,3.2 11,3.6 1.8,0.2 3.6,0 5.2,-0.8 1.3,-0.6 2.4,-1.7 2.6,-3.1 0.3,-2.1 -1.2,-4.2 -3.3,-5 -1.5,-0.6 -3,-0.4 -4.2,0.5 -0.3,0.3 -0.5,0.7 -0.9,0.9 -0.4,0.2 -0.8,0.1 -1.1,-0.2 -0.8,-0.6 -1.3,-1.6 -1.3,-2.7 0,-1.1 0.5,-2.3 1.2,-3.1 2.1,-2.3 5.4,-2.8 8.7,-2.7 5.6,0.2 11.5,2.9 15.1,7 1.1,1.3 2,2.8 2.6,4.4 1.4,-0.9 3.3,-1.4 5.8,-1.6 0.6,0 1.2,-0.1 1.8,-0.1 0,-24.9 0,-74.9 0,-74.9 -0.4,0.5 -1,0.7 -1.6,0.7 z m -132.5,46.2 c -11,3.1 -21.8,7.3 -32.2,12.7 0,-0.5 0,-1 0,-1.5 1.2,-0.6 2.3,-1.2 3.5,-1.7 0.1,-21.7 0.1,-43.4 0.2,-65 -1.2,0 -2.4,0 -3.7,0.1 0,-0.5 0,-1 0,-1.5 6.5,0 13.1,-0.1 19.6,-0.1 0,0.5 0,0.9 0,1.4 -1.4,0 -2.7,0 -4.1,0.1 -0.2,20.1 -0.4,40.2 -0.6,60.2 1,-0.4 2.1,-0.8 3.1,-1.2 6.3,-2.2 8.2,-4.6 13.2,-25.9 0.4,-0.1 0.9,-0.2 1.4,-0.2 -0.1,7.3 -0.3,14.9 -0.4,22.6 z m 20.1,-3.5 c -11.3,1.9 -15.7,-5.2 -15.4,-25.6 0.3,-20.3 5,-28.9 16.1,-28.8 11.1,0 15.6,7.9 15.5,26.4 -0.1,18.6 -4.9,26.4 -16.2,28 z m 38.6,-1.2 c -11.4,-0.9 -16.1,-8.4 -16.1,-26.9 0,-18.4 4.6,-26.3 15.7,-26.3 11.1,-0.1 15.7,8.2 16,27.7 0.3,19.6 -4.2,26.7 -15.6,25.5 z m 62.4,17.4 c -5.9,-3.1 -11.9,-5.8 -18.1,-8.1 0,-0.5 0,-0.9 0,-1.4 1.3,0.5 2.5,0.9 3.8,1.4 -0.2,-18.9 -0.4,-37.7 -0.6,-56.6 -0.2,0 -0.3,0 -0.5,0 -2.7,19.2 -5.4,37.3 -8,54.6 -1.6,-0.5 -3.2,-1.1 -4.8,-1.5 -3.1,-18.7 -6.3,-36.6 -9.4,-53.8 -0.2,0 -0.4,0 -0.6,0 0.2,15.1 0.5,30.2 0.7,45.2 0,3.1 2.2,5 5,6.1 0,0.4 0,0.8 0,1.3 -3.8,-1.1 -7.6,-2 -11.5,-2.7 0,-0.4 0,-0.8 0,-1.2 3.2,0 4.6,-1.2 4.5,-4.1 -0.2,-16 -0.5,-32 -0.7,-47.9 -1.3,0 -2.6,0 -3.9,0 0,-0.4 0,-0.8 0,-1.2 5.4,0 10.7,0 16.1,0 2,11.2 3.9,22.8 5.9,34.7 0.2,0 0.4,0.1 0.6,0.1 1.7,-11.2 3.4,-22.8 5.1,-34.8 5.4,0 10.7,0 16.1,0.1 0,0.5 0,1 0,1.5 -1.2,0 -2.4,0 -3.6,-0.1 0.1,21.7 0.1,43.3 0.2,65 1.2,0.6 2.4,1.2 3.6,1.8 0.1,0.5 0.1,1.1 0.1,1.6 z m 0.3,-75.8 c -0.5,0 -1,-0.3 -1.2,-0.8 H 398.2 c -0.2,0.5 -0.6,0.8 -1.2,0.8 -0.7,0 -1.2,-0.6 -1.2,-1.2 0,-0.7 0.6,-1.2 1.2,-1.2 0.5,0 1,0.3 1.2,0.8 h 151.6 c 0.2,-0.5 0.6,-0.8 1.2,-0.8 0.7,0 1.2,0.6 1.2,1.2 -0.1,0.7 -0.6,1.2 -1.3,1.2 z"
   inkscape:connector-curvature="0"
   style="fill:none" />

		<polygon
   id="polygon3062"
   points="579,238.4 577.3,238.4 576.2,238.9 576.2,239.5 576.6,239.7 577.2,239.7 577.6,239.5 577.6,239.1 577.7,238.9 578.2,238.9 578.5,239.2 578.5,239.7 576.7,240.3 576.2,241.1 576.2,241.9 580.1,241.9 580.1,240.4 579.6,240.4 579.6,240.7 579.4,240.9 577.7,240.9 577.1,241 577.3,240.6 580,239.9 580,238.8 "
   style="fill:none" />

		<path
   id="path3064"
   d="m 585.8,191.6 c -6.8,-1.2 -12.5,-6.3 -14.4,-12.9 -0.2,-0.6 -0.3,-1.2 -0.4,-1.9 h -3 v -25.7 h -93.5 -1.2 -93.5 v 25.7 h -3.1 c -0.1,0.7 -0.2,1.3 -0.4,1.9 -1.9,6.6 -7.6,11.7 -14.4,12.9 v 3.1 H 356 v 18 41.2 18 h 5.9 v 3.1 c 6.8,1.2 12.5,6.3 14.4,13 0.2,0.6 0.3,1.1 0.4,1.8 h 3.1 v 25.7 h 93.5 1.2 93.5 v -25.7 h 3.1 c 0.1,-0.6 0.2,-1.2 0.4,-1.8 1.8,-6.7 7.6,-11.8 14.4,-13 v -3.1 h 5.9 v -18 -41.2 -18 h -5.9 v -3.1 z m -216.1,8.2 c 0.6,0 1.1,0.5 1.1,1.1 0,0.5 -0.3,0.9 -0.7,1 v 12.6 h -0.8 v -12.6 c -0.4,-0.2 -0.7,-0.5 -0.7,-1 0,-0.6 0.5,-1.1 1.1,-1.1 z m 0,67.2 c -0.6,0 -1.1,-0.5 -1.1,-1.1 0,-0.5 0.3,-0.9 0.7,-1 v -13.3 h 0.8 v 13.3 c 0.4,0.2 0.7,0.5 0.7,1 0,0.6 -0.5,1.1 -1.1,1.1 z m 3.9,-16.8 h -7.9 l -2.1,-17 2.1,-17.4 h 7.9 l 2.3,17.5 -2.3,16.9 z m 191.1,17.5 v 36.6 c -2.5,-0.5 -3.8,0.7 -6.1,2.7 -0.3,0.3 -0.7,0.6 -1,0.8 0.4,1 0.5,2 0.4,2.6 h 4.7 c 0.1,-0.3 0.5,-0.6 0.8,-0.7 v -1 -0.1 c 0,-1.2 -1.4,-1.3 -1.7,-0.7 0.2,0 0.6,0.1 0.6,0.7 0,0.6 -0.5,0.9 -0.8,0.9 -0.3,0 -1.1,-0.1 -1.1,-1.6 0,-1.1 1.3,-1.8 2.3,-1.7 1,0.1 1.8,1 1.8,2.1 v 0.3 1.4 0.3 c -0.4,0.1 -1,0.6 -1.2,1.2 h -6.7 c 0.2,-1.1 0.1,-2.1 -0.3,-3 -1.4,0.8 -2.7,1 -4.6,1.4 v 1.6 H 485.1 462.7 396 V 310 c -1.9,-0.3 -3.3,-0.6 -4.6,-1.4 -0.3,0.9 -0.5,1.9 -0.3,3 h -6.8 c -0.2,-0.6 -0.7,-1 -1.2,-1.2 v -0.3 -1.4 -0.3 c 0,-1.1 0.9,-2 1.8,-2.1 1,-0.1 2.3,0.5 2.3,1.7 0,1.6 -0.8,1.6 -1.1,1.6 -0.3,0 -0.8,-0.3 -0.8,-0.9 0,-0.6 0.4,-0.7 0.6,-0.7 -0.3,-0.6 -1.7,-0.5 -1.7,0.7 v 0.1 1 c 0.2,0.1 0.6,0.4 0.8,0.7 h 4.7 c -0.1,-0.6 0,-1.6 0.4,-2.6 -0.3,-0.2 -0.6,-0.5 -1,-0.8 -2.3,-2 -3.6,-3.3 -6.1,-2.7 v -39.2 l 0,-103.1 c 2.5,0.5 3.8,-0.7 6.1,-2.7 0.3,-0.3 0.7,-0.6 1,-0.8 -0.4,-1 -0.5,-2 -0.4,-2.6 H 385 c -0.1,0.3 -0.5,0.6 -0.8,0.7 v 1 0.1 c 0,1.2 1.4,1.3 1.7,0.7 -0.2,0 -0.6,-0.1 -0.6,-0.7 0,-0.6 0.5,-0.9 0.8,-0.9 0.3,0 1.1,0.1 1.1,1.6 0,1.2 -1.3,1.8 -2.3,1.7 -1,-0.1 -1.8,-1 -1.8,-2.1 v -0.3 -1.4 -0.4 c 0.4,-0.1 1,-0.6 1.2,-1.2 h 6.7 c -0.2,1.1 -0.1,2.1 0.3,3 1.4,-0.8 2.7,-1 4.6,-1.4 v -1.6 h 66.8 22.4 66.7 v 1.6 c 1.9,0.3 3.3,0.6 4.6,1.4 0.3,-0.9 0.5,-1.9 0.3,-3 h 6.7 c 0.2,0.6 0.7,1 1.2,1.2 v 0.3 1.4 0.3 c 0,1.1 -0.8,2 -1.8,2.1 -1,0.1 -2.3,-0.5 -2.3,-1.7 0,-1.6 0.8,-1.6 1.1,-1.6 0.3,0 0.9,0.3 0.8,0.9 0,0.6 -0.4,0.7 -0.6,0.7 0.3,0.6 1.7,0.5 1.7,-0.7 v -0.1 -1 c -0.2,-0.1 -0.6,-0.4 -0.8,-0.7 H 558 c 0.1,0.6 0,1.6 -0.4,2.6 0.3,0.2 0.6,0.5 1,0.8 2.3,2 3.6,3.3 6.1,2.7 0,0.1 0.1,105.7 0,105.7 z m 13.5,-68.1 c 0.6,0 1.1,0.5 1.1,1.1 0,0.5 -0.3,0.9 -0.7,1 v 12.6 h -0.8 v -12.6 c -0.4,-0.2 -0.7,-0.5 -0.7,-1 0.1,-0.6 0.5,-1.1 1.1,-1.1 z m 0,67.2 c -0.6,0 -1.1,-0.5 -1.1,-1.1 0,-0.5 0.3,-0.9 0.7,-1 v -13.3 h 0.8 v 13.3 c 0.4,0.2 0.7,0.5 0.7,1 0,0.6 -0.5,1.1 -1.1,1.1 z m 3.9,-16.7 h -7.9 l -2.1,-17 2.1,-17.4 h 7.9 l 2.3,17.4 -2.3,17 z"
   inkscape:connector-curvature="0"
   style="fill:none" />

		<polygon
   id="polygon3066"
   points="577.5,234.4 577.5,236.5 577.4,236.6 576.8,236.6 576.8,237.1 579.7,237.1 579.7,236.6 579.2,236.6 579,236.5 579,233.6 578.2,233.6 577.5,233.9 576.6,233.9 576.6,234.4 "
   style="fill:none" />

		<path
   id="path3068"
   d="m 542.6,175.4 c 0,-0.6 -0.5,-1.1 -1.1,-1.1 -0.6,0 -1.1,0.5 -1.1,1.1 0,0.5 0.3,0.9 0.7,1 v 49.4 c -0.4,0.2 -0.7,0.5 -0.7,1 0,0.6 0.5,1.1 1.1,1.1 0.6,0 1.1,-0.5 1.1,-1.1 0,-0.5 -0.3,-0.9 -0.7,-1 v -49.4 c 0.4,-0.1 0.7,-0.5 0.7,-1 z"
   inkscape:connector-curvature="0"
   style="fill:none" />

		<path
   id="path3070"
   d="m 407.9,175.4 c 0,-0.6 -0.5,-1.1 -1.1,-1.1 -0.6,0 -1.1,0.5 -1.1,1.1 0,0.5 0.3,0.9 0.7,1 v 49.4 c -0.4,0.2 -0.7,0.5 -0.7,1 0,0.6 0.5,1.1 1.1,1.1 0.6,0 1.1,-0.5 1.1,-1.1 0,-0.5 -0.3,-0.9 -0.7,-1 v -49.4 c 0.4,-0.1 0.7,-0.5 0.7,-1 z"
   inkscape:connector-curvature="0"
   style="fill:none" />

	</g>

	<g
   id="g3072">
		<path
   id="path3074"
   d="m 448.8,241.9 c 0,-0.1 -0.1,-0.2 -0.1,-0.3 0.1,-0.2 0.2,-0.5 0.3,-0.7 0.1,0 0.2,-0.1 0.3,-0.1 0.3,0.7 0.5,1.4 0.8,2.1 0,0.1 -0.1,0.2 -0.1,0.2 -0.2,0.1 -0.3,0.1 -0.5,0.2 0.1,0.2 0.1,0.3 0.2,0.5 0.9,-0.4 1.9,-0.7 2.8,-1 -0.1,-0.2 -0.1,-0.3 -0.2,-0.5 -0.2,0.1 -0.3,0.1 -0.5,0.2 -0.1,0 -0.2,-0.1 -0.2,-0.1 -0.2,-0.7 -0.5,-1.4 -0.7,-2.1 0.1,0 0.2,-0.1 0.3,-0.1 0.2,0.1 0.5,0.2 0.7,0.3 0,0.1 0.1,0.2 0.1,0.3 0.2,-0.1 0.4,-0.1 0.6,-0.2 -0.1,-0.4 -0.3,-0.9 -0.4,-1.3 -1.5,0.5 -2.9,1 -4.4,1.6 0.2,0.4 0.3,0.9 0.5,1.3 0.1,-0.1 0.3,-0.2 0.5,-0.3 z"
   inkscape:connector-curvature="0"
   style="fill:#ffffff" />

		<path
   id="path3076"
   d="m 453.1,239.5 c 0.1,0 0.2,0.1 0.2,0.1 0.2,0.6 0.4,1.3 0.6,2 0,0.1 -0.1,0.1 -0.1,0.2 -0.1,0 -0.2,0.1 -0.3,0.1 0,0.2 0.1,0.3 0.1,0.5 0.8,-0.3 1.6,-0.5 2.5,-0.7 0,-0.2 -0.1,-0.3 -0.1,-0.5 -0.1,0 -0.2,0.1 -0.3,0.1 -0.1,0 -0.2,-0.1 -0.2,-0.1 -0.1,-0.2 -0.1,-0.5 -0.2,-0.7 0.2,-0.1 0.5,-0.1 0.7,-0.2 0.1,0 0.3,0.1 0.4,0.1 0.1,0.3 0.2,0.6 0.2,0.9 0.3,0 0.5,0.1 0.8,0.1 0.5,-0.1 0.9,-0.2 1.4,-0.3 0,-0.2 -0.1,-0.3 -0.1,-0.5 -0.1,0 -0.2,0 -0.3,0.1 -0.1,0 -0.2,-0.1 -0.3,-0.1 -0.1,-0.2 -0.1,-0.5 -0.2,-0.7 -0.4,0 -0.7,0 -1.1,-0.1 0.3,-0.2 0.5,-0.4 0.8,-0.5 -0.1,-0.3 -0.2,-0.7 -0.3,-1 -0.3,0 -0.7,0 -1,0 -1.3,0.3 -2.5,0.7 -3.8,1.1 0,0.2 0.1,0.3 0.1,0.5 0.2,-0.3 0.3,-0.4 0.5,-0.4 z m 2.4,-0.7 c 0.1,0 0.3,0 0.4,0 0.1,0.2 0.1,0.5 0.2,0.7 -0.1,0.1 -0.2,0.2 -0.3,0.2 -0.2,0.1 -0.5,0.1 -0.7,0.2 -0.1,-0.3 -0.2,-0.6 -0.3,-1 0.2,0 0.5,0 0.7,-0.1 z"
   inkscape:connector-curvature="0"
   style="fill:#ffffff" />

		<path
   id="path3078"
   d="m 460.8,240.5 c 0,-0.2 -0.1,-0.3 -0.1,-0.5 -0.2,0 -0.3,0.1 -0.5,0.1 -0.1,-0.1 -0.1,-0.1 -0.2,-0.2 0,-0.1 0.1,-0.2 0.1,-0.3 0.5,-0.1 1,-0.2 1.5,-0.3 0.1,0.1 0.1,0.2 0.2,0.3 0,0.1 -0.1,0.2 -0.1,0.2 -0.2,0 -0.3,0.1 -0.5,0.1 0,0.2 0.1,0.3 0.1,0.5 0.9,-0.2 1.8,-0.3 2.7,-0.5 0,-0.2 0,-0.3 -0.1,-0.5 -0.1,0 -0.2,0 -0.3,0 -0.5,-0.8 -1.1,-1.6 -1.7,-2.4 0,-0.1 0,-0.1 0,-0.2 -0.6,0.1 -1.2,0.2 -1.9,0.3 0,0.1 0,0.1 0,0.2 -0.3,1 -0.6,1.9 -0.8,2.9 -0.1,0 -0.2,0 -0.3,0.1 0,0.2 0.1,0.3 0.1,0.5 0.7,-0.1 1.2,-0.2 1.8,-0.3 z m -0.2,-2.8 c 0.3,0.4 0.5,0.7 0.8,1.1 -0.4,0.1 -0.7,0.1 -1.1,0.2 0.1,-0.4 0.2,-0.8 0.3,-1.3 z"
   inkscape:connector-curvature="0"
   style="fill:#ffffff" />

		<path
   id="path3080"
   d="m 464.4,237 c 0.1,0.1 0.1,0.1 0.2,0.2 0.1,0.7 0.2,1.3 0.3,2 -0.1,0.1 -0.1,0.1 -0.2,0.2 -0.1,0 -0.2,0 -0.4,0.1 0,0.2 0,0.3 0.1,0.5 1.3,-0.2 2.6,-0.3 3.9,-0.5 0.4,-0.2 0.8,-0.5 1.2,-0.7 -0.1,-0.7 -0.1,-1.5 -0.2,-2.2 -0.5,-0.2 -0.9,-0.3 -1.4,-0.5 -1.3,0.1 -2.7,0.3 -4,0.5 0,0.2 0,0.3 0.1,0.5 0.1,-0.1 0.2,-0.1 0.4,-0.1 z m 2.8,-0.3 c 0.1,0.1 0.3,0.2 0.4,0.3 0,0.5 0.1,1 0.1,1.5 -0.1,0.1 -0.2,0.3 -0.4,0.4 -0.3,0 -0.7,0.1 -1,0.1 -0.1,-0.8 -0.2,-1.5 -0.3,-2.3 0.5,0 0.9,0 1.2,0 z"
   inkscape:connector-curvature="0"
   style="fill:#ffffff" />

		<path
   id="path3082"
   d="m 470.2,236.4 c 0.1,0.1 0.1,0.1 0.2,0.2 0,0.7 0.1,1.4 0.1,2 -0.1,0.1 -0.1,0.1 -0.2,0.2 -0.1,0 -0.2,0 -0.4,0 0,0.2 0,0.3 0,0.5 1.4,-0.1 2.9,-0.1 4.3,-0.1 0,-0.4 0,-0.9 0,-1.3 -0.2,0 -0.4,0 -0.6,0 0,0.1 0,0.2 0,0.3 -0.3,0.2 -0.5,0.4 -0.8,0.6 -0.3,0 -0.7,0 -1,0 0,-0.4 0,-0.7 0,-1.1 0.1,0 0.2,0 0.3,0 0.1,0.2 0.2,0.3 0.3,0.5 0.1,0 0.3,0 0.4,0 0,-0.5 0,-0.9 0,-1.4 -0.1,0 -0.3,0 -0.4,0 -0.1,0.2 -0.2,0.3 -0.3,0.5 -0.1,0 -0.2,0 -0.3,0 0,-0.3 0,-0.6 0,-0.9 0.4,0 0.7,0 1.1,0 0.2,0.1 0.4,0.3 0.6,0.4 0,0.1 0,0.2 0,0.3 0.2,0 0.4,0 0.6,0 0,-0.4 0,-0.8 0,-1.2 -1.5,0 -3,0.1 -4.5,0.1 0,0.2 0,0.3 0,0.5 0.3,-0.1 0.5,-0.1 0.6,-0.1 z"
   inkscape:connector-curvature="0"
   style="fill:#ffffff" />

		<path
   id="path3084"
   d="m 478.6,238.8 c -0.1,0 -0.2,0 -0.4,0 -0.1,-0.1 -0.1,-0.2 -0.2,-0.3 0,-0.5 0.1,-1 0.1,-1.4 0.4,0.7 0.8,1.4 1.2,2.1 0,0.1 0,0.1 0,0.2 0.1,0 0.3,0 0.4,0 0,-0.1 0,-0.1 0,-0.2 0.5,-0.7 1,-1.4 1.6,-2.1 -0.1,0.6 -0.1,1.1 -0.2,1.7 -0.1,0.1 -0.1,0.1 -0.2,0.2 -0.1,0 -0.2,0 -0.3,0 0,0.2 0,0.3 0,0.5 0.8,0.1 1.7,0.2 2.5,0.3 0,-0.2 0,-0.3 0.1,-0.5 -0.1,0 -0.2,0 -0.4,0 -0.1,-0.1 -0.1,-0.1 -0.2,-0.2 0.1,-0.7 0.2,-1.4 0.2,-2 0.1,-0.1 0.1,-0.1 0.2,-0.2 0.1,0 0.2,0 0.4,0 0,-0.2 0,-0.3 0.1,-0.5 -0.7,-0.1 -1.5,-0.2 -2.2,-0.2 0,0.1 0,0.1 0,0.2 -0.4,0.5 -0.7,0.9 -1.1,1.4 -0.3,-0.5 -0.6,-1 -0.9,-1.6 0,-0.1 0,-0.1 0,-0.2 -0.8,-0.1 -1.5,-0.1 -2.3,-0.1 0,0.2 0,0.3 0,0.5 0.1,0 0.2,0 0.4,0 0.1,0.1 0.1,0.1 0.2,0.2 0,0.7 -0.1,1.3 -0.1,2 -0.1,0.1 -0.1,0.2 -0.2,0.2 -0.1,0 -0.2,0 -0.4,0 0,0.2 0,0.3 0,0.5 0.5,0 1.1,0 1.6,0.1 0.1,-0.3 0.1,-0.4 0.1,-0.6 z"
   inkscape:connector-curvature="0"
   style="fill:#ffffff" />

		<path
   id="path3086"
   d="m 485.4,239.5 c -0.2,0 -0.3,0 -0.5,-0.1 0,-0.1 -0.1,-0.2 -0.1,-0.2 0.1,-0.1 0.1,-0.2 0.2,-0.3 0.5,0.1 1,0.2 1.5,0.3 0,0.1 0,0.2 0.1,0.3 -0.1,0.1 -0.1,0.1 -0.2,0.2 -0.2,0 -0.3,-0.1 -0.5,-0.1 0,0.2 -0.1,0.3 -0.1,0.5 0.9,0.1 1.8,0.3 2.7,0.5 0,-0.2 0.1,-0.3 0.1,-0.5 -0.1,0 -0.2,0 -0.3,-0.1 -0.2,-1 -0.5,-1.9 -0.7,-2.9 0,-0.1 0,-0.1 0,-0.2 -0.6,-0.1 -1.2,-0.2 -1.9,-0.3 0,0.1 0,0.1 0,0.2 -0.6,0.8 -1.2,1.6 -1.8,2.4 -0.1,0 -0.2,0 -0.3,0 0,0.2 0,0.3 -0.1,0.5 0.6,0.1 1.1,0.2 1.7,0.3 0.2,-0.1 0.2,-0.3 0.2,-0.5 z m 0.7,-2.1 c 0.1,0.4 0.2,0.9 0.3,1.3 -0.4,-0.1 -0.7,-0.1 -1.1,-0.2 0.3,-0.4 0.6,-0.8 0.8,-1.1 z"
   inkscape:connector-curvature="0"
   style="fill:#ffffff" />

		<path
   id="path3088"
   d="m 491.7,240.8 c -0.1,0 -0.2,-0.1 -0.3,-0.1 0,-0.1 -0.1,-0.1 -0.1,-0.2 0.1,-0.2 0.1,-0.5 0.2,-0.7 0.2,0.1 0.5,0.1 0.7,0.2 0.1,0.1 0.2,0.2 0.3,0.3 -0.1,0.3 -0.2,0.6 -0.2,0.9 0.2,0.2 0.4,0.3 0.6,0.5 0.5,0.1 0.9,0.3 1.4,0.4 0,-0.2 0.1,-0.3 0.1,-0.5 -0.1,0 -0.2,-0.1 -0.3,-0.1 -0.1,-0.1 -0.2,-0.2 -0.2,-0.3 0.1,-0.2 0.1,-0.5 0.2,-0.7 -0.3,-0.2 -0.6,-0.4 -0.9,-0.6 0.3,0 0.7,0 1,-0.1 0.1,-0.3 0.2,-0.7 0.3,-1 -0.3,-0.2 -0.6,-0.4 -0.8,-0.5 -1.3,-0.3 -2.5,-0.7 -3.8,-0.9 0,0.2 -0.1,0.3 -0.1,0.5 0.1,0 0.2,0.1 0.4,0.1 0,0.1 0.1,0.1 0.1,0.2 -0.1,0.7 -0.3,1.3 -0.4,2 -0.1,0 -0.1,0.1 -0.2,0.1 -0.1,0 -0.2,-0.1 -0.4,-0.1 0,0.2 -0.1,0.3 -0.1,0.5 0.8,0.2 1.7,0.4 2.5,0.6 -0.1,-0.1 -0.1,-0.3 0,-0.5 z m 0.1,-2.4 c 0.2,0.1 0.5,0.1 0.7,0.2 0.1,0.1 0.2,0.2 0.3,0.2 -0.1,0.2 -0.1,0.5 -0.2,0.7 -0.1,0 -0.3,0 -0.4,0 -0.2,-0.1 -0.5,-0.1 -0.7,-0.2 0.1,-0.3 0.2,-0.6 0.3,-0.9 z"
   inkscape:connector-curvature="0"
   style="fill:#ffffff" />

		<path
   id="path3090"
   d="m 497.3,242.5 c -0.1,0 -0.2,-0.1 -0.3,-0.1 0,-0.1 -0.1,-0.2 -0.1,-0.2 0.1,-0.2 0.1,-0.3 0.2,-0.5 0.2,-0.1 0.5,-0.1 0.7,-0.2 0.1,0.4 0.2,0.8 0.3,1.3 -0.1,0 -0.2,-0.1 -0.3,-0.1 -0.1,0.2 -0.1,0.3 -0.2,0.5 0.8,0.3 1.5,0.6 2.3,0.9 0.1,-0.2 0.1,-0.3 0.2,-0.5 -0.1,0 -0.2,-0.1 -0.3,-0.1 -0.2,-0.7 -0.3,-1.5 -0.5,-2.2 0.3,-0.1 0.6,-0.1 0.9,-0.2 0.2,0.1 0.4,0.1 0.5,0.2 0.1,-0.2 0.1,-0.3 0.2,-0.5 -0.7,-0.3 -1.4,-0.5 -2,-0.8 -0.1,0.2 -0.1,0.3 -0.2,0.5 0.2,0.1 0.3,0.1 0.5,0.2 0,0 0,0.1 0,0.1 -0.6,0.1 -1.2,0.3 -1.8,0.5 0.1,-0.3 0.2,-0.6 0.3,-0.9 0.1,0 0.2,-0.1 0.2,-0.1 0.1,0 0.2,0.1 0.4,0.1 0.1,-0.2 0.1,-0.3 0.2,-0.5 -0.9,-0.3 -1.7,-0.6 -2.6,-0.9 0,0.2 -0.1,0.3 -0.1,0.5 0.1,0 0.2,0.1 0.4,0.1 0,0.1 0.1,0.2 0.1,0.2 -0.2,0.6 -0.4,1.3 -0.6,1.9 -0.1,0 -0.2,0.1 -0.2,0.1 -0.1,0 -0.2,-0.1 -0.4,-0.1 0,0.2 -0.1,0.3 -0.1,0.5 0.8,0.2 1.6,0.5 2.4,0.8 -0.2,-0.2 -0.2,-0.3 -0.1,-0.5 z"
   inkscape:connector-curvature="0"
   style="fill:#ffffff" />

		<polygon
   id="polygon3092"
   points="473.1,244.7 473,245.7 473.9,245.2 474.9,245.7 474.7,244.6 475.5,243.9 474.4,243.7 473.9,242.8 473.4,243.7 472.3,243.9 "
   style="fill:#ffffff" />

		<polygon
   id="polygon3094"
   points="466.9,247.6 467.7,248.4 467.5,249.5 468.5,248.9 469.4,249.4 469.2,248.4 470,247.6 468.9,247.4 468.4,246.5 468,247.5 "
   style="fill:#ffffff" />

		<polygon
   id="polygon3096"
   points="478.9,247.5 477.8,247.6 478.6,248.4 478.4,249.5 479.4,248.9 480.3,249.4 480.1,248.4 480.9,247.6 479.8,247.4 479.3,246.5 "
   style="fill:#ffffff" />

		<path
   id="path3098"
   d="m 453.1,291.7 c 0.5,-0.2 1.1,-0.6 1.1,-1.2 0,-0.9 -1,-1 -1.7,-1 -1,0 -2.1,0.3 -2.4,1.5 -0.1,0.3 0,0.7 0,0.7 0,0 -0.2,0 -0.6,-0.1 -0.5,-0.1 -0.7,-0.3 -0.7,-0.6 0,-0.1 0.1,-0.3 0.2,-0.3 0.1,0 0.2,0 0.2,0.1 0.1,0.1 0.1,0.1 0.1,0.1 0.1,-0.1 0.1,-0.2 0.1,-0.3 0,-0.1 -0.1,-0.3 -0.2,-0.4 -0.3,-0.3 -0.8,-0.3 -1.1,0.1 -0.3,0.4 -0.2,0.9 0.1,1.3 0.2,0.3 0.6,0.4 1,0.5 0.4,0.1 0.8,0.1 0.8,0.1 0.1,0.2 0.2,0.3 0.4,0.4 l -0.2,0 c -1.2,0.1 -2.3,0.8 -2.6,2 -0.3,1.3 0.5,2.4 2.2,2.5 1,0.1 2.1,-0.2 2.6,-1.1 0.4,-0.8 0.4,-1.7 -0.4,-2 -0.6,-0.2 -1.4,0.1 -1.2,0.8 0,0.1 0,0.1 0.1,0 0.2,-0.3 0.6,-0.2 0.7,0.1 0.3,0.9 -0.6,1.8 -1.5,1.6 -1.1,-0.2 -1.3,-1.1 -1.1,-1.8 0.3,-1 0.9,-1.8 2.2,-1.8 h 0.7 c 0,0 0.1,0 0.1,-0.1 l 0.1,-0.3 c 0,0 0,-0.1 0,-0.1 h -0.4 c -0.3,0 -0.5,-0.1 -0.6,-0.4 l 0.2,0 c 0.8,0.1 1.3,-0.1 1.8,-0.3 z m -1.9,0 c 0,-0.1 0,-0.2 0,-0.4 0.1,-0.8 0.9,-1.4 1.5,-1.4 0.6,0 1,0.1 1,0.6 0,0.4 -0.4,0.7 -0.9,0.9 -0.9,0.3 -1.6,0.3 -1.6,0.3 z"
   inkscape:connector-curvature="0"
   style="fill:#ffffff" />

		<path
   id="path3100"
   d="m 457.4,294.4 c -0.1,0.2 -0.2,0.5 -0.2,0.7 -0.2,0.3 -0.4,0.6 -0.6,0.8 -0.3,0.3 -0.6,0.2 -0.4,-0.3 0.1,-0.1 0.1,-0.2 0.2,-0.4 0.1,0.1 0.3,0 0.5,-0.1 0.1,-0.1 0.1,-0.2 0.1,-0.2 0,0 0,-0.1 -0.1,0 -0.2,0 -0.2,-0.2 -0.1,-0.3 l 1.1,-2 H 457 l -1.2,2.3 c -0.2,0.3 -0.4,0.7 -1.1,1.1 -0.4,0.3 -0.6,0.1 -0.4,-0.4 0.1,-0.1 0.1,-0.2 0.2,-0.4 0.1,0.1 0.3,0 0.5,-0.1 0,-0.1 0.1,-0.2 0.1,-0.2 0,0 0,-0.1 -0.1,0 -0.2,0 -0.2,-0.2 -0.1,-0.3 l 1.1,-2 h -0.9 l -1.5,2.8 c -0.3,0.6 -0.4,1.3 0,1.5 0.3,0.2 0.8,0 1.2,-0.4 0.2,-0.2 0.4,-0.4 0.6,-0.5 -0.1,0.4 0,0.7 0.2,0.9 0.3,0.2 0.8,0.1 1.2,-0.4 0.2,-0.2 0.4,-0.5 0.6,-0.7 0,0 0,0.1 0,0.1 0.1,0.4 0.4,0.8 0.8,0.8 0.2,0 0.4,-0.1 0.6,-0.3 l -0.3,0.5 c -0.3,0.1 -0.6,0.2 -0.9,0.3 -0.6,0.2 -1.3,0.5 -1.4,1 -0.2,0.7 0.5,1.1 1.2,1 0.7,-0.1 1.1,-0.5 1.5,-1.2 l 0.5,-0.8 c 0.3,-0.1 0.7,-0.3 1,-0.5 0.2,-0.1 0.4,-0.4 0.7,-0.7 0.1,0.4 0.3,0.8 0.9,0.9 1.5,0.3 3.1,-2.7 3.1,-2.7 l -0.1,-0.1 c 0.2,-0.3 0.4,-0.6 0.5,-0.8 0.1,-0.1 0.2,-0.3 0.3,-0.2 0.1,0 0.1,0.1 0,0.3 l -1.9,3.5 h 0.9 l 1.2,-2.3 c 0.1,0.1 0.4,0 0.5,-0.1 0,-0.1 0.1,-0.2 0.1,-0.2 0,0 0,-0.1 -0.1,0 l 0,0 c -0.2,0 -0.2,-0.2 -0.1,-0.3 0,0 0.3,-0.7 0.7,-0.9 0.5,-0.2 0.7,0.2 0.4,0.8 l -0.7,1.3 -0.1,0.2 c -0.3,0.6 -0.4,1.3 0,1.5 0.3,0.2 0.8,0.1 1.2,-0.4 0.2,-0.3 0.4,-0.5 0.6,-0.8 0,0.6 0.2,1.1 1,1.2 1.5,0.3 3.1,-2.7 3.1,-2.7 l -0.2,-0.2 c 0,0 -0.3,0.4 -0.7,1 -0.6,0.8 -1.1,1.2 -1.7,1.1 -0.4,-0.1 -0.5,-0.5 -0.4,-1 0,-0.2 0.1,-0.3 0.1,-0.3 0,0 0.1,0.4 0.7,0.3 0.5,-0.1 1.3,-0.5 1.8,-1.5 0.3,-0.5 0.1,-1.2 -0.6,-1.2 -0.4,0 -0.8,0.1 -1.2,0.4 -0.7,0.5 -1.3,1.3 -1.6,2.1 -0.3,0.4 -0.5,0.8 -0.8,1 -0.3,0.3 -0.6,0.2 -0.4,-0.3 0,-0.1 0.2,-0.4 0.3,-0.6 0.2,-0.4 0.4,-0.8 0.7,-1.2 0.3,-0.5 0.2,-1.2 -0.4,-1.3 -0.3,-0.1 -0.6,-0.1 -0.9,0.1 -0.2,0.1 -0.3,0.2 -0.4,0.3 0,-0.2 -0.1,-0.4 -0.3,-0.5 -0.4,-0.2 -0.9,0.2 -1.1,0.6 -0.3,0.4 -0.7,1 -0.9,1.4 l 0,0.1 c -0.1,0.1 -0.2,0.3 -0.4,0.5 -0.6,0.8 -1.1,1.2 -1.7,1.1 -0.4,-0.1 -0.5,-0.5 -0.4,-1 0,-0.2 0.1,-0.3 0.1,-0.3 0,0 0.1,0.4 0.7,0.3 0.5,-0.1 1.3,-0.5 1.8,-1.5 0.3,-0.5 0.1,-1.2 -0.6,-1.2 -0.4,0 -0.8,0.1 -1.2,0.4 -0.9,0.6 -1.6,1.6 -1.7,2.6 0,0 0,0.1 0,0.1 -0.2,0.3 -0.5,0.6 -0.8,0.8 -0.2,0.1 -0.6,0.3 -0.6,0.3 l 2.3,-4.1 h -0.9 l -0.1,0.2 c -0.2,-0.2 -0.4,-0.3 -0.6,-0.3 -1.8,-0.1 -2.7,0.9 -3.1,2 z m 0.4,3.3 c -0.2,0.4 -0.9,1.1 -1.2,0.7 -0.4,-0.4 0.4,-0.8 0.8,-1 0.3,-0.1 0.7,-0.2 0.7,-0.2 l -0.3,0.5 z m 11.9,-3.5 c 0.1,0 0.1,0 0.1,0 0,0 0,0 0.1,0 0,-0.3 -0.1,-0.3 -0.1,-0.3 0.4,-0.6 0.9,-1.1 1.3,-1 0.4,0.2 -0.2,1.1 -0.6,1.4 -0.3,0.2 -0.7,0.3 -0.8,0.2 -0.2,-0.1 -0.1,-0.2 0,-0.3 z m -7.6,0 c 0,0 0.1,0 0.1,0 0,0 0,0 0,0 0,-0.3 -0.1,-0.3 -0.1,-0.3 0.4,-0.6 0.9,-1.1 1.3,-1 0.4,0.2 -0.2,1.1 -0.6,1.4 -0.3,0.2 -0.7,0.3 -0.8,0.2 0,-0.1 0,-0.2 0.1,-0.3 z m -2.2,-0.5 c -0.1,0.2 -0.4,0.4 -0.7,0.3 0,0 0,0 0,0 0,0.2 0.2,0.4 0.4,0.3 l 0,0.1 c -0.1,0.3 -0.3,0.5 -0.4,0.8 -0.3,0.5 -1.1,1.2 -1.2,0.3 -0.1,-0.6 0.5,-1.5 1,-2 0.2,-0.3 0.6,-0.6 0.9,-0.4 0.2,0 0.1,0.3 0,0.6 z"
   inkscape:connector-curvature="0"
   style="fill:#ffffff" />

		<path
   id="path3102"
   d="m 471.6,297.2 -0.1,0 -0.1,0.1 0.2,0 c 0.5,-0.1 0.8,-0.4 1,-0.8 0.1,-0.3 0.3,-0.8 -0.1,-0.8 -0.3,0 -0.5,0.2 -0.6,0.5 -0.1,0.2 -0.1,0.4 0,0.5 0,0.1 0.1,0.2 0,0.2 0,0.3 -0.2,0.3 -0.3,0.3 z"
   inkscape:connector-curvature="0"
   style="fill:#ffffff" />

		<path
   id="path3104"
   d="m 480.6,289.7 c -1.6,0 -3.6,1.7 -4.5,3.8 -0.9,2.1 -0.4,3.7 1.2,3.7 1.9,0.1 3.6,-1.7 4.5,-3.8 1,-2.4 0.4,-3.7 -1.2,-3.7 z m 0.3,2.7 c 0,0 -0.1,0.4 -0.2,0.6 -0.4,1 -1,1.9 -1.7,2.6 -0.6,0.7 -1.2,1 -1.6,1 -0.4,0 -0.6,-0.4 -0.6,-1.1 0,-0.5 0.1,-1 0.4,-1.6 0.4,-1 1,-1.9 1.7,-2.7 0.6,-0.7 1.2,-1 1.6,-1 0.2,0 0.4,0.1 0.5,0.3 0.2,0.4 0.1,0.9 -0.3,1.1 -0.3,0.2 -0.6,-0.1 -0.6,-0.3 0,-0.1 -0.1,-0.1 -0.1,0 -0.4,0.5 0.2,1.3 0.9,1.1 z"
   inkscape:connector-curvature="0"
   style="fill:#ffffff" />

		<path
   id="path3106"
   d="m 484,293.4 c 0.2,-0.3 0.6,-0.6 1.1,-0.5 0.2,0 0.3,0.1 0.3,0.3 0,0 0,0 0.1,0 l 0.4,-0.7 c 0,0 0,-0.1 0,-0.1 -0.2,-0.1 -0.4,-0.1 -0.5,-0.1 -0.4,0 -0.8,0.2 -1.1,0.5 0,0 -0.1,0.1 -0.1,0.1 v -0.1 c 0,-0.2 -0.1,-0.4 -0.3,-0.5 -0.4,-0.2 -0.9,0.2 -1.1,0.5 -0.3,0.4 -0.7,1 -0.9,1.4 l 0.2,0.3 c 0.3,-0.4 0.6,-1 0.9,-1.3 0.1,-0.1 0.2,-0.3 0.3,-0.2 0.1,0 0.1,0.1 0.1,0.2 l -1.9,3.5 h 1 l 1.2,-2.3 c 0.1,0.1 0.3,0 0.4,-0.1 0,-0.1 0.1,-0.2 0.1,-0.2 0,0 0,-0.1 0,0 l 0,0 c -0.2,0.1 -0.2,-0.2 -0.1,-0.3 l -0.1,-0.4 z"
   inkscape:connector-curvature="0"
   style="fill:#ffffff" />

		<path
   id="path3108"
   d="m 498.3,295.1 -0.1,0.2 c -0.3,0.6 -0.4,1.3 -0.1,1.5 0.3,0.2 0.8,0.1 1.2,-0.4 0.8,-0.9 1.3,-1.9 1.6,-2.3 l -0.2,-0.2 c -0.4,0.5 -0.9,1.4 -1.4,2 -0.3,0.3 -0.6,0.2 -0.4,-0.3 0.1,-0.1 0.2,-0.4 0.3,-0.6 0.2,-0.4 0.4,-0.8 0.7,-1.2 0.3,-0.5 0.2,-1.2 -0.4,-1.3 -0.3,-0.1 -0.6,-0.1 -0.9,0.1 -0.2,0.1 -0.3,0.2 -0.4,0.3 0,-0.2 0,-0.4 -0.3,-0.5 -0.4,-0.2 -0.9,0.2 -1.1,0.6 -0.2,0.4 -0.6,0.8 -0.8,1.2 l -0.1,-0.1 c 0,0 -0.6,0.9 -1,1.3 -0.3,0.2 -0.4,0.2 -0.4,0.2 0.2,-0.2 0.3,-0.5 0.4,-0.7 0.6,-1.2 0.6,-2.4 -0.3,-2.5 -0.6,-0.1 -1.4,0.3 -1.9,0.8 -0.5,0.5 -1,1.2 -1.1,2 -0.3,0.4 -0.6,0.8 -1,1.1 -0.2,0.1 -0.6,0.3 -0.6,0.3 l 2.3,-4.1 h -0.9 l -0.1,0.2 c -0.2,-0.2 -0.4,-0.3 -0.6,-0.3 -1.2,-0.1 -2.1,0.9 -2.6,2 0,0 0,0.1 -0.1,0.1 -0.1,0.1 -0.2,0.3 -0.3,0.4 -0.6,0.8 -1.1,1.2 -1.7,1.1 -0.4,-0.1 -0.5,-0.5 -0.4,-1 0,-0.2 0.1,-0.3 0.1,-0.3 0,0 0.1,0.4 0.7,0.3 0.5,-0.1 1.3,-0.5 1.8,-1.5 0.3,-0.5 0.1,-1.2 -0.6,-1.2 -0.4,0 -0.8,0.1 -1.2,0.4 -0.9,0.6 -1.6,1.6 -1.7,2.6 -0.1,0.7 0,1.4 0.9,1.6 0.8,0.2 1.7,-0.7 2.2,-1.4 0,0.1 0,0.2 0,0.4 0.1,0.4 0.4,0.8 0.8,0.8 0.2,0 0.4,-0.1 0.6,-0.3 l -0.3,0.5 c -0.3,0.1 -0.6,0.2 -0.9,0.3 -0.6,0.2 -1.3,0.5 -1.4,1 -0.2,0.7 0.5,1.1 1.2,1 0.7,-0.1 1.1,-0.5 1.5,-1.2 l 0.5,-0.8 c 0.3,-0.1 0.7,-0.3 1,-0.5 0.2,-0.1 0.5,-0.5 0.8,-0.8 0,0.1 0,0.2 0,0.4 0.1,0.4 0.4,0.7 0.9,0.8 0.6,0 1.2,-0.3 1.7,-0.9 0.1,0.1 0.4,0 0.6,-0.1 0.5,-0.3 1,-1 1.3,-1.4 l 0.1,0.1 c 0.3,-0.4 0.6,-1 0.9,-1.3 0.1,-0.1 0.2,-0.3 0.3,-0.2 0.1,0 0.1,0.1 0,0.3 l -1.9,3.5 h 0.9 l 1.2,-2.3 c 0.1,0.1 0.4,0 0.5,-0.1 0,-0.1 0.1,-0.2 0.1,-0.2 0,0 0,-0.1 0,0 l 0,0 c -0.2,0 -0.2,-0.2 -0.1,-0.3 0,0 0.3,-0.7 0.7,-0.9 0.5,-0.2 0.7,0.2 0.4,0.8 l -0.9,1 z M 486,294.2 c 0.1,0 0.1,0 0.1,0 0,0 0,0 0.1,0 0,-0.3 -0.1,-0.3 -0.1,-0.3 0.4,-0.6 0.9,-1.1 1.3,-1 0.4,0.2 -0.2,1.1 -0.6,1.4 -0.3,0.2 -0.7,0.3 -0.8,0.2 -0.2,-0.1 -0.1,-0.2 0,-0.3 z m 2.5,3.5 c -0.2,0.4 -0.9,1.1 -1.2,0.7 -0.4,-0.4 0.4,-0.8 0.8,-1 0.3,-0.1 0.7,-0.2 0.7,-0.2 l -0.3,0.5 z m 0.2,-2.3 c 0,-0.6 0.5,-1.5 1,-2 0.2,-0.3 0.6,-0.6 0.9,-0.4 0.2,0.2 0.1,0.5 0,0.7 -0.1,0.2 -0.4,0.4 -0.7,0.3 0,0 0,0 0,0 0,0.2 0.2,0.4 0.4,0.3 l 0,0.1 c -0.1,0.3 -0.3,0.5 -0.4,0.8 -0.3,0.4 -1.1,1.1 -1.2,0.2 z m 5.2,-1.4 c -0.1,0 -0.1,0 0,0 0,0.3 0.2,0.4 0.4,0.3 0,0 -0.1,0.2 -0.4,0.7 -0.2,0.4 -0.7,0.9 -0.8,1 -0.6,0.4 -0.9,0.4 -0.7,-0.6 0.2,-0.9 0.7,-1.5 0.9,-1.8 0.2,-0.3 0.8,-1 1.2,-0.8 0.2,0.1 0.1,0.6 0,0.8 -0.2,0.3 -0.4,0.5 -0.6,0.4 z"
   inkscape:connector-curvature="0"
   style="fill:#ffffff" />

		<path
   id="path3110"
   d="m 450.2,168 c -11.1,-0.1 -15.8,8.5 -16.1,28.8 -0.3,20.4 4.1,27.5 15.4,25.6 11.4,-1.7 16.1,-9.5 16.2,-28 0.1,-18.5 -4.4,-26.3 -15.5,-26.4 z m 3.1,48 c 0,3.9 -1,4.9 -3.7,5.3 -2.7,0.4 -3.6,-0.4 -3.6,-4.3 0.2,-14.1 0.4,-28.2 0.6,-42.3 0,-3.6 0.7,-5.5 3.6,-5.5 3,0 3.6,1.8 3.5,5.4 -0.1,13.8 -0.3,27.6 -0.4,41.4 z"
   inkscape:connector-curvature="0"
   style="fill:#ffffff" />

		<path
   id="path3112"
   d="m 487.8,168 c -11.1,0 -15.6,7.9 -15.7,26.3 0,18.5 4.6,26 16.1,26.9 11.4,1.2 15.9,-5.9 15.6,-25.5 -0.3,-19.5 -4.9,-27.8 -16,-27.7 z m 0.4,52.1 c -2.7,-0.2 -3.7,-1.2 -3.7,-5 -0.1,-13.6 -0.2,-27.1 -0.2,-40.7 0,-3.5 0.5,-5.3 3.5,-5.3 3,0 3.6,1.8 3.6,5.4 0.1,13.7 0.3,27.4 0.4,41.1 0,3.9 -0.9,4.7 -3.6,4.5 z"
   inkscape:connector-curvature="0"
   style="fill:#ffffff" />

		<path
   id="path3114"
   d="m 546.9,170.3 c 1.2,0 2.4,0 3.6,0.1 0,-0.5 0,-1 0,-1.5 -5.4,0 -10.7,-0.1 -16.1,-0.1 -1.7,12 -3.4,23.6 -5.1,34.8 -0.2,0 -0.4,-0.1 -0.6,-0.1 -1.9,-11.9 -3.9,-23.5 -5.9,-34.7 -5.4,0 -10.7,0 -16.1,0 0,0.4 0,0.8 0,1.2 1.3,0 2.6,0 3.9,0 0.2,16 0.5,32 0.7,47.9 0,2.9 -1.3,4.1 -4.5,4.1 0,0.4 0,0.8 0,1.2 3.9,0.8 7.7,1.7 11.5,2.7 0,-0.4 0,-0.8 0,-1.3 -2.8,-1.1 -5,-3 -5,-6.1 -0.2,-15.1 -0.5,-30.2 -0.7,-45.2 0.2,0 0.4,0 0.6,0 3.1,17.2 6.3,35 9.4,53.8 1.6,0.5 3.2,1 4.8,1.5 2.6,-17.3 5.3,-35.5 8,-54.6 0.2,0 0.3,0 0.5,0 0.2,18.9 0.4,37.7 0.6,56.6 -1.3,-0.5 -2.5,-1 -3.8,-1.4 0,0.5 0,0.9 0,1.4 6.1,2.3 12.2,5 18.1,8.1 0,-0.5 0,-1 0,-1.5 -1.2,-0.6 -2.4,-1.2 -3.6,-1.8 -0.2,-21.8 -0.3,-43.5 -0.3,-65.1 z m -4.3,56.6 c 0,0.6 -0.5,1.1 -1.1,1.1 -0.6,0 -1.1,-0.5 -1.1,-1.1 0,-0.5 0.3,-0.9 0.7,-1 v -49.4 c -0.4,-0.2 -0.7,-0.5 -0.7,-1 0,-0.6 0.5,-1.1 1.1,-1.1 0.6,0 1.1,0.5 1.1,1.1 0,0.5 -0.3,0.9 -0.7,1 v 49.4 c 0.4,0.1 0.7,0.5 0.7,1 z"
   inkscape:connector-curvature="0"
   style="fill:#ffffff" />

		<path
   id="path3116"
   d="m 415.3,229.2 c -1,0.4 -2.1,0.8 -3.1,1.2 0.2,-20.1 0.4,-40.2 0.6,-60.2 1.3,0 2.7,0 4.1,-0.1 0,-0.5 0,-0.9 0,-1.4 -6.5,0 -13.1,0.1 -19.6,0.1 0,0.5 0,1 0,1.5 1.2,0 2.4,0 3.7,-0.1 -0.1,21.7 -0.1,43.4 -0.2,65 -1.2,0.6 -2.3,1.1 -3.5,1.7 0,0.5 0,1 0,1.5 10.4,-5.4 21.2,-9.6 32.2,-12.7 0.1,-7.6 0.2,-15.3 0.4,-22.9 -0.5,0.1 -0.9,0.2 -1.4,0.2 -5,21.5 -6.9,24 -13.2,26.2 z m -7.4,-2.3 c 0,0.6 -0.5,1.1 -1.1,1.1 -0.6,0 -1.1,-0.5 -1.1,-1.1 0,-0.5 0.3,-0.9 0.7,-1 v -49.4 c -0.4,-0.2 -0.7,-0.5 -0.7,-1 0,-0.6 0.5,-1.1 1.1,-1.1 0.6,0 1.1,0.5 1.1,1.1 0,0.5 -0.3,0.9 -0.7,1 v 49.4 c 0.4,0.1 0.7,0.5 0.7,1 z"
   inkscape:connector-curvature="0"
   style="fill:#ffffff" />

		<path
   id="path3118"
   d="m 408.7,292.1 c 1.3,-0.9 2.6,-1.7 3.9,-2.5 0.5,-0.6 1,-1.2 1.5,-1.9 0.1,0.2 0.3,0.4 0.4,0.6 0.5,-0.3 1,-0.6 1.5,-0.9 -0.6,-1 -1.1,-1.9 -1.7,-2.9 0.4,-0.2 0.7,-0.4 1.1,-0.6 -0.2,-0.4 -0.4,-0.7 -0.6,-1.1 -2.1,1.2 -4.2,2.4 -6.3,3.8 0.2,0.4 0.5,0.7 0.7,1.1 0.5,-0.3 0.9,-0.6 1.4,-0.9 0.3,0.4 0.6,0.9 0.8,1.3 -0.1,0.2 -0.1,0.4 -0.2,0.7 -0.6,0.4 -1.1,0.7 -1.7,1.1 -0.5,-0.1 -0.9,-0.1 -1.4,-0.2 -0.8,-1.2 -1.5,-2.3 -2.3,-3.5 0.2,-0.6 0.3,-1.2 0.5,-1.8 0.6,-0.4 1.2,-0.8 1.8,-1.2 1,0 2,0 3,0 0.1,0.2 0.2,0.3 0.3,0.5 0.5,-0.3 1.1,-0.6 1.6,-1 -0.6,-1 -1.1,-2 -1.7,-3 -0.5,0.3 -1,0.6 -1.5,0.9 0.1,0.1 0.2,0.3 0.2,0.4 -0.6,0.2 -1.3,0.3 -1.9,0.5 -1.5,0.9 -3,1.9 -4.5,2.9 -0.8,1.3 -1.6,2.5 -2.4,3.8 1.1,1.6 2.3,3.1 3.4,4.7 1.4,-0.2 2.7,-0.5 4.1,-0.8 z"
   inkscape:connector-curvature="0"
   style="fill:#ffffff" />

		<path
   id="path3120"
   d="m 416.6,285.6 c 0.2,0.4 0.4,0.7 0.6,1.1 1.4,-0.8 2.8,-1.5 4.2,-2.2 -0.2,-0.4 -0.4,-0.8 -0.6,-1.1 -0.4,0.2 -0.8,0.4 -1.2,0.6 -0.2,-0.1 -0.4,-0.2 -0.6,-0.3 0,-0.3 0,-0.6 0,-0.9 1.3,-0.7 2.6,-1.3 3.9,-1.9 0.2,0.2 0.5,0.4 0.7,0.6 0,0.2 -0.1,0.4 -0.1,0.7 -0.4,0.2 -0.9,0.4 -1.3,0.6 0.2,0.4 0.4,0.8 0.6,1.2 2.2,-1.1 4.5,-2.1 6.8,-3 -0.2,-0.4 -0.3,-0.8 -0.5,-1.2 -0.2,0.1 -0.5,0.2 -0.7,0.3 -2,-1.7 -4,-3.4 -6,-5 -0.1,-0.2 -0.2,-0.3 -0.2,-0.5 -1.6,0.7 -3.2,1.5 -4.8,2.3 0.1,0.2 0.2,0.3 0.3,0.5 -0.1,2.7 -0.2,5.4 -0.2,8 -0.4,-0.1 -0.6,0 -0.9,0.2 z m 2.5,-8 c 0.9,0.7 1.9,1.5 2.8,2.2 -0.9,0.4 -1.8,0.9 -2.8,1.4 0,-1.2 0,-2.4 0,-3.6 z"
   inkscape:connector-curvature="0"
   style="fill:#ffffff" />

		<path
   id="path3122"
   d="m 429.1,272.8 c 0.2,0.1 0.4,0.2 0.7,0.2 0.6,1.6 1.2,3.2 1.8,4.8 -0.1,0.3 -0.2,0.5 -0.2,0.8 -0.3,0.1 -0.6,0.2 -0.9,0.4 0.2,0.4 0.3,0.8 0.5,1.2 1.4,-0.6 2.8,-1.1 4.2,-1.6 -0.1,-0.4 -0.3,-0.8 -0.4,-1.2 -0.3,0.1 -0.6,0.2 -0.9,0.3 -0.2,-0.1 -0.5,-0.3 -0.7,-0.4 -0.4,-1.2 -0.9,-2.4 -1.3,-3.5 1.8,1.2 3.5,2.5 5.2,3.8 0,0.1 0.1,0.3 0.1,0.4 0.4,-0.1 0.7,-0.2 1.1,-0.4 0,-0.1 -0.1,-0.3 -0.1,-0.4 0.6,-2.2 1.3,-4.4 2,-6.6 0.4,1.4 0.8,2.8 1.2,4.3 -0.1,0.2 -0.2,0.4 -0.4,0.6 -0.3,0.1 -0.6,0.2 -0.9,0.3 0.1,0.4 0.2,0.8 0.4,1.2 2.2,-0.7 4.4,-1.2 6.6,-1.8 -0.1,-0.4 -0.2,-0.8 -0.3,-1.3 -0.3,0.1 -0.6,0.2 -1,0.2 -0.2,-0.1 -0.4,-0.2 -0.6,-0.3 -0.4,-1.7 -0.9,-3.5 -1.3,-5.2 0.1,-0.2 0.3,-0.4 0.4,-0.6 0.3,-0.1 0.7,-0.2 1,-0.2 -0.1,-0.4 -0.2,-0.8 -0.3,-1.3 -2,0.5 -4,1 -6,1.6 0.1,0.2 0.1,0.4 0.2,0.5 -0.5,1.5 -1,3 -1.5,4.5 -1.3,-1 -2.5,-1.9 -3.9,-2.8 -0.1,-0.2 -0.1,-0.3 -0.2,-0.5 -2,0.7 -4.1,1.4 -6.1,2.2 0.2,0.4 0.3,0.8 0.5,1.2 0.5,-0.2 0.8,-0.3 1.1,-0.4 z"
   inkscape:connector-curvature="0"
   style="fill:#ffffff" />

		<path
   id="path3124"
   d="m 447.9,267.2 c 0.2,0.1 0.4,0.2 0.6,0.4 0.4,1.7 0.7,3.5 1.1,5.2 -0.1,0.2 -0.3,0.4 -0.4,0.6 -0.3,0.1 -0.6,0.1 -1,0.2 0.1,0.4 0.2,0.8 0.3,1.3 3.8,-0.9 7.7,-1.5 11.6,-2 -0.1,-1.2 -0.3,-2.3 -0.4,-3.5 -0.5,0.1 -1.1,0.1 -1.6,0.2 0,0.2 0.1,0.5 0.1,0.7 -0.6,0.6 -1.2,1.2 -1.9,1.8 -0.9,0.1 -1.8,0.3 -2.6,0.4 -0.2,-0.9 -0.3,-1.8 -0.5,-2.7 0.3,-0.1 0.6,-0.1 0.9,-0.2 0.4,0.4 0.7,0.7 1.1,1.1 0.4,-0.1 0.7,-0.1 1.1,-0.2 -0.2,-1.2 -0.4,-2.4 -0.5,-3.7 -0.4,0.1 -0.8,0.1 -1.1,0.2 -0.2,0.4 -0.5,0.9 -0.7,1.3 -0.3,0 -0.6,0.1 -0.9,0.2 -0.1,-0.8 -0.3,-1.5 -0.4,-2.3 1,-0.2 2,-0.3 3.1,-0.5 0.6,0.3 1.2,0.6 1.8,0.9 0,0.3 0.1,0.5 0.1,0.8 0.5,-0.1 1.1,-0.1 1.6,-0.2 -0.1,-1.1 -0.3,-2.1 -0.4,-3.2 -4.1,0.5 -8.2,1.2 -12.3,2.1 0.1,0.4 0.2,0.8 0.3,1.3 0.3,-0.1 0.6,-0.1 1,-0.2 z"
   inkscape:connector-curvature="0"
   style="fill:#ffffff" />

		<path
   id="path3126"
   d="m 468.5,264.5 c 0.2,0.1 0.4,0.3 0.5,0.4 0.1,1.8 0.1,3.6 0.2,5.3 -0.2,0.2 -0.3,0.3 -0.5,0.5 -0.3,0 -0.7,0 -1,0 0,0.4 0,0.9 0.1,1.3 3.9,-0.2 7.8,-0.2 11.8,0 0.1,-1.2 0.1,-2.3 0.2,-3.5 -0.5,0 -1.1,0 -1.6,-0.1 0,0.2 0,0.5 0,0.7 -0.7,0.5 -1.4,0.9 -2.1,1.4 -0.9,0 -1.8,0 -2.7,0 0,-0.9 0,-1.8 0,-2.8 0.3,0 0.6,0 0.9,0 0.3,0.4 0.6,0.9 0.9,1.3 0.4,0 0.7,0 1.1,0 0,-1.2 0,-2.5 0.1,-3.7 -0.4,0 -0.8,0 -1.1,0 -0.3,0.4 -0.6,0.8 -0.9,1.2 -0.3,0 -0.6,0 -0.9,0 0,-0.8 0,-1.5 0,-2.3 1,0 2.1,0 3.1,0 0.5,0.4 1.1,0.8 1.6,1.2 0,0.3 0,0.6 0,0.8 0.5,0 1.1,0 1.6,0.1 0,-1.1 0.1,-2.1 0.2,-3.2 -4.1,-0.2 -8.3,-0.2 -12.4,0 0,0.4 0,0.9 0.1,1.3 0.1,0.2 0.4,0.1 0.8,0.1 z"
   inkscape:connector-curvature="0"
   style="fill:#ffffff" />

		<path
   id="path3128"
   d="m 486.2,271.3 c -0.5,0 -0.9,-0.1 -1.4,-0.1 -0.2,-0.3 -0.3,-0.5 -0.5,-0.8 0.1,-1.2 0.2,-2.4 0.3,-3.7 1.8,1.9 3.5,3.9 5.1,5.9 0,0.2 0,0.3 -0.1,0.5 1.2,0.2 2.4,0.3 3.7,0.6 0.4,-2.3 0.8,-4.7 1.2,-7 0.2,-0.1 0.4,-0.3 0.6,-0.4 0.3,0.1 0.7,0.1 1,0.2 0.1,-0.4 0.2,-0.8 0.2,-1.3 -1.7,-0.3 -3.4,-0.6 -5.1,-0.8 -0.1,0.4 -0.1,0.8 -0.2,1.3 0.4,0.1 0.8,0.1 1.2,0.2 0.1,0.2 0.3,0.4 0.4,0.5 -0.2,1 -0.3,2.1 -0.5,3.1 -1.3,-1.7 -2.7,-3.3 -4.2,-4.9 0,-0.2 0,-0.4 0.1,-0.5 -2.2,-0.2 -4.4,-0.4 -6.6,-0.6 0,0.4 -0.1,0.9 -0.1,1.3 0.3,0 0.7,0 1,0.1 0.2,0.2 0.3,0.3 0.5,0.5 -0.1,1.7 -0.2,3.4 -0.4,5 -0.2,0.2 -0.4,0.5 -0.6,0.7 -0.3,0 -0.6,0 -0.9,-0.1 0,0.4 -0.1,0.9 -0.1,1.3 1.7,0.1 3.4,0.2 5,0.4 0.3,-0.5 0.3,-1 0.4,-1.4 z"
   inkscape:connector-curvature="0"
   style="fill:#ffffff" />

		<path
   id="path3130"
   d="m 504.1,276 c 0.8,-0.1 1.5,-0.2 2.3,-0.2 -0.1,0.2 -0.1,0.5 -0.2,0.7 0.5,0.2 1.1,0.3 1.6,0.5 0.3,-1.1 0.6,-2.1 1,-3.2 0.4,0.1 0.8,0.2 1.2,0.4 0.1,-0.4 0.3,-0.8 0.4,-1.2 -2.3,-0.7 -4.6,-1.4 -6.9,-1.9 -0.1,0.4 -0.2,0.8 -0.3,1.2 0.5,0.1 1,0.3 1.5,0.4 -0.1,0.5 -0.3,1 -0.4,1.5 -0.2,0.1 -0.4,0.2 -0.6,0.3 -0.6,-0.2 -1.3,-0.3 -1.9,-0.5 -0.2,-0.4 -0.5,-0.8 -0.8,-1.1 0.3,-1.3 0.6,-2.7 0.9,-4 0.5,-0.3 1.1,-0.6 1.6,-0.9 0.7,0.2 1.3,0.3 2,0.5 0.7,0.7 1.3,1.4 2,2.2 -0.1,0.2 -0.1,0.4 -0.2,0.5 0.6,0.2 1.2,0.3 1.8,0.5 0.3,-1.1 0.7,-2.2 1,-3.3 -0.5,-0.2 -1.1,-0.3 -1.6,-0.5 0,0.1 -0.1,0.3 -0.1,0.4 -0.5,-0.3 -1.1,-0.7 -1.6,-1 -1.7,-0.5 -3.4,-0.9 -5,-1.3 -1.4,0.3 -2.9,0.6 -4.3,0.9 -0.4,1.9 -0.7,3.8 -1.1,5.7 1.1,0.7 2.3,1.5 3.4,2.2 1.4,0.5 2.8,0.8 4.3,1.2 z"
   inkscape:connector-curvature="0"
   style="fill:#ffffff" />

		<path
   id="path3132"
   d="m 516.8,280.1 c 0.2,-0.4 0.3,-0.8 0.5,-1.2 -0.3,-0.1 -0.6,-0.2 -0.9,-0.4 -0.1,-0.2 -0.2,-0.4 -0.3,-0.6 0.6,-1.7 1.3,-3.3 1.9,-5 0.2,-0.1 0.4,-0.2 0.7,-0.3 0.3,0.1 0.7,0.3 1,0.4 0.2,-0.4 0.3,-0.8 0.5,-1.2 -2.4,-0.9 -4.8,-1.8 -7.3,-2.6 -0.1,0.4 -0.3,0.8 -0.4,1.2 0.3,0.1 0.7,0.2 1,0.3 0.1,0.2 0.2,0.4 0.3,0.6 -0.6,1.7 -1.1,3.4 -1.7,5.1 -0.2,0.1 -0.4,0.2 -0.6,0.3 -0.3,-0.1 -0.6,-0.2 -0.9,-0.3 -0.1,0.4 -0.3,0.8 -0.4,1.2 2.1,0.8 4.3,1.6 6.6,2.5 z"
   inkscape:connector-curvature="0"
   style="fill:#ffffff" />

		<path
   id="path3134"
   d="m 518.8,279.5 c -0.2,0.4 -0.3,0.8 -0.5,1.2 1.6,0.6 3.2,1.3 4.7,2.1 0.2,-0.4 0.4,-0.8 0.5,-1.2 -0.4,-0.2 -0.8,-0.4 -1.3,-0.6 -0.1,-0.3 -0.2,-0.6 -0.2,-0.9 0.5,-1.1 1,-2.2 1.5,-3.4 1.1,2.4 2.1,4.8 3,7.2 -0.1,0.1 -0.1,0.3 -0.2,0.4 1.1,0.6 2.2,1.2 3.4,1.8 1.1,-2.1 2.3,-4.2 3.4,-6.2 0.2,-0.1 0.5,-0.1 0.7,-0.2 0.3,0.2 0.6,0.3 0.9,0.5 0.2,-0.4 0.4,-0.7 0.6,-1.1 -1.5,-0.9 -3.1,-1.7 -4.6,-2.5 -0.2,0.4 -0.4,0.8 -0.6,1.1 0.4,0.2 0.8,0.4 1.1,0.6 0.1,0.2 0.2,0.4 0.2,0.7 -0.5,0.9 -1,1.8 -1.5,2.8 -0.8,-2 -1.6,-4.1 -2.5,-6.1 0.1,-0.2 0.2,-0.3 0.2,-0.5 -2,-1 -4.1,-1.9 -6.1,-2.7 -0.2,0.4 -0.3,0.8 -0.5,1.2 0.3,0.1 0.6,0.3 1,0.4 0.1,0.2 0.2,0.4 0.3,0.6 -0.7,1.6 -1.3,3.1 -2,4.7 -0.3,0.2 -0.6,0.3 -0.8,0.5 -0.2,-0.2 -0.5,-0.3 -0.7,-0.4 z"
   inkscape:connector-curvature="0"
   style="fill:#ffffff" />

		<path
   id="path3136"
   d="m 537.2,282.2 c -0.9,1.5 -1.8,3.1 -2.7,4.6 -0.2,0 -0.4,0.1 -0.7,0.1 -0.3,-0.2 -0.6,-0.3 -0.9,-0.5 -0.2,0.4 -0.4,0.7 -0.6,1.1 3.5,2 6.9,4.2 10.3,6.7 0.7,-0.9 1.4,-1.9 2.1,-2.8 -0.5,-0.3 -0.9,-0.7 -1.4,-1 -0.1,0.2 -0.3,0.4 -0.4,0.6 -0.9,0 -1.8,0 -2.6,0 -0.8,-0.5 -1.5,-1 -2.3,-1.5 0.5,-0.8 1,-1.6 1.5,-2.3 0.3,0.2 0.5,0.3 0.8,0.5 0,0.5 0.1,1.1 0.1,1.6 0.3,0.2 0.6,0.4 1,0.6 0.7,-1 1.4,-2 2.1,-3.1 -0.3,-0.2 -0.7,-0.4 -1,-0.7 -0.5,0.2 -1,0.3 -1.5,0.5 -0.3,-0.2 -0.5,-0.3 -0.8,-0.5 0.4,-0.6 0.8,-1.3 1.3,-1.9 0.9,0.6 1.8,1.2 2.7,1.8 0.3,0.6 0.5,1.3 0.8,1.9 -0.2,0.2 -0.3,0.5 -0.5,0.7 0.5,0.3 0.9,0.7 1.4,1 0.6,-0.9 1.3,-1.7 1.9,-2.6 -3.5,-2.6 -7.2,-4.9 -10.9,-7 -0.2,0.4 -0.4,0.7 -0.6,1.1 0.3,0.2 0.6,0.4 0.9,0.5 -0.2,0.2 -0.1,0.4 0,0.6 z"
   inkscape:connector-curvature="0"
   style="fill:#ffffff" />

		<path
   id="path3138"
   d="m 499.1,283.3 c 0.4,0 0.8,-0.4 0.8,-0.8 0,-0.4 -0.4,-0.8 -0.8,-0.8 -0.4,0 -0.6,0.2 -0.8,0.5 h -10.2 v 0.6 h 10.2 c 0.1,0.3 0.4,0.5 0.8,0.5 z"
   inkscape:connector-curvature="0"
   style="fill:#ffffff" />

		<path
   id="path3140"
   d="m 448.7,283.3 c 0.3,0 0.6,-0.2 0.8,-0.5 h 10.2 v -0.6 h -10.2 c -0.1,-0.3 -0.4,-0.5 -0.8,-0.5 -0.4,0 -0.8,0.4 -0.8,0.8 0,0.5 0.4,0.8 0.8,0.8 z"
   inkscape:connector-curvature="0"
   style="fill:#ffffff" />

		<path
   id="path3142"
   d="m 486.7,285.5 v -5.9 l -13,-1.6 -12.7,1.6 v 5.9 l 12.7,1.7 13,-1.7 z m -7.8,-3.7 0.5,-1 0.5,1 1.1,0.1 -0.8,0.8 0.2,1.1 -1,-0.5 -1,0.5 0.2,-1.1 -0.8,-0.7 1.1,-0.2 z m -9.5,2 -1,-0.5 -1,0.5 0.2,-1.1 -0.8,-0.7 1.1,-0.2 0.5,-1 0.5,1 1.1,0.1 -0.8,0.8 0.2,1.1 z m 2.9,-1.8 1.1,-0.2 0.5,-1 0.5,1 1.1,0.1 -0.8,0.8 0.2,1.1 -1,-0.5 -1,0.5 0.2,-1.1 -0.8,-0.7 z"
   inkscape:connector-curvature="0"
   style="fill:#ffffff" />

		<path
   id="path3144"
   d="m 550.9,160.3 c -0.5,0 -1,0.3 -1.2,0.8 H 398.2 c -0.2,-0.5 -0.6,-0.8 -1.2,-0.8 -0.7,0 -1.2,0.6 -1.2,1.2 0,0.7 0.6,1.2 1.2,1.2 0.5,0 1,-0.3 1.2,-0.8 h 151.6 c 0.2,0.5 0.6,0.8 1.2,0.8 0.7,0 1.2,-0.6 1.2,-1.2 -0.1,-0.6 -0.6,-1.2 -1.3,-1.2 z"
   inkscape:connector-curvature="0"
   style="fill:#ffffff" />

		<path
   id="path3146"
   d="m 550.9,303.6 c -0.5,0 -1,0.3 -1.2,0.8 H 398.2 c -0.2,-0.5 -0.6,-0.8 -1.2,-0.8 -0.7,0 -1.2,0.6 -1.2,1.2 0,0.7 0.6,1.2 1.2,1.2 0.5,0 1,-0.3 1.2,-0.8 h 151.6 c 0.2,0.5 0.6,0.8 1.2,0.8 0.7,0 1.2,-0.6 1.2,-1.2 -0.1,-0.7 -0.6,-1.2 -1.3,-1.2 z"
   inkscape:connector-curvature="0"
   style="fill:#ffffff" />

		<path
   id="path3148"
   d="m 370.1,264.9 v -13.3 h -0.8 v 13.3 c -0.4,0.2 -0.7,0.5 -0.7,1 0,0.6 0.5,1.1 1.1,1.1 0.6,0 1.1,-0.5 1.1,-1.1 0,-0.5 -0.3,-0.9 -0.7,-1 z"
   inkscape:connector-curvature="0"
   style="fill:#ffffff" />

		<path
   id="path3150"
   d="m 369.3,201.9 v 12.6 h 0.8 v -12.6 c 0.4,-0.2 0.7,-0.5 0.7,-1 0,-0.6 -0.5,-1.1 -1.1,-1.1 -0.6,0 -1.1,0.5 -1.1,1.1 0,0.4 0.3,0.8 0.7,1 z"
   inkscape:connector-curvature="0"
   style="fill:#ffffff" />

		<path
   id="path3152"
   d="m 365.7,215.8 -2.1,17.4 2.1,17 h 7.9 l 2.3,-16.9 -2.3,-17.5 h -7.9 z m 1.8,13.5 h 0.4 l 0.2,-0.2 V 227 l -0.2,-0.2 h -0.4 v -0.5 h 4.3 v 1.3 h -0.6 v -0.3 l -0.6,-0.4 h -1.1 v 0.9 h 0.3 l 0.3,-0.5 h 0.4 v 1.5 h -0.4 l -0.3,-0.5 h -0.3 v 1.1 h 1 l 0.8,-0.6 v -0.3 h 0.6 v 1.4 h -4.4 v -0.6 z m 2.4,4.4 H 369 l -1.2,-0.6 V 232 l 1.2,-0.6 h 1.6 l 0.5,0.2 v -0.1 h 0.5 v 1.1 h -0.5 l -0.1,-0.1 -0.8,-0.5 h -0.8 l -0.3,0.2 v 0.3 l 0.5,0.2 h 0.9 l 1.2,0.6 v 1.2 l -1.2,0.6 h -1.8 l -0.5,-0.2 v 0.1 h -0.5 v -1.3 h 0.5 l 0.1,0.2 1,0.6 h 0.7 l 0.3,-0.2 V 234 l -0.4,-0.3 z m 2,4.2 h -0.6 v -0.4 l -0.5,-0.5 h -0.3 v 2.3 l 0.2,0.2 h 0.5 v 0.5 h -3 v -0.5 h 0.5 l 0.2,-0.2 V 237 h -0.3 l -0.5,0.5 v 0.4 h -0.6 v -1.4 h 4.4 v 1.4 z"
   inkscape:connector-curvature="0"
   style="fill:#ffffff" />

		<path
   id="path3154"
   d="m 577.9,201.7 v 12.6 h 0.8 v -12.6 c 0.4,-0.2 0.7,-0.5 0.7,-1 0,-0.6 -0.5,-1.1 -1.1,-1.1 -0.6,0 -1.1,0.5 -1.1,1.1 0,0.5 0.3,0.8 0.7,1 z"
   inkscape:connector-curvature="0"
   style="fill:#ffffff" />

		<path
   id="path3156"
   d="m 578.6,264.7 v -13.3 h -0.8 v 13.3 c -0.4,0.2 -0.7,0.5 -0.7,1 0,0.6 0.5,1.1 1.1,1.1 0.6,0 1.1,-0.5 1.1,-1.1 0,-0.4 -0.3,-0.8 -0.7,-1 z"
   inkscape:connector-curvature="0"
   style="fill:#ffffff" />

		<path
   id="path3158"
   d="m 574.2,215.7 -2.1,17.4 2.1,17 h 7.9 l 2.3,-16.9 -2.3,-17.4 h -7.9 z m 2,11.3 0.5,-0.9 1.8,-0.6 V 225 l -0.3,-0.3 h -0.5 l -0.2,0.2 v 0.4 l -0.4,0.2 h -0.6 l -0.4,-0.2 v -0.6 l 1.1,-0.5 h 1.7 l 1,0.4 v 1.2 l -2.7,0.7 -0.2,0.3 0.6,-0.1 h 1.7 l 0.1,-0.1 v -0.3 h 0.5 v 1.5 H 576 V 227 z m 3.9,14.9 h -3.9 v -0.7 l 0.5,-0.9 1.8,-0.6 v -0.5 l -0.3,-0.3 h -0.5 l -0.2,0.2 v 0.4 l -0.4,0.2 h -0.6 l -0.4,-0.2 v -0.6 l 1.1,-0.5 h 1.7 l 1,0.4 v 1.2 l -2.7,0.7 -0.2,0.3 0.6,-0.1 h 1.7 l 0.1,-0.1 v -0.3 h 0.5 v 1.4 z m -0.9,-5.3 h 0.5 v 0.5 h -2.9 v -0.5 h 0.6 l 0.2,-0.2 v -2 h -0.9 v -0.5 h 0.8 l 0.7,-0.3 h 0.8 v 2.8 l 0.2,0.2 z m 1.2,-4.7 -1.2,0.6 H 577 l -1,-0.5 v -2.5 l 1.2,-0.6 h 2.2 l 1,0.5 v 2.5 z"
   inkscape:connector-curvature="0"
   style="fill:#ffffff" />

		<polygon
   id="polygon3160"
   points="577.8,229.4 577.5,229.8 577.5,231.6 577.8,231.9 578.6,231.9 578.9,231.6 578.9,229.8 578.6,229.4 "
   style="fill:#ffffff" />

		<path
   id="path3162"
   d="m 587.4,193.1 v -2.9 l -0.7,-0.1 c -6.5,-0.9 -12,-5.6 -13.8,-11.9 -0.2,-0.7 -0.3,-1.5 -0.4,-2.3 l -0.1,-0.7 h -2.9 v -25.7 h -95 -1.2 -95 v 25.7 h -2.9 l -0.1,0.7 c -0.1,0.8 -0.2,1.6 -0.4,2.3 -1.8,6.3 -7.3,11 -13.7,11.9 l -0.7,0.1 v 2.9 h -5.9 v 62.2 18 h 5.9 v 2.9 l 0.7,0.1 c 6.5,0.9 12,5.7 13.8,12 0.2,0.7 0.3,1.4 0.4,2.2 l 0.1,0.7 h 2.9 v 25.7 h 95 1.2 95 v -25.7 h 2.9 l 0.1,-0.7 c 0.1,-0.8 0.2,-1.5 0.4,-2.2 1.7,-6.3 7.3,-11.1 13.8,-12 l 0.7,-0.1 v -2.9 h 5.9 v -18 -44.2 -18 h -6 z m 4.3,19.5 v 41.2 18 h -5.9 v 3.1 c -6.8,1.2 -12.5,6.3 -14.4,13 -0.2,0.6 -0.3,1.1 -0.4,1.8 h -3 v 25.7 h -93.5 -1.2 -93.5 v -25.7 h -3.1 c -0.1,-0.6 -0.2,-1.2 -0.4,-1.8 -1.8,-6.7 -7.6,-11.8 -14.4,-13 v -3.1 H 356 v -18 -41.2 -18 h 5.9 v -3.1 c 6.8,-1.2 12.5,-6.3 14.4,-12.9 0.2,-0.6 0.3,-1.2 0.4,-1.9 h 3.1 V 151 h 93.5 1.2 93.5 v 25.7 h 3.1 c 0.1,0.7 0.2,1.3 0.4,1.9 1.9,6.6 7.6,11.7 14.4,12.9 v 3.1 h 5.9 v 18 z"
   inkscape:connector-curvature="0"
   style="fill:#ffffff" />

		<path
   id="path3164"
   d="m 558.6,159.3 c -0.3,-0.3 -0.7,-0.6 -1,-0.8 0.4,-1 0.5,-2 0.4,-2.6 h 4.7 c 0.1,0.3 0.5,0.6 0.8,0.7 v 1 0.1 c 0,1.2 -1.4,1.3 -1.7,0.7 0.2,0 0.6,-0.1 0.6,-0.7 0,-0.6 -0.5,-0.9 -0.8,-0.9 -0.3,0 -1.1,0.1 -1.1,1.6 0,1.2 1.3,1.8 2.3,1.7 1,-0.1 1.8,-1 1.8,-2.1 v -0.3 -1.4 -0.3 c -0.4,-0.1 -1,-0.6 -1.2,-1.2 h -6.7 c 0.2,1.1 0.1,2.1 -0.3,3 -1.4,-0.8 -2.7,-1 -4.6,-1.4 v -1.6 H 485.1 462.7 396 v 1.6 c -1.9,0.3 -3.3,0.6 -4.6,1.4 -0.3,-0.9 -0.5,-1.9 -0.3,-3 h -6.7 c -0.2,0.6 -0.7,1 -1.2,1.2 v 0.3 1.4 0.3 c 0,1.1 0.8,2 1.8,2.1 1,0.1 2.3,-0.5 2.3,-1.7 0,-1.6 -0.8,-1.6 -1.1,-1.6 -0.3,0 -0.8,0.3 -0.8,0.9 0,0.6 0.4,0.7 0.6,0.7 -0.3,0.6 -1.7,0.5 -1.7,-0.7 v -0.1 -1 c 0.2,-0.1 0.6,-0.4 0.8,-0.7 h 4.7 c -0.1,0.6 0,1.6 0.4,2.6 -0.3,0.2 -0.6,0.5 -1,0.8 -2.3,2 -3.6,3.3 -6.1,2.7 l 0,103.1 v 39.2 c 2.5,-0.5 3.8,0.7 6.1,2.7 0.3,0.3 0.7,0.6 1,0.8 -0.4,1 -0.5,2 -0.4,2.6 h -4.7 c -0.1,-0.3 -0.5,-0.6 -0.8,-0.7 v -1 -0.1 c 0,-1.2 1.4,-1.3 1.7,-0.7 -0.2,0 -0.6,0.1 -0.6,0.7 0,0.6 0.5,0.9 0.8,0.9 0.3,0 1.1,-0.1 1.1,-1.6 0,-1.1 -1.3,-1.8 -2.3,-1.7 -1,0.1 -1.8,1 -1.8,2.1 v 0.3 1.4 0.3 c 0.4,0.1 1,0.6 1.2,1.2 h 6.8 c -0.2,-1.1 -0.1,-2.1 0.3,-3 1.4,0.8 2.7,1 4.6,1.4 v 1.6 h 66.8 22.4 66.7 V 310 c 1.9,-0.3 3.3,-0.6 4.6,-1.4 0.3,0.9 0.5,1.9 0.3,3 h 6.7 c 0.2,-0.6 0.7,-1 1.2,-1.2 v -0.3 -1.4 -0.3 c 0,-1.1 -0.8,-2 -1.8,-2.1 -1,-0.1 -2.3,0.5 -2.3,1.7 0,1.6 0.8,1.6 1.1,1.6 0.3,0 0.9,-0.3 0.8,-0.9 0,-0.6 -0.4,-0.7 -0.6,-0.7 0.3,-0.6 1.7,-0.5 1.7,0.7 v 0.1 1 c -0.2,0.1 -0.6,0.4 -0.8,0.7 h -4.7 c 0.1,-0.6 0,-1.6 -0.4,-2.6 0.3,-0.2 0.6,-0.5 1,-0.8 2.3,-2 3.6,-3.3 6.1,-2.7 v -36.6 c 0.1,-0.1 0,-105.7 0,-105.7 -2.7,0.5 -4,-0.7 -6.3,-2.8 z m -174.2,4 c 1.5,0.1 2.8,-0.6 5.4,-3 0.3,-0.3 0.7,-0.6 1,-0.8 0.3,0.4 0.6,0.8 1,1.2 v 1.7 c -0.6,0.3 -1.3,0.8 -2.1,1.5 -1.1,1 -2.2,2.1 -3,3.3 -1,1.4 -1.8,2.9 -2.4,4.5 v -8.4 z m 7.5,142.5 c -0.4,0.3 -0.8,0.7 -1,1.2 -0.3,-0.3 -0.7,-0.5 -1,-0.8 -2.6,-2.4 -3.9,-3.1 -5.4,-3 v -8.4 c 0.5,1.6 1.3,3.1 2.4,4.5 0.9,1.2 1.9,2.3 3,3.3 0.8,0.7 1.5,1.2 2.1,1.5 v 1.7 z m 171.7,-2.7 c -1.5,-0.1 -2.8,0.6 -5.4,3 -0.3,0.3 -0.7,0.6 -1,0.8 -0.3,-0.4 -0.6,-0.8 -1,-1.2 V 304 c 0.6,-0.3 1.3,-0.8 2.1,-1.5 1.1,-1 2.2,-2.1 3,-3.3 1,-1.4 1.8,-2.9 2.4,-4.5 v 8.4 z m 0,-15.6 c -0.4,-0.5 -0.9,-0.7 -1.5,-0.7 -1.6,-0.1 -2.2,2.5 -0.9,2.9 0.3,-0.9 1.3,-0.7 1.5,-0.2 0.2,0.4 0.3,1.5 0.1,3 -0.4,2.3 -1.3,4.4 -2.7,6.3 -0.8,1 -1.7,2 -2.7,2.8 -0.7,0.6 -1.5,1.2 -2.4,1.8 v 3.1 c 0.3,0.2 0.7,0.6 1.1,1.2 -1.8,1 -3.5,1.3 -5.2,1.4 v 1.5 H 485.2 462.8 397.1 V 309 c -1.7,-0.1 -3.4,-0.3 -5.2,-1.4 0.4,-0.6 0.8,-1 1.1,-1.2 v -3.1 c -0.9,-0.6 -1.7,-1.2 -2.4,-1.8 -1,-0.8 -1.9,-1.8 -2.7,-2.8 -1.4,-1.9 -2.3,-4 -2.7,-6.3 -0.2,-1.5 -0.1,-2.6 0.1,-3 0.2,-0.5 1.2,-0.8 1.5,0.2 1.3,-0.4 0.6,-2.9 -0.9,-2.9 -0.6,0 -1.1,0.2 -1.5,0.7 v -19.3 -13.3 c 3.1,0.1 6.3,0.7 8,2.4 0.5,-1.8 1.3,-3.4 2.4,-4.8 3.3,-4.4 9.3,-7.2 14.9,-7.3 2.7,-0.1 5.4,0.4 7.4,2 0.8,0.7 1.4,1.8 1.4,2.9 0,0.5 -0.1,1.2 -0.6,1.6 -0.1,0.1 -0.3,0.2 -0.4,0.2 -0.2,-0.4 -0.8,-0.9 -1.5,-1.3 -1.3,-0.7 -2.7,-0.7 -4.2,-0.2 -2.6,0.9 -4.5,3.5 -4.1,6.1 0.2,1.4 1,2.4 2,3.2 2,1.4 4.4,1.7 6.9,1.5 3.8,-0.4 7.5,-1.8 10.9,-3.5 4.2,-2.1 8.3,-4.5 12.3,-6.9 1.6,2.7 4.6,4.1 7.8,3.4 2.7,-0.6 4,-1.7 4.6,-2.8 0.4,-0.3 0.9,-0.4 1.3,-0.5 0,0.1 -0.1,0.2 -0.1,0.3 0,0.4 0.3,0.7 0.7,0.7 0.4,0 0.7,-0.3 0.7,-0.7 0,0 0,-0.1 0,-0.1 0.4,0.2 0.8,0.6 1,1.1 0.2,0.6 1,0 1.6,-0.2 0.2,-0.1 0.3,-0.3 0.3,-0.5 -0.1,-0.9 0.4,-1.9 1.3,-2.6 0.8,-0.7 1.8,-0.9 2.8,-0.7 0,0.1 0,0.3 0,0.4 0,0.8 -0.2,1.6 -0.7,2.2 -0.4,0.6 -1.1,1.3 -2.4,1.5 -0.2,0 -0.4,0.2 -0.4,0.5 0,0.1 0.1,0.3 0.1,0.4 l 1.7,1.8 c 0.2,0.2 0.4,0.2 0.6,0.1 2.1,-0.9 5.4,-1.9 8.5,-2.3 1.3,-0.1 2.8,0 3.3,0.3 0,0.1 -0.1,0.2 -0.1,0.3 0,0.5 0.3,0.8 0.7,0.8 0.4,0 0.7,-0.2 0.9,-0.5 0.2,0.3 0.5,0.5 0.9,0.5 0.4,0 0.8,-0.4 0.7,-0.8 0,-0.1 0,-0.2 -0.1,-0.3 0.5,-0.2 1.9,-0.4 3.3,-0.3 3.1,0.3 6.4,1.4 8.5,2.3 0.2,0.1 0.4,0 0.6,-0.1 l 1.6,-1.8 c 0.1,-0.1 0.1,-0.2 0.1,-0.4 0,-0.3 -0.2,-0.5 -0.4,-0.5 -1.3,-0.2 -2,-1 -2.4,-1.5 -0.4,-0.6 -0.7,-1.5 -0.7,-2.2 0,-0.2 0,-0.3 0,-0.4 1,-0.2 2,0 2.8,0.7 0.8,0.7 1.3,1.7 1.3,2.6 0,0.2 0.1,0.4 0.3,0.5 0.6,0.3 1.4,0.9 1.6,0.2 0.2,-0.6 0.6,-0.9 1,-1.1 0,0 0,0.1 0,0.1 0,0.4 0.3,0.7 0.7,0.7 0.4,0 0.7,-0.3 0.7,-0.7 0,-0.1 0,-0.2 -0.1,-0.3 0.4,0.1 0.9,0.2 1.3,0.5 0.6,1.1 1.9,2.2 4.6,2.8 3.2,0.6 6.1,-0.7 7.8,-3.4 4,2.4 8.1,4.9 12.3,6.9 3.5,1.7 7.2,3.1 11,3.5 2.4,0.2 4.8,-0.1 6.9,-1.5 1.1,-0.8 1.9,-1.8 2,-3.2 0.4,-2.6 -1.5,-5.2 -4.1,-6.1 -1.4,-0.5 -2.8,-0.4 -4.2,0.2 -0.7,0.4 -1.3,0.9 -1.5,1.3 -0.2,0 -0.3,-0.1 -0.4,-0.2 -0.4,-0.4 -0.5,-1.1 -0.6,-1.6 0,-1.1 0.5,-2.2 1.4,-2.9 2,-1.7 4.7,-2.1 7.4,-2 5.7,0.1 11.7,3 14.9,7.3 1,1.4 1.9,3 2.4,4.8 1.7,-1.7 5,-2.3 8.1,-2.4 0,7.7 0,12.7 0,12.7 v 20 z M 441,244.2 c 0.3,0.7 0.8,1.2 1.5,1.4 0.7,0.3 1.5,0.2 2.2,-0.1 0.6,-0.3 0.9,-0.9 0.8,-1.5 -0.1,-0.5 -0.4,-0.9 -0.9,-0.9 -0.4,0 -0.8,0.3 -0.8,0.7 0,0.1 0,0.2 0.1,0.3 -0.4,0.4 -1.5,0.4 -1.9,-0.3 -1,-1.9 1.4,-3.3 2.8,-4.1 0.4,-0.2 0.3,-0.4 -0.5,-0.6 0.1,-0.1 0.1,-0.1 0.2,-0.1 1.5,-0.9 3.3,-1.8 5.3,-2.6 3.2,-1.2 7,-2.3 11.2,-2.9 4,-0.7 8.4,-1 13,-1 4.6,0 8.9,0.4 13,1 4.2,0.7 8,1.7 11.2,2.9 2,0.8 3.8,1.6 5.3,2.6 0.1,0 0.1,0.1 0.2,0.1 -0.8,0.2 -0.9,0.4 -0.5,0.6 1.4,0.7 3.8,2.2 2.8,4.1 -0.4,0.7 -1.4,0.7 -1.9,0.3 0,-0.1 0.1,-0.2 0.1,-0.3 0,-0.4 -0.3,-0.7 -0.8,-0.7 -0.5,0 -0.8,0.4 -0.9,0.9 -0.1,0.6 0.3,1.2 0.8,1.5 0.6,0.3 1.5,0.3 2.1,0.1 0.7,-0.2 1.2,-0.8 1.5,-1.4 0.2,-0.5 0.2,-1 0.1,-1.5 0.9,1.6 1.2,3.2 1.1,4.6 -0.3,-0.5 -0.5,-0.4 -0.6,0.2 -0.2,1.3 -0.8,3 -2,3.7 -1.1,0.6 -1.7,0.1 -1.9,-0.3 0.2,-0.1 0.5,-0.3 0.5,-0.5 0.2,-0.6 -0.4,-1 -0.9,-1 -0.7,0 -1.2,0.7 -1.3,1.3 -0.1,0.6 0.3,1.2 0.8,1.5 0.6,0.4 1.5,0.5 2.2,0.3 -1.2,0.7 -2.7,1.1 -4.4,0.7 -2.8,-0.6 -4.3,-2 -4.2,-3.8 0,-0.5 0.2,-1 0.5,-1.4 0.7,-0.8 1.6,-0.5 1.6,0 -0.1,0.1 -0.1,0.2 -0.1,0.4 0,0.6 0.5,1 1,0.9 0.6,-0.1 1,-0.9 0.7,-1.5 -0.3,-0.7 -1.2,-1.4 -2.4,-1.3 -1.2,0.1 -2.3,1.4 -2.3,2.9 0,0.2 0,0.4 0,0.8 -0.8,-0.2 -1.6,-0.3 -2.2,0 -0.7,0.2 -1.2,0.7 -1.6,1.3 -0.1,0 -0.1,-0.1 -0.2,-0.1 0,-1.1 -0.6,-2.3 -1.7,-3.2 -1.2,-0.9 -2.7,-1.2 -4.1,-0.8 -0.2,0.1 -0.3,0.2 -0.3,0.4 -0.2,1.3 0,2.7 0.8,3.8 0.5,0.8 1.3,1.4 2.2,1.7 -0.4,0.4 -0.6,0.7 -0.8,0.9 -2.1,-0.9 -5.5,-2 -8.8,-2.3 -1.8,-0.2 -2.8,-0.1 -3.5,0.1 -0.5,0.1 -0.8,0.4 -1,0.8 -0.2,-0.4 -0.5,-0.7 -1,-0.8 -0.7,-0.2 -1.7,-0.2 -3.5,-0.1 -3.3,0.3 -6.7,1.4 -8.8,2.3 -0.2,-0.2 -0.4,-0.5 -0.8,-0.9 0.9,-0.3 1.6,-0.9 2.2,-1.7 0.7,-1.1 1,-2.5 0.8,-3.8 0,-0.2 -0.2,-0.3 -0.3,-0.4 -1.4,-0.5 -2.9,-0.2 -4.1,0.8 -1,0.8 -1.6,2 -1.7,3.2 -0.1,0 -0.1,0 -0.2,0.1 -0.4,-0.6 -0.9,-1.1 -1.6,-1.3 -0.7,-0.2 -1.5,-0.2 -2.2,0 0,-0.3 0,-0.6 0,-0.8 -0.1,-1.5 -1.1,-2.8 -2.3,-2.9 -1.2,-0.1 -2.1,0.6 -2.4,1.3 -0.3,0.6 0.1,1.5 0.7,1.5 0.5,0.1 1.1,-0.3 1,-0.9 0,-0.1 0,-0.3 -0.1,-0.4 0,-0.5 0.9,-0.8 1.5,0 0.3,0.4 0.5,0.9 0.5,1.4 0.1,1.8 -1.5,3.2 -4.2,3.8 -1.7,0.3 -3.2,0 -4.4,-0.7 0.8,0.2 1.6,0.1 2.2,-0.3 0.5,-0.3 0.8,-0.9 0.8,-1.5 -0.1,-0.7 -0.6,-1.3 -1.3,-1.3 -0.5,0 -1,0.4 -0.9,1 0.1,0.2 0.3,0.4 0.5,0.5 -0.3,0.5 -0.9,0.9 -1.9,0.3 -1.2,-0.7 -1.9,-2.4 -2,-3.7 -0.1,-0.6 -0.3,-0.7 -0.6,-0.2 -0.1,-1.4 0.2,-3.1 1.1,-4.6 -0.4,0.5 -0.3,1 -0.1,1.5 z m 30.9,-13.4 c 1.1,-0.5 1.7,-1.2 2,-1.9 0.3,0.7 0.9,1.4 2,1.9 -0.7,0 -1.3,0 -2,0 -0.6,0 -1.3,0 -2,0 z m 91.6,23.1 c -0.6,0 -1.2,0 -1.8,0.1 -2.5,0.2 -4.4,0.8 -5.8,1.6 -0.6,-1.6 -1.5,-3.1 -2.6,-4.4 -3.5,-4.2 -9.4,-6.8 -15.1,-7 -3.3,-0.1 -6.6,0.4 -8.7,2.7 -0.7,0.8 -1.2,2 -1.2,3.1 0,1 0.5,2.1 1.3,2.7 0.3,0.2 0.8,0.3 1.1,0.2 0.4,-0.2 0.5,-0.6 0.9,-0.9 1.2,-0.9 2.7,-1.1 4.2,-0.5 2.1,0.8 3.6,2.8 3.3,5 -0.2,1.5 -1.2,2.5 -2.6,3.1 -1.6,0.8 -3.4,0.9 -5.2,0.8 -3.8,-0.3 -7.5,-1.9 -11,-3.6 -4.1,-2 -8,-4.4 -12,-6.7 0.1,-0.1 0.1,-0.2 0.2,-0.3 0.3,-0.8 0.5,-1.6 0.6,-2.6 0.3,0.3 0.6,0.4 0.9,0.4 0.8,-0.1 0.9,-0.7 0.8,-1 -0.1,-0.4 -0.8,-0.5 -0.9,-0.3 -0.1,0.2 -0.6,-0.6 -0.9,-1.3 -0.5,-2.3 -1.9,-4.7 -4.9,-6.6 -1.4,-0.9 -2.9,-1.6 -4.7,-2.4 -3.3,-1.4 -7.2,-2.4 -11.5,-3.2 -1.3,-0.2 -2.7,-0.4 -4.1,-0.6 1.9,-0.3 3.7,-1.4 3.6,-3.4 -0.1,-1.4 -1.4,-2.1 -2.7,-2 -0.7,0.1 -1.3,0.6 -1.2,1.3 0,0.4 0.4,0.9 0.9,0.9 0.5,0 0.9,-0.3 1,-0.7 0.5,0.1 0.9,0.6 0.5,1.4 -0.6,1.1 -2.4,1.3 -3.5,1.4 -1.6,0.2 -3.4,0.2 -4.9,-0.4 -2.9,-1 -2.8,-2.7 -2.5,-3.6 0.1,-0.3 0.2,-0.5 0.5,-0.7 0.5,-0.2 0.8,-0.2 0.9,0.1 -0.1,0.1 -0.2,0.3 -0.2,0.5 0,0.4 0.4,0.8 0.9,0.8 0.5,0 0.9,-0.5 0.9,-0.9 0.2,-0.8 -0.2,-1.4 -1,-1.7 -1.1,-0.5 -2.5,0.1 -3.1,1.1 -0.6,-1 -1.9,-1.6 -3.1,-1.1 -0.7,0.3 -1.1,1 -1,1.7 0.1,0.4 0.5,0.9 0.9,0.9 0.5,0 0.9,-0.4 0.9,-0.8 0,-0.2 -0.1,-0.4 -0.2,-0.5 0.1,-0.3 0.4,-0.4 0.9,-0.1 0.3,0.1 0.4,0.4 0.5,0.7 0.3,0.9 0.4,2.6 -2.5,3.6 -1.5,0.5 -3.3,0.6 -4.9,0.4 -1.1,-0.2 -2.9,-0.4 -3.5,-1.4 -0.5,-0.8 0,-1.3 0.5,-1.4 0.1,0.4 0.5,0.7 0.9,0.7 0.5,0 0.9,-0.5 0.9,-0.9 0.1,-0.7 -0.5,-1.3 -1.2,-1.3 -1.3,-0.1 -2.6,0.6 -2.7,2 -0.1,2 1.7,3 3.6,3.4 -1.4,0.2 -2.7,0.4 -4.1,0.6 -4.3,0.8 -8.1,1.8 -11.5,3.2 -1.8,0.7 -3.3,1.5 -4.7,2.4 -3,1.9 -4.5,4.3 -4.9,6.6 -0.2,0.7 -0.7,1.5 -0.9,1.3 -0.1,-0.3 -0.8,-0.2 -0.9,0.3 -0.1,0.4 0,1 0.8,1 0.3,0 0.6,-0.1 0.9,-0.4 0.1,0.9 0.3,1.8 0.6,2.6 0,0.1 0.1,0.2 0.1,0.3 -4,2.4 -7.9,4.7 -12,6.8 -3.5,1.7 -7.2,3.2 -11,3.6 -1.8,0.2 -3.6,0 -5.2,-0.8 -1.3,-0.6 -2.4,-1.7 -2.6,-3.1 -0.3,-2.1 1.2,-4.2 3.3,-5 1.5,-0.6 3,-0.4 4.2,0.5 0.3,0.3 0.5,0.7 0.9,0.9 0.4,0.2 0.8,0.1 1.1,-0.2 0.8,-0.6 1.3,-1.6 1.3,-2.7 0,-1.1 -0.5,-2.3 -1.2,-3.1 -2.1,-2.3 -5.4,-2.8 -8.7,-2.7 -5.6,0.2 -11.5,2.9 -15.1,7 -1.1,1.3 -2,2.8 -2.6,4.4 -1.4,-0.9 -3.3,-1.4 -5.8,-1.6 -0.6,0 -1.1,-0.1 -1.7,-0.1 l 0,-74.9 c 0.4,0.5 0.9,0.7 1.5,0.7 1.6,0.1 2.2,-2.5 0.9,-2.9 -0.3,0.9 -1.3,0.7 -1.5,0.2 -0.2,-0.4 -0.3,-1.5 -0.1,-3 0.4,-2.3 1.3,-4.4 2.7,-6.3 0.8,-1 1.7,-2 2.7,-2.8 0.7,-0.6 1.5,-1.2 2.4,-1.8 V 160 c -0.3,-0.2 -0.7,-0.6 -1.1,-1.2 1.8,-1 3.5,-1.3 5.2,-1.4 V 156 h 65.7 22.4 65.7 v 1.5 c 1.7,0.1 3.4,0.3 5.2,1.4 -0.4,0.6 -0.8,1 -1.1,1.2 v 3.1 c 0.9,0.6 1.7,1.2 2.4,1.8 1,0.8 1.9,1.8 2.7,2.8 1.4,1.8 2.3,4 2.7,6.3 0.2,1.5 0.1,2.6 -0.1,3 -0.2,0.5 -1.2,0.8 -1.5,-0.2 -1.3,0.4 -0.6,2.9 0.9,2.9 0.6,0 1.1,-0.2 1.5,-0.7 0.2,-0.1 0.1,49.9 0.1,74.8 z m 0.1,-82.1 c -0.5,-1.6 -1.3,-3.1 -2.4,-4.5 -0.9,-1.2 -1.9,-2.3 -3,-3.3 -0.8,-0.7 -1.5,-1.2 -2.1,-1.5 v -1.7 c 0.4,-0.3 0.8,-0.7 1,-1.2 0.3,0.3 0.7,0.5 1,0.8 2.6,2.4 3.9,3.1 5.4,3 v 8.4 z"
   inkscape:connector-curvature="0"
   style="fill:#ffffff" />

	</g>

</g>
  </g>
</svg>
