<?xml version="1.0" encoding="utf-8"?>
<!-- Generator: Adobe Illustrator 18.1.1, SVG Export Plug-In . SVG Version: 6.00 Build 0)  -->
<svg version="1.1" baseProfile="basic" id="Layer_1"
	 xmlns="http://www.w3.org/2000/svg" xmlns:xlink="http://www.w3.org/1999/xlink" x="0px" y="0px" viewBox="0 0 612 792"
	 xml:space="preserve">
<g>
	<g>
		<path d="M375.3,319.9v-25.7h-2.6l-0.4-3.4c-0.1-0.6-0.2-1.2-0.3-1.7c-1.4-5.1-5.9-9.1-11.2-9.8l-3.3-0.4v-2.5h-5.9V190h5.9v-2.5
			l3.3-0.4c5.3-0.7,9.8-4.6,11.2-9.7c0.2-0.6,0.3-1.1,0.3-1.8l0.4-3.4h2.6v-25.7h197.2v25.7h2.6l0.4,3.4c0.1,0.7,0.2,1.2,0.3,1.8
			c1.4,5.1,5.9,9,11.2,9.7l3.3,0.4v2.5h5.9v86.4h-5.9v2.5l-3.3,0.4c-5.3,0.7-9.8,4.6-11.2,9.8c-0.2,0.5-0.3,1.1-0.3,1.7l-0.4,3.4
			h-2.6v25.7H375.3z"/>
		<g>
			<path fill="none" d="M407.9,175.4c0-0.6-0.5-1.1-1.1-1.1c-0.6,0-1.1,0.5-1.1,1.1c0,0.5,0.3,0.9,0.7,1v49.4
				c-0.4,0.2-0.7,0.5-0.7,1c0,0.6,0.5,1.1,1.1,1.1c0.6,0,1.1-0.5,1.1-1.1c0-0.5-0.3-0.9-0.7-1v-49.4
				C407.6,176.3,407.9,175.9,407.9,175.4z"/>
		</g>
		<g>
			<path fill="none" d="M542.6,175.4c0-0.6-0.5-1.1-1.1-1.1c-0.6,0-1.1,0.5-1.1,1.1c0,0.5,0.3,0.9,0.7,1v49.4
				c-0.4,0.2-0.7,0.5-0.7,1c0,0.6,0.5,1.1,1.1,1.1c0.6,0,1.1-0.5,1.1-1.1c0-0.5-0.3-0.9-0.7-1v-49.4
				C542.3,176.3,542.6,175.9,542.6,175.4z"/>
		</g>
		<path fill="none" d="M476,230.8c-1.1-0.5-1.7-1.2-2-1.9c-0.3,0.7-0.9,1.4-2,1.9c0.7,0,1.3,0,2,0
			C474.6,230.8,475.3,230.8,476,230.8z"/>
	</g>
	<g>
		<path fill="none" d="M456.6,298.4c0.3,0.3,1-0.3,1.2-0.7l0.2-0.4c0,0-0.4,0.1-0.7,0.2C457,297.6,456.2,298.1,456.6,298.4z"/>
		<path fill="none" d="M470.4,294.4c0.4-0.3,1.1-1.3,0.6-1.4c-0.4-0.1-1,0.4-1.3,1c0,0,0.2,0.1,0.1,0.3c0,0,0,0.1-0.1,0
			c0,0-0.1,0-0.1,0c-0.1,0-0.2,0.2-0.1,0.3C469.8,294.7,470.1,294.6,470.4,294.4z"/>
		<path fill="none" d="M462.9,294.4c0.4-0.3,1.1-1.3,0.6-1.4c-0.4-0.1-1,0.4-1.3,1c0,0,0.2,0.1,0.1,0.3c0,0,0,0.1,0,0
			c0,0-0.1,0-0.1,0c-0.1,0-0.2,0.2-0.1,0.3C462.2,294.7,462.6,294.6,462.9,294.4z"/>
		<path fill="none" d="M476,230.8c-1.1-0.5-1.7-1.2-2-1.9c-0.3,0.7-0.9,1.4-2,1.9c0.7,0,1.3,0,2,0
			C474.6,230.8,475.3,230.8,476,230.8z"/>
		<polygon fill="none" points="468.9,281.8 468.4,280.9 468,281.8 466.9,282 467.7,282.8 467.5,283.8 468.5,283.3 469.4,283.8 
			469.2,282.7 470,282 		"/>
		<polygon fill="none" points="478.4,283.8 479.4,283.3 480.3,283.8 480.1,282.7 480.9,282 479.8,281.8 479.3,280.9 478.9,281.8 
			477.8,282 478.6,282.8 		"/>
		<path fill="none" d="M555.4,257.3c-0.5-1.8-1.3-3.4-2.4-4.8c-3.3-4.4-9.3-7.2-14.9-7.3c-2.7-0.1-5.4,0.4-7.4,2
			c-0.8,0.7-1.4,1.8-1.4,2.9c0,0.5,0.1,1.2,0.6,1.6c0.1,0.1,0.3,0.2,0.4,0.2c0.2-0.4,0.8-0.9,1.5-1.3c1.3-0.7,2.7-0.7,4.2-0.2
			c2.6,0.9,4.5,3.5,4.1,6.1c-0.2,1.4-1,2.4-2,3.2c-2,1.4-4.4,1.7-6.9,1.5c-3.8-0.4-7.5-1.8-11-3.5c-4.2-2.1-8.2-4.5-12.3-6.9
			c-1.6,2.7-4.6,4-7.8,3.4c-2.7-0.6-4-1.7-4.6-2.8c-0.4-0.3-0.9-0.4-1.3-0.5c0,0.1,0.1,0.2,0.1,0.3c0,0.4-0.3,0.7-0.7,0.7
			c-0.4,0-0.7-0.3-0.7-0.7c0,0,0-0.1,0-0.1c-0.4,0.2-0.8,0.6-1,1.1c-0.2,0.6-1,0-1.6-0.2c-0.2-0.1-0.3-0.3-0.3-0.5
			c0.1-0.9-0.4-1.9-1.3-2.6c-0.8-0.7-1.8-0.9-2.8-0.7c0,0.1,0,0.3,0,0.4c0,0.8,0.2,1.6,0.7,2.2c0.4,0.6,1.1,1.3,2.4,1.5
			c0.2,0,0.4,0.2,0.4,0.5c0,0.1,0,0.3-0.1,0.4l-1.6,1.8c-0.2,0.2-0.4,0.2-0.6,0.1c-2.1-0.9-5.4-1.9-8.5-2.3c-1.3-0.1-2.8,0-3.3,0.3
			c0,0.1,0.1,0.2,0.1,0.3c0.1,0.5-0.3,0.8-0.7,0.8c-0.4,0-0.7-0.2-0.9-0.5c-0.2,0.3-0.5,0.5-0.9,0.5c-0.4,0-0.8-0.4-0.7-0.8
			c0-0.1,0-0.2,0.1-0.3c-0.5-0.2-1.9-0.4-3.3-0.3c-3.1,0.3-6.4,1.4-8.5,2.3c-0.2,0.1-0.4,0-0.6-0.1l-1.7-1.8
			c-0.1-0.1-0.1-0.2-0.1-0.4c0-0.3,0.2-0.5,0.4-0.5c1.3-0.2,2-1,2.4-1.5c0.4-0.6,0.7-1.5,0.7-2.2c0-0.2,0-0.3,0-0.4
			c-1-0.2-2,0-2.8,0.7c-0.8,0.7-1.3,1.7-1.3,2.6c0,0.2-0.1,0.4-0.3,0.5c-0.6,0.3-1.4,0.9-1.6,0.2c-0.2-0.6-0.6-0.9-1-1.1
			c0,0,0,0.1,0,0.1c0,0.4-0.3,0.7-0.7,0.7c-0.4,0-0.7-0.3-0.7-0.7c0-0.1,0-0.2,0.1-0.3c-0.4,0.1-0.9,0.2-1.3,0.5
			c-0.6,1.1-1.9,2.2-4.6,2.8c-3.2,0.6-6.2-0.7-7.8-3.4c-4.1,2.4-8.1,4.9-12.3,6.9c-3.5,1.7-7.2,3.1-10.9,3.5
			c-2.4,0.2-4.8-0.1-6.9-1.5c-1.1-0.8-1.9-1.8-2-3.2c-0.4-2.6,1.5-5.2,4.1-6.1c1.4-0.5,2.8-0.4,4.2,0.2c0.7,0.4,1.3,0.9,1.5,1.3
			c0.2,0,0.3-0.1,0.4-0.2c0.4-0.4,0.5-1.1,0.6-1.6c0-1.1-0.5-2.2-1.4-2.9c-2-1.7-4.7-2.1-7.4-2c-5.7,0.1-11.7,3-14.9,7.3
			c-1,1.4-1.9,3-2.4,4.8c-1.7-1.7-5-2.3-8-2.4v13.3v19.3c0.4-0.5,0.9-0.7,1.5-0.7c1.6-0.1,2.2,2.5,0.9,2.9c-0.3-0.9-1.3-0.7-1.5-0.2
			c-0.2,0.4-0.3,1.5-0.1,3c0.4,2.3,1.3,4.4,2.7,6.3c0.8,1,1.7,2,2.7,2.8c0.7,0.6,1.5,1.2,2.4,1.8v3.1c-0.3,0.2-0.7,0.6-1.1,1.2
			c1.8,1,3.5,1.3,5.2,1.4v1.5h65.7h22.4h65.7V309c1.7-0.1,3.4-0.3,5.2-1.4c-0.4-0.6-0.8-1-1.1-1.2v-3.1c0.9-0.6,1.7-1.2,2.4-1.8
			c1-0.8,1.9-1.8,2.7-2.8c1.4-1.9,2.3-4,2.7-6.3c0.2-1.5,0.1-2.6-0.1-3c-0.2-0.5-1.2-0.8-1.5,0.2c-1.3-0.4-0.6-2.9,0.9-2.9
			c0.6,0,1.1,0.2,1.5,0.7v-19.9c0,0,0-5.1,0-12.7C560.4,254.9,557.1,255.5,555.4,257.3z M536.7,279.9c3.7,2.1,7.3,4.5,10.9,7
			c-0.6,0.9-1.3,1.7-1.9,2.6c-0.5-0.3-0.9-0.7-1.4-1c0.2-0.2,0.3-0.5,0.5-0.7c-0.3-0.6-0.5-1.3-0.8-1.9c-0.9-0.6-1.8-1.2-2.7-1.8
			c-0.4,0.6-0.8,1.3-1.3,1.9c0.3,0.2,0.5,0.3,0.8,0.5c0.5-0.2,1-0.3,1.5-0.5c0.3,0.2,0.7,0.4,1,0.7c-0.7,1-1.4,2-2.1,3.1
			c-0.3-0.2-0.6-0.4-1-0.6c0-0.5,0-1.1-0.1-1.6c-0.3-0.2-0.5-0.3-0.8-0.5c-0.5,0.8-1,1.6-1.5,2.3c0.8,0.5,1.5,1,2.3,1.5
			c0.9,0,1.7,0,2.6,0c0.1-0.2,0.3-0.4,0.4-0.6c0.5,0.3,0.9,0.7,1.4,1c-0.7,0.9-1.4,1.9-2.1,2.8c-3.3-2.4-6.8-4.6-10.3-6.7
			c0.2-0.4,0.4-0.7,0.6-1.1c0.3,0.2,0.6,0.3,0.9,0.5c0.2-0.1,0.4-0.1,0.7-0.1c0.9-1.5,1.8-3.1,2.7-4.6c-0.1-0.2-0.1-0.4-0.2-0.7
			c-0.3-0.2-0.6-0.4-0.9-0.5C536.2,280.6,536.4,280.3,536.7,279.9z M520.4,279.4c0.7-1.6,1.3-3.1,2-4.7c-0.1-0.2-0.2-0.4-0.3-0.6
			c-0.3-0.1-0.6-0.3-1-0.4c0.2-0.4,0.3-0.8,0.5-1.2c2.1,0.8,4.1,1.8,6.1,2.7c-0.1,0.2-0.2,0.3-0.2,0.5c0.9,2,1.7,4,2.5,6.1
			c0.5-0.9,1-1.8,1.5-2.8c-0.1-0.2-0.2-0.4-0.2-0.7c-0.4-0.2-0.8-0.4-1.1-0.6c0.2-0.4,0.4-0.8,0.6-1.1c1.6,0.8,3.1,1.6,4.6,2.5
			c-0.2,0.4-0.4,0.7-0.6,1.1c-0.3-0.2-0.6-0.3-0.9-0.5c-0.2,0-0.5,0.1-0.7,0.2c-1.1,2.1-2.3,4.2-3.4,6.2c-1.1-0.6-2.2-1.2-3.4-1.8
			c0.1-0.1,0.1-0.3,0.2-0.4c-0.9-2.4-1.9-4.8-3-7.2c-0.5,1.1-1,2.2-1.5,3.4c0.1,0.3,0.2,0.6,0.2,0.9c0.4,0.2,0.8,0.4,1.3,0.6
			c-0.2,0.4-0.4,0.8-0.5,1.2c-1.6-0.7-3.1-1.4-4.7-2.1c0.2-0.4,0.3-0.8,0.5-1.2c0.3,0.1,0.6,0.2,0.8,0.3
			C519.9,279.7,520.1,279.6,520.4,279.4z M511.3,276.8c0.2-0.1,0.4-0.2,0.6-0.3c0.6-1.7,1.1-3.4,1.7-5.1c-0.1-0.2-0.2-0.4-0.3-0.6
			c-0.3-0.1-0.7-0.2-1-0.3c0.1-0.4,0.3-0.8,0.4-1.2c2.4,0.8,4.9,1.7,7.3,2.6c-0.2,0.4-0.3,0.8-0.5,1.2c-0.3-0.1-0.7-0.3-1-0.4
			c-0.2,0.1-0.4,0.2-0.7,0.3c-0.6,1.7-1.3,3.3-1.9,5c0.1,0.2,0.2,0.4,0.3,0.6c0.3,0.1,0.6,0.2,0.9,0.4c-0.2,0.4-0.3,0.8-0.5,1.2
			c-2.2-0.9-4.5-1.7-6.8-2.4c0.1-0.4,0.3-0.8,0.4-1.2C510.7,276.5,511,276.7,511.3,276.8z M497.5,267c1.4-0.3,2.8-0.6,4.3-0.9
			c1.7,0.4,3.4,0.8,5,1.3c0.5,0.3,1.1,0.7,1.6,1c0-0.1,0.1-0.3,0.1-0.4c0.5,0.2,1.1,0.3,1.6,0.5c-0.3,1.1-0.7,2.2-1,3.3
			c-0.6-0.2-1.2-0.4-1.8-0.5c0.1-0.2,0.1-0.4,0.2-0.5c-0.6-0.7-1.3-1.5-2-2.2c-0.7-0.2-1.3-0.3-2-0.5c-0.5,0.3-1.1,0.6-1.6,0.9
			c-0.3,1.3-0.6,2.7-0.9,4c0.3,0.4,0.5,0.8,0.8,1.1c0.6,0.2,1.3,0.3,1.9,0.5c0.2-0.1,0.4-0.2,0.6-0.3c0.1-0.5,0.3-1,0.4-1.5
			c-0.5-0.1-1-0.3-1.5-0.4c0.1-0.4,0.2-0.8,0.3-1.2c2.3,0.6,4.6,1.2,6.9,1.9c-0.1,0.4-0.3,0.8-0.4,1.2c-0.4-0.1-0.8-0.2-1.2-0.4
			c-0.3,1.1-0.6,2.1-1,3.2c-0.5-0.2-1.1-0.3-1.6-0.5c0.1-0.2,0.1-0.5,0.2-0.7c-0.8,0.1-1.5,0.1-2.3,0.2c-1.4-0.4-2.9-0.7-4.4-1.1
			c-1.1-0.8-2.2-1.5-3.4-2.2C496.7,270.8,497.1,268.9,497.5,267z M498.6,293c-0.4,0.2-0.7,0.9-0.7,0.9c-0.1,0.1,0,0.3,0.1,0.3l0,0
			c0,0,0,0,0,0c0,0.1-0.1,0.2-0.1,0.2c-0.1,0.1-0.3,0.2-0.5,0.1l-1.2,2.3h-0.9l1.9-3.5c0.1-0.1,0-0.2,0-0.3c-0.1,0-0.2,0.1-0.3,0.2
			c-0.3,0.4-0.6,0.9-0.9,1.3l-0.1-0.1c-0.3,0.4-0.8,1.2-1.3,1.4c-0.2,0.1-0.4,0.1-0.6,0.1c-0.5,0.5-1.1,0.9-1.7,0.9
			c-0.5,0-0.8-0.3-0.9-0.8c0-0.1,0-0.2,0-0.4c-0.3,0.4-0.6,0.7-0.8,0.8c-0.3,0.2-0.7,0.4-1,0.5l-0.5,0.8c-0.4,0.7-0.8,1-1.5,1.2
			c-0.7,0.1-1.3-0.3-1.2-1c0.1-0.5,0.9-0.8,1.4-1c0.3-0.1,0.6-0.2,0.9-0.3l0.3-0.5c-0.3,0.2-0.5,0.3-0.6,0.3c-0.5,0-0.8-0.4-0.8-0.8
			c0-0.1,0-0.2,0-0.4c-0.6,0.8-1.4,1.6-2.2,1.4c-0.9-0.2-1-0.9-0.9-1.6c0.2-1,0.9-2,1.7-2.6c0.3-0.2,0.8-0.4,1.2-0.4
			c0.7,0,0.8,0.7,0.6,1.2c-0.5,0.9-1.3,1.4-1.8,1.5c-0.6,0.1-0.7-0.3-0.7-0.3s-0.1,0.1-0.1,0.3c-0.1,0.5,0,1,0.4,1
			c0.7,0.1,1.1-0.3,1.7-1.1c0.1-0.2,0.2-0.3,0.3-0.4c0,0,0-0.1,0.1-0.1c0.5-1.1,1.4-2.1,2.6-2c0.2,0,0.4,0.1,0.6,0.3l0.1-0.2h0.9
			l-2.3,4.1c0,0,0.4-0.2,0.6-0.3c0.4-0.3,0.7-0.6,1-1.1c0.2-0.7,0.7-1.4,1.1-2c0.5-0.5,1.2-0.9,1.9-0.8c0.9,0.2,0.9,1.3,0.3,2.5
			c-0.1,0.3-0.3,0.5-0.4,0.7c0,0,0.1,0,0.4-0.2c0.5-0.4,1-1.3,1-1.3l0.1,0.1c0.3-0.4,0.6-0.9,0.8-1.2c0.2-0.3,0.7-0.7,1.1-0.6
			c0.2,0.1,0.3,0.3,0.3,0.5c0.1-0.1,0.3-0.3,0.4-0.3c0.4-0.2,0.6-0.2,0.9-0.1c0.6,0.2,0.6,0.9,0.4,1.3c-0.2,0.4-0.5,0.8-0.7,1.2
			c-0.1,0.1-0.2,0.5-0.3,0.6c-0.2,0.5,0.1,0.6,0.4,0.3c0.5-0.5,1.1-1.5,1.4-2l0.2,0.2c-0.3,0.4-0.8,1.4-1.6,2.3
			c-0.4,0.4-0.9,0.6-1.2,0.4c-0.4-0.2-0.3-1,0.1-1.5l0.1-0.2l0.7-1.3C499.3,293.2,499.1,292.8,498.6,293z M483.9,294.1L483.9,294.1
			C484,294.1,484,294.1,483.9,294.1c0.1,0.1,0,0.2,0,0.3c-0.1,0.1-0.3,0.2-0.4,0.1l-1.2,2.3h-1l1.9-3.5c0-0.1,0-0.2-0.1-0.2
			c-0.1,0-0.2,0.1-0.3,0.2c-0.3,0.4-0.6,0.9-0.9,1.3l-0.2-0.3c0.3-0.4,0.7-1,0.9-1.4c0.2-0.3,0.7-0.7,1.1-0.5
			c0.2,0.1,0.3,0.3,0.3,0.5v0.1c0,0,0-0.1,0.1-0.1c0.3-0.2,0.7-0.5,1.1-0.5c0.2,0,0.4,0,0.5,0.1c0,0,0,0,0,0.1l-0.4,0.7
			c0,0,0,0-0.1,0c-0.1-0.2-0.2-0.2-0.3-0.3c-0.5-0.1-0.9,0.2-1.1,0.5l-0.2,0.4C483.8,293.9,483.8,294.2,483.9,294.1z M477.3,297.2
			c-1.6-0.1-2.1-1.7-1.2-3.7c0.9-2.1,2.9-3.8,4.5-3.8c1.6,0,2.1,1.3,1.2,3.7C481,295.5,479.3,297.2,477.3,297.2z M488.1,282.8v-0.6
			h10.2c0.1-0.3,0.4-0.5,0.8-0.5c0.4,0,0.8,0.4,0.8,0.8c0,0.5-0.4,0.8-0.8,0.8c-0.4,0-0.6-0.2-0.8-0.5H488.1z M481.1,270.9
			c0.3,0,0.6,0,0.9,0.1c0.2-0.2,0.4-0.5,0.6-0.7c0.1-1.7,0.2-3.4,0.4-5c-0.2-0.2-0.3-0.3-0.5-0.5c-0.3,0-0.7,0-1-0.1
			c0-0.4,0.1-0.9,0.1-1.3c2.2,0.1,4.4,0.3,6.6,0.6c0,0.2,0,0.4-0.1,0.5c1.5,1.6,2.9,3.3,4.2,4.9c0.2-1,0.3-2.1,0.5-3.1
			c-0.1-0.2-0.3-0.4-0.4-0.5c-0.4-0.1-0.8-0.1-1.2-0.2c0.1-0.4,0.1-0.8,0.2-1.3c1.7,0.2,3.4,0.5,5.1,0.8c-0.1,0.4-0.2,0.8-0.2,1.3
			c-0.3-0.1-0.7-0.1-1-0.2c-0.2,0.1-0.4,0.2-0.6,0.4c-0.4,2.3-0.8,4.7-1.2,7c-1.2-0.2-2.4-0.4-3.7-0.6c0-0.2,0-0.3,0.1-0.5
			c-1.6-2-3.3-3.9-5.1-5.9c-0.1,1.2-0.2,2.4-0.3,3.7c0.2,0.3,0.3,0.5,0.5,0.8c0.5,0,0.9,0.1,1.4,0.1c0,0.4-0.1,0.9-0.1,1.3
			c-1.7-0.2-3.4-0.3-5-0.4C481,271.8,481.1,271.3,481.1,270.9z M479.8,263.3c-0.1,1.1-0.1,2.1-0.2,3.2c-0.5,0-1.1,0-1.6-0.1
			c0-0.3,0-0.6,0-0.8c-0.5-0.4-1.1-0.8-1.6-1.2c-1,0-2.1,0-3.1,0c0,0.8,0,1.5,0,2.3c0.3,0,0.6,0,0.9,0c0.3-0.4,0.6-0.8,0.9-1.2
			c0.4,0,0.8,0,1.1,0c0,1.2,0,2.5-0.1,3.7c-0.4,0-0.7,0-1.1,0c-0.3-0.4-0.6-0.9-0.9-1.3c-0.3,0-0.6,0-0.9,0c0,0.9,0,1.8,0,2.8
			c0.9,0,1.8,0,2.7,0c0.7-0.5,1.4-1,2.1-1.4c0-0.2,0-0.5,0-0.7c0.5,0,1.1,0,1.6,0.1c-0.1,1.2-0.1,2.3-0.2,3.5
			c-3.9-0.2-7.8-0.2-11.8,0c0-0.4,0-0.9-0.1-1.3c0.3,0,0.7,0,1,0c0.2-0.2,0.3-0.3,0.5-0.5c-0.1-1.8-0.1-3.6-0.2-5.3
			c-0.2-0.1-0.4-0.3-0.5-0.4c-0.3,0-0.7,0-1,0c0-0.4,0-0.9-0.1-1.3C471.5,263.1,475.7,263.1,479.8,263.3z M461,279.5l12.7-1.6
			l13,1.6v5.9l-13.1,1.7l-12.7-1.7V279.5z M471.9,296.8c-0.1-0.2-0.1-0.4,0-0.5c0.1-0.3,0.3-0.5,0.6-0.5c0.4,0,0.2,0.5,0.1,0.8
			c-0.2,0.4-0.5,0.7-1,0.8l-0.2,0l0.1-0.1l0.1,0c0.1,0,0.3-0.1,0.4-0.2C472,297,472,296.9,471.9,296.8z M460.6,292.6l0.1-0.2h0.9
			l-2.3,4.1c0,0,0.4-0.2,0.6-0.3c0.3-0.2,0.5-0.5,0.8-0.8c0,0,0-0.1,0-0.1c0.2-1,0.9-2,1.7-2.6c0.3-0.2,0.8-0.4,1.2-0.4
			c0.7,0,0.8,0.7,0.6,1.2c-0.5,0.9-1.3,1.4-1.8,1.5c-0.6,0.1-0.7-0.3-0.7-0.3s-0.1,0.1-0.1,0.3c-0.1,0.5,0,1,0.4,1
			c0.7,0.1,1.1-0.3,1.7-1.1c0.1-0.2,0.3-0.3,0.4-0.5l0-0.1c0.3-0.4,0.7-1,0.9-1.4c0.2-0.3,0.7-0.7,1.1-0.6c0.2,0.1,0.3,0.3,0.3,0.5
			c0.1-0.1,0.3-0.3,0.4-0.3c0.4-0.2,0.6-0.2,0.9-0.1c0.6,0.2,0.6,0.9,0.4,1.3c-0.2,0.4-0.5,0.8-0.7,1.2c-0.1,0.1-0.2,0.5-0.3,0.6
			c-0.2,0.5,0,0.6,0.4,0.3c0.3-0.3,0.5-0.7,0.8-1c0.3-0.8,0.9-1.6,1.6-2.1c0.3-0.2,0.8-0.4,1.2-0.4c0.7,0,0.8,0.7,0.6,1.2
			c-0.5,0.9-1.3,1.4-1.8,1.5c-0.6,0.1-0.7-0.3-0.7-0.3s-0.1,0.1-0.1,0.3c-0.1,0.5,0,1,0.4,1c0.7,0.1,1.1-0.3,1.7-1.1
			c0.4-0.5,0.7-1,0.7-1l0.2,0.2c0,0-1.5,3-3.1,2.7c-0.7-0.1-1-0.6-1-1.2c-0.2,0.3-0.4,0.5-0.6,0.8c-0.4,0.4-0.9,0.6-1.2,0.4
			c-0.4-0.2-0.3-1,0-1.5l0.1-0.2l0.7-1.3c0.3-0.5,0.1-1-0.4-0.8c-0.4,0.2-0.7,0.9-0.7,0.9c-0.1,0.1,0,0.3,0.1,0.3l0,0
			c0,0,0.1,0,0.1,0c0,0.1-0.1,0.2-0.1,0.2c-0.1,0.1-0.3,0.2-0.5,0.1l-1.2,2.3h-0.9l1.9-3.5c0.1-0.1,0.1-0.2,0-0.3
			c-0.1,0-0.2,0.1-0.3,0.2c-0.2,0.2-0.4,0.5-0.5,0.8l0.1,0.1c0,0-1.5,3-3.1,2.7c-0.6-0.1-0.9-0.5-0.9-0.9c-0.2,0.3-0.5,0.6-0.7,0.7
			c-0.3,0.2-0.7,0.4-1,0.5l-0.5,0.8c-0.4,0.7-0.8,1-1.5,1.2c-0.7,0.1-1.3-0.3-1.2-1c0.1-0.5,0.9-0.8,1.4-1c0.3-0.1,0.6-0.2,0.9-0.3
			l0.3-0.5c-0.3,0.2-0.5,0.3-0.6,0.3c-0.5,0-0.8-0.4-0.8-0.8c0,0,0-0.1,0-0.1c-0.2,0.2-0.4,0.5-0.6,0.7c-0.4,0.4-0.9,0.6-1.2,0.4
			c-0.2-0.2-0.3-0.5-0.2-0.9c-0.2,0.1-0.3,0.3-0.6,0.5c-0.5,0.4-0.9,0.6-1.2,0.4c-0.4-0.2-0.3-1,0-1.5l1.5-2.8h0.9l-1.1,2
			c0,0.1,0,0.3,0.1,0.3c0,0,0.1,0,0.1,0c0,0-0.1,0.2-0.1,0.2c-0.1,0.1-0.4,0.2-0.5,0.1c-0.1,0.2-0.1,0.3-0.2,0.4
			c-0.2,0.5,0,0.7,0.4,0.4c0.7-0.5,0.9-0.8,1.1-1.1l1.2-2.3h0.9l-1.1,2c-0.1,0.1,0,0.3,0.1,0.3c0.1,0,0.1,0,0.1,0
			c0,0-0.1,0.2-0.1,0.2c-0.1,0.1-0.4,0.2-0.5,0.1c-0.1,0.2-0.1,0.3-0.2,0.4c-0.2,0.5,0.1,0.7,0.4,0.3c0.2-0.2,0.4-0.5,0.6-0.8
			c0.1-0.2,0.1-0.5,0.2-0.7c0.5-1.1,1.4-2.1,2.6-2C460.2,292.4,460.4,292.4,460.6,292.6z M451.9,292.5h0.4c0,0,0.1,0,0,0.1l-0.1,0.3
			c0,0-0.1,0.1-0.1,0.1h-0.7c-1.2,0-1.9,0.8-2.2,1.8c-0.2,0.7,0,1.6,1.1,1.8c1,0.2,1.8-0.7,1.5-1.6c-0.1-0.3-0.5-0.4-0.7-0.1
			c0,0-0.1,0-0.1,0c-0.1-0.7,0.7-1,1.2-0.8c0.8,0.3,0.9,1.3,0.4,2c-0.5,0.9-1.6,1.2-2.6,1.1c-1.6-0.1-2.5-1.3-2.2-2.5
			c0.3-1.2,1.4-1.8,2.6-2l0.2,0c-0.2-0.1-0.3-0.2-0.4-0.4c0,0-0.4,0-0.8-0.1c-0.4-0.1-0.8-0.2-1-0.5c-0.3-0.4-0.5-0.9-0.1-1.3
			c0.3-0.3,0.8-0.4,1.1-0.1c0.1,0.1,0.2,0.3,0.2,0.4c0,0.1,0,0.2-0.1,0.3c0,0-0.1,0-0.1-0.1c0-0.1-0.1-0.1-0.2-0.1
			c-0.2,0-0.3,0.2-0.2,0.3c0,0.3,0.2,0.5,0.7,0.6c0.4,0.1,0.6,0.1,0.6,0.1s-0.1-0.3,0-0.7c0.3-1.2,1.4-1.5,2.4-1.5
			c0.7,0,1.7,0.2,1.7,1c0,0.6-0.6,1-1.1,1.2c-0.5,0.2-1.1,0.3-1.6,0.4l-0.2,0C451.4,292.4,451.6,292.5,451.9,292.5z M447.9,282.5
			c0-0.4,0.4-0.8,0.8-0.8c0.3,0,0.6,0.2,0.8,0.5h10.2v0.6h-10.2c-0.1,0.3-0.4,0.5-0.8,0.5C448.3,283.3,447.9,283,447.9,282.5z
			 M458.9,264c0.1,1.1,0.3,2.1,0.4,3.2c-0.5,0.1-1.1,0.1-1.6,0.2c0-0.3-0.1-0.5-0.1-0.8c-0.6-0.3-1.2-0.6-1.8-0.9
			c-1,0.2-2.1,0.3-3.1,0.5c0.1,0.8,0.3,1.5,0.4,2.3c0.3-0.1,0.6-0.1,0.9-0.2c0.2-0.4,0.5-0.9,0.7-1.3c0.4-0.1,0.8-0.1,1.1-0.2
			c0.2,1.2,0.4,2.4,0.5,3.7c-0.4,0.1-0.7,0.1-1.1,0.2c-0.4-0.4-0.7-0.8-1.1-1.1c-0.3,0-0.6,0.1-0.9,0.2c0.2,0.9,0.3,1.8,0.5,2.7
			c0.9-0.2,1.7-0.3,2.6-0.4c0.6-0.6,1.2-1.2,1.9-1.8c0-0.2-0.1-0.5-0.1-0.7c0.5-0.1,1.1-0.1,1.6-0.2c0.1,1.2,0.3,2.3,0.4,3.5
			c-3.9,0.5-7.8,1.1-11.6,2c-0.1-0.4-0.2-0.8-0.3-1.3c0.3-0.1,0.6-0.1,1-0.2c0.1-0.2,0.3-0.4,0.4-0.6c-0.4-1.7-0.7-3.5-1.1-5.2
			c-0.2-0.1-0.4-0.2-0.6-0.4c-0.3,0.1-0.7,0.1-1,0.2c-0.1-0.4-0.2-0.8-0.3-1.3C450.6,265.2,454.7,264.5,458.9,264z M433.7,269.7
			c0.1,0.2,0.1,0.3,0.2,0.5c1.3,0.9,2.6,1.9,3.9,2.8c0.5-1.5,0.9-3,1.5-4.5c-0.1-0.2-0.1-0.4-0.2-0.5c2-0.6,4-1.1,6-1.6
			c0.1,0.4,0.2,0.8,0.3,1.3c-0.3,0.1-0.7,0.2-1,0.2c-0.1,0.2-0.3,0.4-0.4,0.6c0.4,1.7,0.9,3.5,1.3,5.2c0.2,0.1,0.4,0.2,0.6,0.3
			c0.3-0.1,0.6-0.2,1-0.2c0.1,0.4,0.2,0.8,0.3,1.3c-2.2,0.5-4.4,1.1-6.6,1.8c-0.1-0.4-0.2-0.8-0.4-1.2c0.3-0.1,0.6-0.2,0.9-0.3
			c0.1-0.2,0.2-0.4,0.4-0.6c-0.4-1.4-0.8-2.8-1.2-4.3c-0.7,2.2-1.4,4.4-2,6.6c0,0.1,0.1,0.3,0.1,0.4c-0.4,0.1-0.7,0.2-1.1,0.4
			c0-0.1-0.1-0.3-0.1-0.4c-1.7-1.3-3.4-2.5-5.2-3.8c0.4,1.2,0.9,2.4,1.3,3.5c0.2,0.1,0.5,0.3,0.7,0.4c0.3-0.1,0.6-0.2,0.9-0.3
			c0.1,0.4,0.3,0.8,0.4,1.2c-1.4,0.5-2.8,1-4.2,1.6c-0.2-0.4-0.3-0.8-0.5-1.2c0.3-0.1,0.6-0.2,0.9-0.4c0.1-0.3,0.2-0.5,0.2-0.8
			c-0.6-1.6-1.2-3.2-1.8-4.8c-0.2-0.1-0.4-0.2-0.7-0.2c-0.3,0.1-0.6,0.3-1,0.4c-0.2-0.4-0.3-0.8-0.5-1.2
			C429.7,271.2,431.7,270.4,433.7,269.7z M417.3,276.6c1.6-0.8,3.2-1.6,4.8-2.3c0.1,0.2,0.2,0.3,0.2,0.5c2.1,1.6,4.1,3.3,6,5
			c0.2-0.1,0.5-0.2,0.7-0.3c0.2,0.4,0.3,0.8,0.5,1.2c-2.3,0.9-4.5,2-6.8,3c-0.2-0.4-0.4-0.8-0.6-1.2c0.4-0.2,0.9-0.4,1.3-0.6
			c0-0.2,0.1-0.4,0.1-0.7c-0.2-0.2-0.5-0.4-0.7-0.6c-1.3,0.6-2.6,1.3-3.9,1.9c0,0.3,0,0.6,0,0.9c0.2,0.1,0.4,0.2,0.6,0.3
			c0.4-0.2,0.8-0.4,1.2-0.6c0.2,0.4,0.4,0.8,0.6,1.1c-1.4,0.7-2.8,1.5-4.2,2.2c-0.2-0.4-0.4-0.7-0.6-1.1c0.2-0.1,0.5-0.3,0.7-0.4
			c0-2.7,0.1-5.3,0.2-8C417.5,277,417.4,276.8,417.3,276.6z M403.6,284.6c1.5-1,3-2,4.5-2.9c0.6-0.2,1.3-0.3,1.9-0.5
			c-0.1-0.1-0.2-0.3-0.2-0.4c0.5-0.3,1-0.6,1.5-0.9c0.6,1,1.1,2,1.7,3c-0.5,0.3-1.1,0.6-1.6,1c-0.1-0.2-0.2-0.3-0.3-0.5
			c-1,0-2,0-3,0c-0.6,0.4-1.2,0.8-1.8,1.2c-0.2,0.6-0.3,1.2-0.5,1.8c0.8,1.2,1.5,2.3,2.3,3.5c0.5,0.1,0.9,0.1,1.4,0.2
			c0.6-0.4,1.1-0.7,1.7-1.1c0.1-0.2,0.1-0.4,0.2-0.7c-0.3-0.4-0.6-0.9-0.8-1.3c-0.5,0.3-0.9,0.6-1.4,0.9c-0.2-0.4-0.5-0.7-0.7-1.1
			c2.1-1.3,4.1-2.6,6.3-3.8c0.2,0.4,0.4,0.7,0.6,1.1c-0.4,0.2-0.7,0.4-1.1,0.6c0.6,1,1.1,1.9,1.7,2.9c-0.5,0.3-1,0.6-1.5,0.9
			c-0.1-0.2-0.3-0.4-0.4-0.6c-0.5,0.6-1,1.2-1.5,1.9c-1.3,0.8-2.6,1.7-3.9,2.5c-1.3,0.3-2.7,0.7-4,1c-1.1-1.6-2.3-3.1-3.4-4.7
			C402,287.1,402.8,285.9,403.6,284.6z M550.9,306.1c-0.5,0-1-0.3-1.2-0.8H398.2c-0.2,0.5-0.6,0.8-1.2,0.8c-0.7,0-1.2-0.6-1.2-1.2
			c0-0.7,0.6-1.2,1.2-1.2c0.5,0,1,0.3,1.2,0.8h151.6c0.2-0.5,0.6-0.8,1.2-0.8c0.7,0,1.2,0.6,1.2,1.2
			C552.1,305.5,551.6,306.1,550.9,306.1z"/>
		<path fill="none" d="M439.8,247.2c0.3-0.5,0.5-0.4,0.6,0.2c0.2,1.3,0.8,3,2,3.7c1.1,0.6,1.7,0.1,1.9-0.3c-0.2-0.1-0.5-0.3-0.5-0.5
			c-0.2-0.6,0.4-1,0.9-1c0.7,0,1.2,0.7,1.3,1.3c0.1,0.6-0.3,1.2-0.8,1.5c-0.6,0.4-1.5,0.5-2.2,0.3c1.2,0.7,2.7,1.1,4.4,0.7
			c2.8-0.6,4.3-2,4.2-3.8c0-0.5-0.2-1-0.5-1.4c-0.6-0.8-1.6-0.5-1.5,0c0.1,0.1,0.1,0.2,0.1,0.4c0,0.6-0.5,1-1,0.9
			c-0.6-0.1-1-0.9-0.7-1.5c0.3-0.7,1.2-1.4,2.4-1.3c1.2,0.1,2.3,1.4,2.3,2.9c0,0.2,0,0.4,0,0.8c0.8-0.2,1.6-0.3,2.2,0
			c0.7,0.2,1.2,0.7,1.6,1.3c0.1,0,0.1-0.1,0.2-0.1c0-1.1,0.6-2.3,1.7-3.2c1.2-0.9,2.7-1.2,4.1-0.8c0.2,0.1,0.3,0.2,0.3,0.4
			c0.2,1.3,0,2.7-0.8,3.8c-0.5,0.8-1.3,1.4-2.2,1.7c0.4,0.4,0.6,0.7,0.8,0.9c2.1-0.9,5.5-2,8.8-2.3c1.8-0.2,2.8-0.1,3.5,0.1
			c0.5,0.1,0.8,0.4,1,0.8c0.2-0.4,0.5-0.7,1-0.8c0.7-0.2,1.7-0.2,3.5-0.1c3.3,0.3,6.7,1.4,8.8,2.3c0.2-0.2,0.4-0.5,0.8-0.9
			c-0.9-0.3-1.6-0.9-2.2-1.7c-0.7-1.1-1-2.5-0.8-3.8c0-0.2,0.2-0.3,0.3-0.4c1.4-0.5,2.9-0.2,4.1,0.8c1,0.8,1.6,2,1.7,3.2
			c0.1,0,0.1,0,0.2,0.1c0.4-0.6,0.9-1.1,1.6-1.3c0.7-0.2,1.5-0.2,2.2,0c0-0.3,0-0.6,0-0.8c0.1-1.5,1.1-2.8,2.3-2.9
			c1.2-0.1,2.1,0.6,2.4,1.3c0.3,0.6-0.1,1.5-0.7,1.5c-0.5,0.1-1.1-0.3-1-0.9c0-0.1,0-0.3,0.1-0.4c0-0.5-0.9-0.8-1.6,0
			c-0.3,0.4-0.5,0.9-0.5,1.4c-0.1,1.8,1.5,3.2,4.2,3.8c1.7,0.3,3.2,0,4.4-0.7c-0.8,0.2-1.6,0.1-2.2-0.3c-0.5-0.3-0.8-0.9-0.8-1.5
			c0.1-0.7,0.6-1.3,1.3-1.3c0.5,0,1,0.4,0.9,1c-0.1,0.2-0.3,0.4-0.5,0.5c0.3,0.5,0.9,0.9,1.9,0.3c1.2-0.7,1.9-2.4,2-3.7
			c0.1-0.6,0.3-0.7,0.6-0.2c0.1-1.4-0.2-3.1-1.1-4.6c0.1,0.5,0.1,1.1-0.1,1.5c-0.3,0.7-0.8,1.2-1.5,1.4c-0.7,0.3-1.5,0.2-2.1-0.1
			c-0.6-0.3-0.9-0.9-0.8-1.5c0.1-0.5,0.4-0.9,0.9-0.9c0.4,0,0.8,0.3,0.8,0.7c0,0.1,0,0.2-0.1,0.3c0.4,0.4,1.5,0.4,1.9-0.3
			c1-1.9-1.4-3.3-2.8-4.1c-0.4-0.2-0.3-0.4,0.5-0.6c-0.1-0.1-0.1-0.1-0.2-0.1c-1.5-0.9-3.3-1.8-5.3-2.6c-3.2-1.2-7-2.3-11.2-2.9
			c-4-0.7-8.4-1-13-1c-4.6,0-8.9,0.4-13,1c-4.2,0.7-8,1.7-11.2,2.9c-2,0.8-3.7,1.6-5.3,2.6c-0.1,0-0.1,0.1-0.2,0.1
			c0.8,0.2,0.9,0.4,0.5,0.6c-1.4,0.7-3.8,2.2-2.8,4.1c0.4,0.7,1.4,0.7,1.9,0.3c0-0.1-0.1-0.2-0.1-0.3c0-0.4,0.3-0.7,0.8-0.7
			c0.5,0,0.8,0.4,0.9,0.9c0.1,0.6-0.3,1.2-0.8,1.5c-0.6,0.3-1.5,0.3-2.2,0.1c-0.7-0.2-1.2-0.8-1.5-1.4c-0.2-0.5-0.2-1-0.1-1.5
			C439.9,244.2,439.6,245.8,439.8,247.2z"/>
		<path fill="none" d="M419.1,277.6c0,1.2,0,2.4,0,3.6c0.9-0.5,1.8-0.9,2.8-1.4C420.9,279.1,420,278.3,419.1,277.6z"/>
		<path fill="none" d="M459,293.4c-0.5,0.6-1,1.4-1,2c0.1,0.9,0.9,0.2,1.2-0.3c0.1-0.3,0.3-0.5,0.4-0.8l0-0.1
			c-0.2,0.1-0.5-0.1-0.4-0.3c0,0,0-0.1,0,0c0.2,0.1,0.5-0.1,0.7-0.3c0.1-0.2,0.2-0.5,0-0.7C459.7,292.8,459.3,293.1,459,293.4z"/>
		<path fill="none" d="M453.7,290.5c0-0.5-0.4-0.6-1-0.6c-0.7,0-1.4,0.6-1.5,1.4c0,0.1,0,0.2,0,0.4c0,0,0.7,0,1.7-0.3
			C453.3,291.2,453.7,290.9,453.7,290.5z"/>
		<polygon fill="none" points="473.9,283.3 474.9,283.8 474.7,282.7 475.5,282 474.4,281.8 473.9,280.9 473.4,281.8 472.3,282 
			473.1,282.8 473,283.8 		"/>
		<path fill="none" d="M389.8,163.9c0.8-0.7,1.5-1.2,2.1-1.5v-1.7c-0.4-0.3-0.8-0.7-1-1.2c-0.3,0.3-0.7,0.5-1,0.8
			c-2.6,2.4-3.9,3.1-5.4,3v8.4c0.5-1.6,1.3-3.1,2.4-4.5C387.6,166.1,388.7,165,389.8,163.9z"/>
		<path fill="none" d="M386.7,299.2c-1-1.4-1.8-2.9-2.4-4.5v8.4c1.5-0.1,2.8,0.6,5.4,3c0.3,0.3,0.7,0.6,1,0.8c0.3-0.4,0.6-0.8,1-1.2
			V304c-0.6-0.3-1.3-0.8-2.1-1.5C388.7,301.5,387.6,300.4,386.7,299.2z"/>
		<polygon fill="none" points="367.5,237.9 368.1,237.9 368.1,237.5 368.7,237 369,237 369,239.2 368.8,239.4 368.2,239.4 
			368.2,239.9 371.2,239.9 371.2,239.4 370.7,239.4 370.5,239.2 370.5,237 370.8,237 371.3,237.5 371.3,237.9 371.9,237.9 
			371.9,236.5 367.5,236.5 		"/>
		<polygon fill="none" points="370,234.4 369.3,234.4 368.4,233.8 368.3,233.6 367.7,233.6 367.7,234.9 368.3,234.9 368.3,234.7 
			368.8,234.9 370.6,234.9 371.8,234.3 371.8,233.1 370.6,232.5 369.7,232.5 369.2,232.3 369.2,232 369.4,231.9 370.2,231.9 
			371,232.3 371.1,232.5 371.6,232.5 371.6,231.4 371.1,231.4 371.1,231.6 370.5,231.4 368.9,231.4 367.7,231.9 367.7,233.1 
			369,233.7 369.9,233.7 370.4,233.9 370.4,234.2 		"/>
		<path fill="none" d="M480.3,291.3c-0.1,0.3,0.3,0.5,0.6,0.3c0.4-0.2,0.5-0.7,0.3-1.1c-0.1-0.2-0.3-0.3-0.5-0.3c-0.5,0-1,0.3-1.6,1
			c-0.7,0.7-1.3,1.6-1.7,2.7c-0.2,0.6-0.3,1.1-0.4,1.6c0,0.7,0.2,1.1,0.6,1.1c0.5,0,1-0.3,1.6-1c0.7-0.7,1.3-1.6,1.7-2.6
			c0.1-0.2,0.2-0.6,0.2-0.6c-0.7,0.2-1.3-0.6-0.8-1.1C480.2,291.3,480.3,291.3,480.3,291.3z"/>
		<polygon fill="none" points="371.8,228.5 371.3,228.5 371.3,228.7 370.5,229.3 369.5,229.3 369.5,228.2 369.8,228.2 370.2,228.7 
			370.6,228.7 370.6,227.3 370.2,227.3 369.8,227.8 369.5,227.8 369.5,226.9 370.6,226.9 371.2,227.3 371.2,227.6 371.8,227.6 
			371.8,226.4 367.5,226.4 367.5,226.9 367.8,226.9 368,227 368,229.1 367.8,229.3 367.5,229.3 367.5,229.8 371.8,229.8 		"/>
		<path fill="none" d="M494.4,292.9c-0.3-0.2-1,0.5-1.2,0.8c-0.2,0.3-0.7,0.9-0.9,1.8c-0.2,0.9,0.1,1,0.7,0.6c0.2-0.1,0.6-0.6,0.8-1
			c0.3-0.5,0.4-0.7,0.4-0.7c-0.2,0.1-0.4,0-0.5-0.3c0,0,0-0.1,0.1,0c0.2,0.1,0.4-0.1,0.6-0.3C494.5,293.5,494.6,293,494.4,292.9z"/>
		<path fill="none" d="M490.3,294.3c-0.2,0.1-0.5-0.1-0.4-0.3c0,0,0-0.1,0,0c0.2,0.1,0.5-0.1,0.7-0.3c0.1-0.2,0.2-0.5,0-0.7
			c-0.2-0.2-0.6,0.1-0.9,0.4c-0.5,0.6-1,1.4-1,2c0.1,0.9,0.9,0.2,1.2-0.3C490,294.8,490.2,294.6,490.3,294.3L490.3,294.3z"/>
		<path fill="none" d="M558.2,302.5c-0.8,0.7-1.5,1.2-2.1,1.5v1.7c0.4,0.3,0.8,0.7,1,1.2c0.3-0.3,0.7-0.5,1-0.8
			c2.6-2.4,3.9-3.1,5.4-3v-8.4c-0.5,1.6-1.3,3.1-2.4,4.5C560.3,300.4,559.3,301.5,558.2,302.5z"/>
		<path fill="none" d="M487.2,298.4c0.3,0.3,1-0.3,1.2-0.7l0.2-0.4c0,0-0.4,0.1-0.7,0.2C487.6,297.6,486.9,298.1,487.2,298.4z"/>
		<path fill="none" d="M486.7,294.4c0.4-0.3,1.1-1.3,0.6-1.4c-0.4-0.1-1,0.4-1.3,1c0,0,0.2,0.1,0.1,0.3c0,0,0,0.1-0.1,0
			c0,0-0.1,0-0.1,0c-0.1,0-0.2,0.2-0.1,0.3C486.1,294.7,486.4,294.6,486.7,294.4z"/>
		<path fill="none" d="M577.2,228.9l-1.2,0.6v2.5l1,0.5h2.2l1.2-0.6v-2.5l-1-0.5H577.2z M578.9,231.6l-0.3,0.3h-0.7l-0.3-0.3v-1.8
			l0.3-0.3h0.7l0.3,0.3V231.6z"/>
		<polygon fill="none" points="580.1,226.2 579.6,226.2 579.6,226.5 579.4,226.7 577.7,226.7 577.1,226.8 577.3,226.5 580,225.7 
			580,224.6 579,224.2 577.3,224.2 576.2,224.7 576.2,225.3 576.6,225.5 577.2,225.5 577.6,225.3 577.6,224.9 577.7,224.7 
			578.2,224.7 578.5,225 578.5,225.5 576.7,226.1 576.2,227 576.2,227.7 580.1,227.7 		"/>
		<path fill="none" d="M557.1,159.5c-0.3,0.4-0.6,0.8-1,1.2v1.7c0.6,0.3,1.3,0.8,2.1,1.5c1.1,1,2.2,2.1,3,3.3c1,1.4,1.8,2.9,2.4,4.5
			v-8.4c-1.5,0.1-2.8-0.6-5.4-3C557.8,160.1,557.4,159.8,557.1,159.5z"/>
		<path fill="none" d="M450.2,169.2c-3,0-3.6,1.9-3.6,5.5c-0.2,14.1-0.4,28.2-0.6,42.3c-0.1,3.9,0.9,4.7,3.6,4.3
			c2.7-0.4,3.7-1.4,3.7-5.3c0.1-13.8,0.3-27.6,0.4-41.4C453.8,171,453.2,169.2,450.2,169.2z"/>
		<path fill="none" d="M487.8,169.2c-3,0-3.6,1.8-3.5,5.3c0.1,13.6,0.2,27.1,0.2,40.7c0,3.8,1,4.8,3.7,5c2.7,0.2,3.7-0.6,3.6-4.4
			c-0.1-13.7-0.3-27.4-0.4-41.1C491.4,171,490.8,169.2,487.8,169.2z"/>
		<path fill="none" d="M562,179.7c-1.6,0.1-2.2-2.5-0.9-2.9c0.3,0.9,1.3,0.7,1.5,0.2c0.2-0.4,0.3-1.5,0.1-3
			c-0.4-2.3-1.3-4.4-2.7-6.3c-0.8-1-1.7-2-2.7-2.8c-0.7-0.6-1.5-1.2-2.4-1.8V160c0.3-0.2,0.7-0.6,1.1-1.2c-1.8-1-3.5-1.3-5.2-1.4
			V156h-65.7h-22.4h-65.7v1.5c-1.7,0.1-3.4,0.3-5.2,1.4c0.4,0.6,0.8,1,1.1,1.2v3.1c-0.9,0.6-1.7,1.2-2.4,1.8c-1,0.8-1.9,1.8-2.7,2.8
			c-1.4,1.8-2.3,4-2.7,6.3c-0.2,1.5-0.1,2.6,0.1,3c0.2,0.5,1.2,0.8,1.5-0.2c1.3,0.4,0.6,2.9-0.9,2.9c-0.6,0-1.1-0.2-1.5-0.7l0,74.9
			c0.6,0,1.2,0,1.7,0.1c2.5,0.2,4.4,0.8,5.8,1.6c0.6-1.6,1.5-3.1,2.6-4.4c3.5-4.2,9.4-6.8,15.1-7c3.3-0.1,6.6,0.4,8.7,2.7
			c0.7,0.8,1.2,2,1.2,3.1c0,1-0.5,2.1-1.3,2.7c-0.3,0.2-0.8,0.3-1.1,0.2c-0.4-0.2-0.5-0.6-0.9-0.9c-1.2-0.9-2.7-1.1-4.2-0.5
			c-2.1,0.8-3.6,2.8-3.3,5c0.2,1.5,1.2,2.5,2.6,3.1c1.6,0.8,3.4,0.9,5.2,0.8c3.8-0.3,7.5-1.9,11-3.6c4.1-2,8-4.4,12-6.8
			c0-0.1-0.1-0.2-0.1-0.3c-0.3-0.8-0.5-1.6-0.6-2.6c-0.3,0.3-0.6,0.4-0.9,0.4c-0.8-0.1-0.9-0.7-0.8-1c0.1-0.4,0.8-0.5,0.9-0.3
			c0.1,0.2,0.6-0.6,0.9-1.3c0.5-2.3,1.9-4.7,4.9-6.6c1.4-0.9,2.9-1.6,4.7-2.4c3.3-1.4,7.2-2.4,11.5-3.2c1.3-0.2,2.7-0.4,4.1-0.6
			c-1.8-0.3-3.7-1.4-3.6-3.4c0.1-1.4,1.4-2.1,2.7-2c0.7,0.1,1.3,0.6,1.2,1.3c0,0.4-0.4,0.9-0.9,0.9c-0.5,0-0.9-0.3-0.9-0.7
			c-0.5,0.1-0.9,0.6-0.5,1.4c0.6,1.1,2.4,1.3,3.5,1.4c1.6,0.2,3.4,0.2,4.9-0.4c2.9-1,2.8-2.7,2.5-3.6c-0.1-0.3-0.2-0.5-0.5-0.7
			c-0.5-0.2-0.9-0.2-0.9,0.1c0.1,0.1,0.2,0.3,0.2,0.5c0,0.4-0.4,0.8-0.9,0.8c-0.5,0-0.9-0.5-0.9-0.9c-0.2-0.8,0.2-1.4,1-1.7
			c1.1-0.5,2.5,0.1,3.1,1.1c0.6-1,1.9-1.6,3.1-1.1c0.7,0.3,1.2,1,1,1.7c-0.1,0.4-0.5,0.9-0.9,0.9c-0.5,0-0.9-0.4-0.9-0.8
			c0-0.2,0.1-0.4,0.2-0.5c-0.1-0.3-0.4-0.4-0.9-0.1c-0.3,0.1-0.4,0.4-0.5,0.7c-0.3,0.9-0.4,2.6,2.5,3.6c1.5,0.5,3.3,0.6,4.9,0.4
			c1.1-0.2,2.9-0.4,3.5-1.4c0.5-0.8,0-1.3-0.5-1.4c-0.1,0.4-0.5,0.7-1,0.7c-0.5,0-0.8-0.5-0.9-0.9c-0.1-0.7,0.5-1.3,1.2-1.3
			c1.3-0.1,2.6,0.6,2.7,2c0.1,2-1.7,3-3.6,3.4c1.4,0.2,2.7,0.4,4.1,0.6c4.3,0.8,8.1,1.8,11.5,3.2c1.8,0.7,3.3,1.5,4.7,2.4
			c3,1.9,4.5,4.3,4.9,6.6c0.2,0.7,0.7,1.5,0.9,1.3c0.1-0.3,0.8-0.2,0.9,0.3c0.1,0.4,0,1-0.8,1c-0.3,0-0.6-0.1-0.9-0.4
			c-0.1,0.9-0.3,1.8-0.6,2.6c0,0.1-0.1,0.2-0.2,0.3c4,2.4,7.9,4.7,12,6.7c3.5,1.7,7.2,3.2,11,3.6c1.8,0.2,3.6,0,5.2-0.8
			c1.3-0.6,2.4-1.7,2.6-3.1c0.3-2.1-1.2-4.2-3.3-5c-1.5-0.6-3-0.4-4.2,0.5c-0.3,0.3-0.5,0.7-0.9,0.9c-0.4,0.2-0.8,0.1-1.1-0.2
			c-0.8-0.6-1.3-1.6-1.3-2.7c0-1.1,0.5-2.3,1.2-3.1c2.1-2.3,5.4-2.8,8.7-2.7c5.6,0.2,11.5,2.9,15.1,7c1.1,1.3,2,2.8,2.6,4.4
			c1.4-0.9,3.3-1.4,5.8-1.6c0.6,0,1.2-0.1,1.8-0.1c0-24.9,0-74.9,0-74.9C563.2,179.5,562.6,179.7,562,179.7z M429.5,225.9
			c-11,3.1-21.8,7.3-32.2,12.7c0-0.5,0-1,0-1.5c1.2-0.6,2.3-1.2,3.5-1.7c0.1-21.7,0.1-43.4,0.2-65c-1.2,0-2.4,0-3.7,0.1
			c0-0.5,0-1,0-1.5c6.5,0,13.1-0.1,19.6-0.1c0,0.5,0,0.9,0,1.4c-1.4,0-2.7,0-4.1,0.1c-0.2,20.1-0.4,40.2-0.6,60.2
			c1-0.4,2.1-0.8,3.1-1.2c6.3-2.2,8.2-4.6,13.2-25.9c0.4-0.1,0.9-0.2,1.4-0.2C429.8,210.6,429.6,218.2,429.5,225.9z M449.6,222.4
			c-11.3,1.9-15.7-5.2-15.4-25.6c0.3-20.3,5-28.9,16.1-28.8c11.1,0,15.6,7.9,15.5,26.4C465.7,213,460.9,220.8,449.6,222.4z
			 M488.2,221.2c-11.4-0.9-16.1-8.4-16.1-26.9c0-18.4,4.6-26.3,15.7-26.3c11.1-0.1,15.7,8.2,16,27.7
			C504.1,215.3,499.6,222.4,488.2,221.2z M550.6,238.6c-5.9-3.1-11.9-5.8-18.1-8.1c0-0.5,0-0.9,0-1.4c1.3,0.5,2.5,0.9,3.8,1.4
			c-0.2-18.9-0.4-37.7-0.6-56.6c-0.2,0-0.3,0-0.5,0c-2.7,19.2-5.4,37.3-8,54.6c-1.6-0.5-3.2-1.1-4.8-1.5
			c-3.1-18.7-6.3-36.6-9.4-53.8c-0.2,0-0.4,0-0.6,0c0.2,15.1,0.5,30.2,0.7,45.2c0,3.1,2.2,5,5,6.1c0,0.4,0,0.8,0,1.3
			c-3.8-1.1-7.6-2-11.5-2.7c0-0.4,0-0.8,0-1.2c3.2,0,4.6-1.2,4.5-4.1c-0.2-16-0.5-32-0.7-47.9c-1.3,0-2.6,0-3.9,0c0-0.4,0-0.8,0-1.2
			c5.4,0,10.7,0,16.1,0c2,11.2,3.9,22.8,5.9,34.7c0.2,0,0.4,0.1,0.6,0.1c1.7-11.2,3.4-22.8,5.1-34.8c5.4,0,10.7,0,16.1,0.1
			c0,0.5,0,1,0,1.5c-1.2,0-2.4,0-3.6-0.1c0.1,21.7,0.1,43.3,0.2,65c1.2,0.6,2.4,1.2,3.6,1.8C550.6,237.5,550.6,238.1,550.6,238.6z
			 M550.9,162.8c-0.5,0-1-0.3-1.2-0.8H398.2c-0.2,0.5-0.6,0.8-1.2,0.8c-0.7,0-1.2-0.6-1.2-1.2c0-0.7,0.6-1.2,1.2-1.2
			c0.5,0,1,0.3,1.2,0.8h151.6c0.2-0.5,0.6-0.8,1.2-0.8c0.7,0,1.2,0.6,1.2,1.2C552.1,162.3,551.6,162.8,550.9,162.8z"/>
		<polygon fill="none" points="579.6,240.7 579.4,240.9 577.7,240.9 577.1,241 577.3,240.6 580,239.9 580,238.8 579,238.4 
			577.3,238.4 576.2,238.9 576.2,239.5 576.6,239.7 577.2,239.7 577.6,239.5 577.6,239.1 577.7,238.9 578.2,238.9 578.5,239.2 
			578.5,239.7 576.7,240.3 576.2,241.1 576.2,241.9 580.1,241.9 580.1,240.4 579.6,240.4 		"/>
		<path fill="none" d="M585.8,191.6c-6.8-1.2-12.5-6.3-14.4-12.9c-0.2-0.6-0.3-1.2-0.4-1.9H568v-25.7h-93.5h-1.2h-93.5v25.7h-3.1
			c-0.1,0.7-0.2,1.3-0.4,1.9c-1.9,6.6-7.6,11.7-14.4,12.9v3.1h-5.9v18v41.2v18h5.9v3.1c6.8,1.2,12.5,6.3,14.4,13
			c0.2,0.6,0.3,1.1,0.4,1.8h3.1v25.7h93.5h1.2H568v-25.7h3.1c0.1-0.6,0.2-1.2,0.4-1.8c1.8-6.7,7.6-11.8,14.4-13v-3.1h5.9v-18v-41.2
			v-18h-5.9V191.6z M369.7,199.8c0.6,0,1.1,0.5,1.1,1.1c0,0.5-0.3,0.9-0.7,1v12.6h-0.8v-12.6c-0.4-0.2-0.7-0.5-0.7-1
			C368.6,200.3,369.1,199.8,369.7,199.8z M369.7,267c-0.6,0-1.1-0.5-1.1-1.1c0-0.5,0.3-0.9,0.7-1v-13.3h0.8v13.3
			c0.4,0.2,0.7,0.5,0.7,1C370.8,266.5,370.3,267,369.7,267z M373.6,250.2h-7.9l-2.1-17l2.1-17.4h7.9l2.3,17.5L373.6,250.2z
			 M564.7,267.7v36.6c-2.5-0.5-3.8,0.7-6.1,2.7c-0.3,0.3-0.7,0.6-1,0.8c0.4,1,0.5,2,0.4,2.6h4.7c0.1-0.3,0.5-0.6,0.8-0.7v-1v-0.1
			c0-1.2-1.4-1.3-1.7-0.7c0.2,0,0.6,0.1,0.6,0.7c0,0.6-0.5,0.9-0.8,0.9c-0.3,0-1.1-0.1-1.1-1.6c0-1.1,1.3-1.8,2.3-1.7
			c1,0.1,1.8,1,1.8,2.1v0.3v1.4v0.3c-0.4,0.1-1,0.6-1.2,1.2h-6.7c0.2-1.1,0.1-2.1-0.3-3c-1.4,0.8-2.7,1-4.6,1.4v1.6h-66.7h-22.4H396
			V310c-1.9-0.3-3.3-0.6-4.6-1.4c-0.3,0.9-0.5,1.9-0.3,3h-6.8c-0.2-0.6-0.7-1-1.2-1.2v-0.3v-1.4v-0.3c0-1.1,0.9-2,1.8-2.1
			c1-0.1,2.3,0.5,2.3,1.7c0,1.6-0.8,1.6-1.1,1.6c-0.3,0-0.8-0.3-0.8-0.9c0-0.6,0.4-0.7,0.6-0.7c-0.3-0.6-1.7-0.5-1.7,0.7v0.1v1
			c0.2,0.1,0.6,0.4,0.8,0.7h4.7c-0.1-0.6,0-1.6,0.4-2.6c-0.3-0.2-0.6-0.5-1-0.8c-2.3-2-3.6-3.3-6.1-2.7v-39.2l0-103.1
			c2.5,0.5,3.8-0.7,6.1-2.7c0.3-0.3,0.7-0.6,1-0.8c-0.4-1-0.5-2-0.4-2.6h-4.7c-0.1,0.3-0.5,0.6-0.8,0.7v1v0.1c0,1.2,1.4,1.3,1.7,0.7
			c-0.2,0-0.6-0.1-0.6-0.7c0-0.6,0.5-0.9,0.8-0.9c0.3,0,1.1,0.1,1.1,1.6c0,1.2-1.3,1.8-2.3,1.7c-1-0.1-1.8-1-1.8-2.1v-0.3v-1.4V156
			c0.4-0.1,1-0.6,1.2-1.2h6.7c-0.2,1.1-0.1,2.1,0.3,3c1.4-0.8,2.7-1,4.6-1.4v-1.6h66.8h22.4h66.7v1.6c1.9,0.3,3.3,0.6,4.6,1.4
			c0.3-0.9,0.5-1.9,0.3-3h6.7c0.2,0.6,0.7,1,1.2,1.2v0.3v1.4v0.3c0,1.1-0.8,2-1.8,2.1c-1,0.1-2.3-0.5-2.3-1.7c0-1.6,0.8-1.6,1.1-1.6
			c0.3,0,0.9,0.3,0.8,0.9c0,0.6-0.4,0.7-0.6,0.7c0.3,0.6,1.7,0.5,1.7-0.7v-0.1v-1c-0.2-0.1-0.6-0.4-0.8-0.7h-4.7
			c0.1,0.6,0,1.6-0.4,2.6c0.3,0.2,0.6,0.5,1,0.8c2.3,2,3.6,3.3,6.1,2.7C564.7,162.1,564.8,267.7,564.7,267.7z M578.2,199.6
			c0.6,0,1.1,0.5,1.1,1.1c0,0.5-0.3,0.9-0.7,1v12.6h-0.8v-12.6c-0.4-0.2-0.7-0.5-0.7-1C577.2,200.1,577.6,199.6,578.2,199.6z
			 M578.2,266.8c-0.6,0-1.1-0.5-1.1-1.1c0-0.5,0.3-0.9,0.7-1v-13.3h0.8v13.3c0.4,0.2,0.7,0.5,0.7,1
			C579.3,266.3,578.8,266.8,578.2,266.8z M582.1,250.1h-7.9l-2.1-17l2.1-17.4h7.9l2.3,17.4L582.1,250.1z"/>
		<polygon fill="none" points="578.2,233.6 577.5,233.9 576.6,233.9 576.6,234.4 577.5,234.4 577.5,236.5 577.4,236.6 576.8,236.6 
			576.8,237.1 579.7,237.1 579.7,236.6 579.2,236.6 579,236.5 579,233.6 		"/>
		<path fill="none" d="M542.6,175.4c0-0.6-0.5-1.1-1.1-1.1c-0.6,0-1.1,0.5-1.1,1.1c0,0.5,0.3,0.9,0.7,1v49.4c-0.4,0.2-0.7,0.5-0.7,1
			c0,0.6,0.5,1.1,1.1,1.1c0.6,0,1.1-0.5,1.1-1.1c0-0.5-0.3-0.9-0.7-1v-49.4C542.3,176.3,542.6,175.9,542.6,175.4z"/>
		<path fill="none" d="M407.9,175.4c0-0.6-0.5-1.1-1.1-1.1c-0.6,0-1.1,0.5-1.1,1.1c0,0.5,0.3,0.9,0.7,1v49.4c-0.4,0.2-0.7,0.5-0.7,1
			c0,0.6,0.5,1.1,1.1,1.1c0.6,0,1.1-0.5,1.1-1.1c0-0.5-0.3-0.9-0.7-1v-49.4C407.6,176.3,407.9,175.9,407.9,175.4z"/>
	</g>
	<g>
		<path fill="#FFFFFF" d="M448.8,241.9c0-0.1-0.1-0.2-0.1-0.3c0.1-0.2,0.2-0.5,0.3-0.7c0.1,0,0.2-0.1,0.3-0.1
			c0.3,0.7,0.5,1.4,0.8,2.1c0,0.1-0.1,0.2-0.1,0.2c-0.2,0.1-0.3,0.1-0.5,0.2c0.1,0.2,0.1,0.3,0.2,0.5c0.9-0.4,1.9-0.7,2.8-1
			c-0.1-0.2-0.1-0.3-0.2-0.5c-0.2,0.1-0.3,0.1-0.5,0.2c-0.1,0-0.2-0.1-0.2-0.1c-0.2-0.7-0.5-1.4-0.7-2.1c0.1,0,0.2-0.1,0.3-0.1
			c0.2,0.1,0.5,0.2,0.7,0.3c0,0.1,0.1,0.2,0.1,0.3c0.2-0.1,0.4-0.1,0.6-0.2c-0.1-0.4-0.3-0.9-0.4-1.3c-1.5,0.5-2.9,1-4.4,1.6
			c0.2,0.4,0.3,0.9,0.5,1.3C448.4,242.1,448.6,242,448.8,241.9z"/>
		<path fill="#FFFFFF" d="M453.1,239.5c0.1,0,0.2,0.1,0.2,0.1c0.2,0.6,0.4,1.3,0.6,2c0,0.1-0.1,0.1-0.1,0.2c-0.1,0-0.2,0.1-0.3,0.1
			c0,0.2,0.1,0.3,0.1,0.5c0.8-0.3,1.6-0.5,2.5-0.7c0-0.2-0.1-0.3-0.1-0.5c-0.1,0-0.2,0.1-0.3,0.1c-0.1,0-0.2-0.1-0.2-0.1
			c-0.1-0.2-0.1-0.5-0.2-0.7c0.2-0.1,0.5-0.1,0.7-0.2c0.1,0,0.3,0.1,0.4,0.1c0.1,0.3,0.2,0.6,0.2,0.9c0.3,0,0.5,0.1,0.8,0.1
			c0.5-0.1,0.9-0.2,1.4-0.3c0-0.2-0.1-0.3-0.1-0.5c-0.1,0-0.2,0-0.3,0.1c-0.1,0-0.2-0.1-0.3-0.1c-0.1-0.2-0.1-0.5-0.2-0.7
			c-0.4,0-0.7,0-1.1-0.1c0.3-0.2,0.5-0.4,0.8-0.5c-0.1-0.3-0.2-0.7-0.3-1c-0.3,0-0.7,0-1,0c-1.3,0.3-2.5,0.7-3.8,1.1
			c0,0.2,0.1,0.3,0.1,0.5C452.8,239.6,452.9,239.5,453.1,239.5z M455.5,238.8c0.1,0,0.3,0,0.4,0c0.1,0.2,0.1,0.5,0.2,0.7
			c-0.1,0.1-0.2,0.2-0.3,0.2c-0.2,0.1-0.5,0.1-0.7,0.2c-0.1-0.3-0.2-0.6-0.3-1C455,238.9,455.3,238.9,455.5,238.8z"/>
		<path fill="#FFFFFF" d="M460.8,240.5c0-0.2-0.1-0.3-0.1-0.5c-0.2,0-0.3,0.1-0.5,0.1c-0.1-0.1-0.1-0.1-0.2-0.2
			c0-0.1,0.1-0.2,0.1-0.3c0.5-0.1,1-0.2,1.5-0.3c0.1,0.1,0.1,0.2,0.2,0.3c0,0.1-0.1,0.2-0.1,0.2c-0.2,0-0.3,0.1-0.5,0.1
			c0,0.2,0.1,0.3,0.1,0.5c0.9-0.2,1.8-0.3,2.7-0.5c0-0.2,0-0.3-0.1-0.5c-0.1,0-0.2,0-0.3,0c-0.5-0.8-1.1-1.6-1.7-2.4
			c0-0.1,0-0.1,0-0.2c-0.6,0.1-1.2,0.2-1.9,0.3c0,0.1,0,0.1,0,0.2c-0.3,1-0.6,1.9-0.8,2.9c-0.1,0-0.2,0-0.3,0.1
			c0,0.2,0.1,0.3,0.1,0.5C459.7,240.7,460.2,240.6,460.8,240.5z M460.6,237.7c0.3,0.4,0.5,0.7,0.8,1.1c-0.4,0.1-0.7,0.1-1.1,0.2
			C460.4,238.6,460.5,238.2,460.6,237.7z"/>
		<path fill="#FFFFFF" d="M464.4,237c0.1,0.1,0.1,0.1,0.2,0.2c0.1,0.7,0.2,1.3,0.3,2c-0.1,0.1-0.1,0.1-0.2,0.2c-0.1,0-0.2,0-0.4,0.1
			c0,0.2,0,0.3,0.1,0.5c1.3-0.2,2.6-0.3,3.9-0.5c0.4-0.2,0.8-0.5,1.2-0.7c-0.1-0.7-0.1-1.5-0.2-2.2c-0.5-0.2-0.9-0.3-1.4-0.5
			c-1.3,0.1-2.7,0.3-4,0.5c0,0.2,0,0.3,0.1,0.5C464.1,237,464.2,237,464.4,237z M467.2,236.7c0.1,0.1,0.3,0.2,0.4,0.3
			c0,0.5,0.1,1,0.1,1.5c-0.1,0.1-0.2,0.3-0.4,0.4c-0.3,0-0.7,0.1-1,0.1c-0.1-0.8-0.2-1.5-0.3-2.3
			C466.5,236.7,466.9,236.7,467.2,236.7z"/>
		<path fill="#FFFFFF" d="M470.2,236.4c0.1,0.1,0.1,0.1,0.2,0.2c0,0.7,0.1,1.4,0.1,2c-0.1,0.1-0.1,0.1-0.2,0.2c-0.1,0-0.2,0-0.4,0
			c0,0.2,0,0.3,0,0.5c1.4-0.1,2.9-0.1,4.3-0.1c0-0.4,0-0.9,0-1.3c-0.2,0-0.4,0-0.6,0c0,0.1,0,0.2,0,0.3c-0.3,0.2-0.5,0.4-0.8,0.6
			c-0.3,0-0.7,0-1,0c0-0.4,0-0.7,0-1.1c0.1,0,0.2,0,0.3,0c0.1,0.2,0.2,0.3,0.3,0.5c0.1,0,0.3,0,0.4,0c0-0.5,0-0.9,0-1.4
			c-0.1,0-0.3,0-0.4,0c-0.1,0.2-0.2,0.3-0.3,0.5c-0.1,0-0.2,0-0.3,0c0-0.3,0-0.6,0-0.9c0.4,0,0.7,0,1.1,0c0.2,0.1,0.4,0.3,0.6,0.4
			c0,0.1,0,0.2,0,0.3c0.2,0,0.4,0,0.6,0c0-0.4,0-0.8,0-1.2c-1.5,0-3,0.1-4.5,0.1c0,0.2,0,0.3,0,0.5
			C469.9,236.4,470.1,236.4,470.2,236.4z"/>
		<path fill="#FFFFFF" d="M478.6,238.8c-0.1,0-0.2,0-0.4,0c-0.1-0.1-0.1-0.2-0.2-0.3c0-0.5,0.1-1,0.1-1.4c0.4,0.7,0.8,1.4,1.2,2.1
			c0,0.1,0,0.1,0,0.2c0.1,0,0.3,0,0.4,0c0-0.1,0-0.1,0-0.2c0.5-0.7,1-1.4,1.6-2.1c-0.1,0.6-0.1,1.1-0.2,1.7
			c-0.1,0.1-0.1,0.1-0.2,0.2c-0.1,0-0.2,0-0.3,0c0,0.2,0,0.3,0,0.5c0.8,0.1,1.7,0.2,2.5,0.3c0-0.2,0-0.3,0.1-0.5c-0.1,0-0.2,0-0.4,0
			c-0.1-0.1-0.1-0.1-0.2-0.2c0.1-0.7,0.2-1.4,0.2-2c0.1-0.1,0.1-0.1,0.2-0.2c0.1,0,0.2,0,0.4,0c0-0.2,0-0.3,0.1-0.5
			c-0.7-0.1-1.5-0.2-2.2-0.2c0,0.1,0,0.1,0,0.2c-0.4,0.5-0.7,0.9-1.1,1.4c-0.3-0.5-0.6-1-0.9-1.6c0-0.1,0-0.1,0-0.2
			c-0.8-0.1-1.5-0.1-2.3-0.1c0,0.2,0,0.3,0,0.5c0.1,0,0.2,0,0.4,0c0.1,0.1,0.1,0.1,0.2,0.2c0,0.7-0.1,1.3-0.1,2
			c-0.1,0.1-0.1,0.2-0.2,0.2c-0.1,0-0.2,0-0.4,0c0,0.2,0,0.3,0,0.5c0.5,0,1.1,0,1.6,0.1C478.6,239.1,478.6,239,478.6,238.8z"/>
		<path fill="#FFFFFF" d="M485.4,239.5c-0.2,0-0.3,0-0.5-0.1c0-0.1-0.1-0.2-0.1-0.2c0.1-0.1,0.1-0.2,0.2-0.3c0.5,0.1,1,0.2,1.5,0.3
			c0,0.1,0,0.2,0.1,0.3c-0.1,0.1-0.1,0.1-0.2,0.2c-0.2,0-0.3-0.1-0.5-0.1c0,0.2-0.1,0.3-0.1,0.5c0.9,0.1,1.8,0.3,2.7,0.5
			c0-0.2,0.1-0.3,0.1-0.5c-0.1,0-0.2,0-0.3-0.1c-0.2-1-0.5-1.9-0.7-2.9c0-0.1,0-0.1,0-0.2c-0.6-0.1-1.2-0.2-1.9-0.3
			c0,0.1,0,0.1,0,0.2c-0.6,0.8-1.2,1.6-1.8,2.4c-0.1,0-0.2,0-0.3,0c0,0.2,0,0.3-0.1,0.5c0.6,0.1,1.1,0.2,1.7,0.3
			C485.4,239.9,485.4,239.7,485.4,239.5z M486.1,237.4c0.1,0.4,0.2,0.9,0.3,1.3c-0.4-0.1-0.7-0.1-1.1-0.2
			C485.6,238.1,485.9,237.7,486.1,237.4z"/>
		<path fill="#FFFFFF" d="M491.7,240.8c-0.1,0-0.2-0.1-0.3-0.1c0-0.1-0.1-0.1-0.1-0.2c0.1-0.2,0.1-0.5,0.2-0.7
			c0.2,0.1,0.5,0.1,0.7,0.2c0.1,0.1,0.2,0.2,0.3,0.3c-0.1,0.3-0.2,0.6-0.2,0.9c0.2,0.2,0.4,0.3,0.6,0.5c0.5,0.1,0.9,0.3,1.4,0.4
			c0-0.2,0.1-0.3,0.1-0.5c-0.1,0-0.2-0.1-0.3-0.1c-0.1-0.1-0.2-0.2-0.2-0.3c0.1-0.2,0.1-0.5,0.2-0.7c-0.3-0.2-0.6-0.4-0.9-0.6
			c0.3,0,0.7,0,1-0.1c0.1-0.3,0.2-0.7,0.3-1c-0.3-0.2-0.6-0.4-0.8-0.5c-1.3-0.3-2.5-0.7-3.8-0.9c0,0.2-0.1,0.3-0.1,0.5
			c0.1,0,0.2,0.1,0.4,0.1c0,0.1,0.1,0.1,0.1,0.2c-0.1,0.7-0.3,1.3-0.4,2c-0.1,0-0.1,0.1-0.2,0.1c-0.1,0-0.2-0.1-0.4-0.1
			c0,0.2-0.1,0.3-0.1,0.5c0.8,0.2,1.7,0.4,2.5,0.6C491.6,241.2,491.6,241,491.7,240.8z M491.8,238.4c0.2,0.1,0.5,0.1,0.7,0.2
			c0.1,0.1,0.2,0.2,0.3,0.2c-0.1,0.2-0.1,0.5-0.2,0.7c-0.1,0-0.3,0-0.4,0c-0.2-0.1-0.5-0.1-0.7-0.2
			C491.6,239,491.7,238.7,491.8,238.4z"/>
		<path fill="#FFFFFF" d="M497.3,242.5c-0.1,0-0.2-0.1-0.3-0.1c0-0.1-0.1-0.2-0.1-0.2c0.1-0.2,0.1-0.3,0.2-0.5
			c0.2-0.1,0.5-0.1,0.7-0.2c0.1,0.4,0.2,0.8,0.3,1.3c-0.1,0-0.2-0.1-0.3-0.1c-0.1,0.2-0.1,0.3-0.2,0.5c0.8,0.3,1.5,0.6,2.3,0.9
			c0.1-0.2,0.1-0.3,0.2-0.5c-0.1,0-0.2-0.1-0.3-0.1c-0.2-0.7-0.3-1.5-0.5-2.2c0.3-0.1,0.6-0.1,0.9-0.2c0.2,0.1,0.4,0.1,0.5,0.2
			c0.1-0.2,0.1-0.3,0.2-0.5c-0.7-0.3-1.4-0.5-2-0.8c-0.1,0.2-0.1,0.3-0.2,0.5c0.2,0.1,0.3,0.1,0.5,0.2c0,0,0,0.1,0,0.1
			c-0.6,0.1-1.2,0.3-1.8,0.5c0.1-0.3,0.2-0.6,0.3-0.9c0.1,0,0.2-0.1,0.2-0.1c0.1,0,0.2,0.1,0.4,0.1c0.1-0.2,0.1-0.3,0.2-0.5
			c-0.9-0.3-1.7-0.6-2.6-0.9c0,0.2-0.1,0.3-0.1,0.5c0.1,0,0.2,0.1,0.4,0.1c0,0.1,0.1,0.2,0.1,0.2c-0.2,0.6-0.4,1.3-0.6,1.9
			c-0.1,0-0.2,0.1-0.2,0.1c-0.1,0-0.2-0.1-0.4-0.1c0,0.2-0.1,0.3-0.1,0.5c0.8,0.2,1.6,0.5,2.4,0.8
			C497.2,242.8,497.2,242.7,497.3,242.5z"/>
		<polygon fill="#FFFFFF" points="473.4,243.7 472.3,243.9 473.1,244.7 473,245.7 473.9,245.2 474.9,245.7 474.7,244.6 475.5,243.9 
			474.4,243.7 473.9,242.8 		"/>
		<polygon fill="#FFFFFF" points="468.4,246.5 468,247.5 466.9,247.6 467.7,248.4 467.5,249.5 468.5,248.9 469.4,249.4 469.2,248.4 
			470,247.6 468.9,247.4 		"/>
		<polygon fill="#FFFFFF" points="479.8,247.4 479.3,246.5 478.9,247.5 477.8,247.6 478.6,248.4 478.4,249.5 479.4,248.9 
			480.3,249.4 480.1,248.4 480.9,247.6 		"/>
		<path fill="#FFFFFF" d="M453.1,291.7c0.5-0.2,1.1-0.6,1.1-1.2c0-0.9-1-1-1.7-1c-1,0-2.1,0.3-2.4,1.5c-0.1,0.3,0,0.7,0,0.7
			s-0.2,0-0.6-0.1c-0.5-0.1-0.7-0.3-0.7-0.6c0-0.1,0.1-0.3,0.2-0.3c0.1,0,0.2,0,0.2,0.1c0.1,0.1,0.1,0.1,0.1,0.1
			c0.1-0.1,0.1-0.2,0.1-0.3c0-0.1-0.1-0.3-0.2-0.4c-0.3-0.3-0.8-0.3-1.1,0.1c-0.3,0.4-0.2,0.9,0.1,1.3c0.2,0.3,0.6,0.4,1,0.5
			c0.4,0.1,0.8,0.1,0.8,0.1c0.1,0.2,0.2,0.3,0.4,0.4l-0.2,0c-1.2,0.1-2.3,0.8-2.6,2c-0.3,1.3,0.5,2.4,2.2,2.5c1,0.1,2.1-0.2,2.6-1.1
			c0.4-0.8,0.4-1.7-0.4-2c-0.6-0.2-1.4,0.1-1.2,0.8c0,0.1,0,0.1,0.1,0c0.2-0.3,0.6-0.2,0.7,0.1c0.3,0.9-0.6,1.8-1.5,1.6
			c-1.1-0.2-1.3-1.1-1.1-1.8c0.3-1,0.9-1.8,2.2-1.8h0.7c0,0,0.1,0,0.1-0.1l0.1-0.3c0,0,0-0.1,0-0.1h-0.4c-0.3,0-0.5-0.1-0.6-0.4
			l0.2,0C452.1,292.1,452.6,291.9,453.1,291.7z M451.2,291.7c0-0.1,0-0.2,0-0.4c0.1-0.8,0.9-1.4,1.5-1.4c0.6,0,1,0.1,1,0.6
			c0,0.4-0.4,0.7-0.9,0.9C451.9,291.7,451.2,291.7,451.2,291.7z"/>
		<path fill="#FFFFFF" d="M457.4,294.4c-0.1,0.2-0.2,0.5-0.2,0.7c-0.2,0.3-0.4,0.6-0.6,0.8c-0.3,0.3-0.6,0.2-0.4-0.3
			c0.1-0.1,0.1-0.2,0.2-0.4c0.1,0.1,0.3,0,0.5-0.1c0.1-0.1,0.1-0.2,0.1-0.2c0,0,0-0.1-0.1,0c-0.2,0-0.2-0.2-0.1-0.3l1.1-2h-0.9
			l-1.2,2.3c-0.2,0.3-0.4,0.7-1.1,1.1c-0.4,0.3-0.6,0.1-0.4-0.4c0.1-0.1,0.1-0.2,0.2-0.4c0.1,0.1,0.3,0,0.5-0.1
			c0-0.1,0.1-0.2,0.1-0.2c0,0,0-0.1-0.1,0c-0.2,0-0.2-0.2-0.1-0.3l1.1-2h-0.9l-1.5,2.8c-0.3,0.6-0.4,1.3,0,1.5
			c0.3,0.2,0.8,0,1.2-0.4c0.2-0.2,0.4-0.4,0.6-0.5c-0.1,0.4,0,0.7,0.2,0.9c0.3,0.2,0.8,0.1,1.2-0.4c0.2-0.2,0.4-0.5,0.6-0.7
			c0,0,0,0.1,0,0.1c0.1,0.4,0.4,0.8,0.8,0.8c0.2,0,0.4-0.1,0.6-0.3l-0.3,0.5c-0.3,0.1-0.6,0.2-0.9,0.3c-0.6,0.2-1.3,0.5-1.4,1
			c-0.2,0.7,0.5,1.1,1.2,1c0.7-0.1,1.1-0.5,1.5-1.2l0.5-0.8c0.3-0.1,0.7-0.3,1-0.5c0.2-0.1,0.4-0.4,0.7-0.7c0.1,0.4,0.3,0.8,0.9,0.9
			c1.5,0.3,3.1-2.7,3.1-2.7l-0.1-0.1c0.2-0.3,0.4-0.6,0.5-0.8c0.1-0.1,0.2-0.3,0.3-0.2c0.1,0,0.1,0.1,0,0.3l-1.9,3.5h0.9l1.2-2.3
			c0.1,0.1,0.4,0,0.5-0.1c0-0.1,0.1-0.2,0.1-0.2c0,0,0-0.1-0.1,0l0,0c-0.2,0-0.2-0.2-0.1-0.3c0,0,0.3-0.7,0.7-0.9
			c0.5-0.2,0.7,0.2,0.4,0.8l-0.7,1.3l-0.1,0.2c-0.3,0.6-0.4,1.3,0,1.5c0.3,0.2,0.8,0.1,1.2-0.4c0.2-0.3,0.4-0.5,0.6-0.8
			c0,0.6,0.2,1.1,1,1.2c1.5,0.3,3.1-2.7,3.1-2.7l-0.2-0.2c0,0-0.3,0.4-0.7,1c-0.6,0.8-1.1,1.2-1.7,1.1c-0.4-0.1-0.5-0.5-0.4-1
			c0-0.2,0.1-0.3,0.1-0.3s0.1,0.4,0.7,0.3c0.5-0.1,1.3-0.5,1.8-1.5c0.3-0.5,0.1-1.2-0.6-1.2c-0.4,0-0.8,0.1-1.2,0.4
			c-0.7,0.5-1.3,1.3-1.6,2.1c-0.3,0.4-0.5,0.8-0.8,1c-0.3,0.3-0.6,0.2-0.4-0.3c0-0.1,0.2-0.4,0.3-0.6c0.2-0.4,0.4-0.8,0.7-1.2
			c0.3-0.5,0.2-1.2-0.4-1.3c-0.3-0.1-0.6-0.1-0.9,0.1c-0.2,0.1-0.3,0.2-0.4,0.3c0-0.2-0.1-0.4-0.3-0.5c-0.4-0.2-0.9,0.2-1.1,0.6
			c-0.3,0.4-0.7,1-0.9,1.4l0,0.1c-0.1,0.1-0.2,0.3-0.4,0.5c-0.6,0.8-1.1,1.2-1.7,1.1c-0.4-0.1-0.5-0.5-0.4-1c0-0.2,0.1-0.3,0.1-0.3
			s0.1,0.4,0.7,0.3c0.5-0.1,1.3-0.5,1.8-1.5c0.3-0.5,0.1-1.2-0.6-1.2c-0.4,0-0.8,0.1-1.2,0.4c-0.9,0.6-1.6,1.6-1.7,2.6
			c0,0,0,0.1,0,0.1c-0.2,0.3-0.5,0.6-0.8,0.8c-0.2,0.1-0.6,0.3-0.6,0.3l2.3-4.1h-0.9l-0.1,0.2c-0.2-0.2-0.4-0.3-0.6-0.3
			C458.7,292.3,457.8,293.3,457.4,294.4z M457.8,297.7c-0.2,0.4-0.9,1.1-1.2,0.7c-0.4-0.4,0.4-0.8,0.8-1c0.3-0.1,0.7-0.2,0.7-0.2
			L457.8,297.7z M469.7,294.2c0.1,0,0.1,0,0.1,0c0,0,0,0,0.1,0c0-0.3-0.1-0.3-0.1-0.3c0.4-0.6,0.9-1.1,1.3-1
			c0.4,0.2-0.2,1.1-0.6,1.4c-0.3,0.2-0.7,0.3-0.8,0.2C469.5,294.4,469.6,294.3,469.7,294.2z M462.1,294.2c0,0,0.1,0,0.1,0
			c0,0,0,0,0,0c0-0.3-0.1-0.3-0.1-0.3c0.4-0.6,0.9-1.1,1.3-1c0.4,0.2-0.2,1.1-0.6,1.4c-0.3,0.2-0.7,0.3-0.8,0.2
			C462,294.4,462,294.3,462.1,294.2z M459.9,293.7c-0.1,0.2-0.4,0.4-0.7,0.3c0,0,0,0,0,0c0,0.2,0.2,0.4,0.4,0.3l0,0.1
			c-0.1,0.3-0.3,0.5-0.4,0.8c-0.3,0.5-1.1,1.2-1.2,0.3c-0.1-0.6,0.5-1.5,1-2c0.2-0.3,0.6-0.6,0.9-0.4
			C460.1,293.1,460,293.4,459.9,293.7z"/>
		<path fill="#FFFFFF" d="M471.6,297.2l-0.1,0l-0.1,0.1l0.2,0c0.5-0.1,0.8-0.4,1-0.8c0.1-0.3,0.3-0.8-0.1-0.8
			c-0.3,0-0.5,0.2-0.6,0.5c-0.1,0.2-0.1,0.4,0,0.5c0,0.1,0.1,0.2,0,0.2C471.9,297.2,471.7,297.2,471.6,297.2z"/>
		<path fill="#FFFFFF" d="M480.6,289.7c-1.6,0-3.6,1.7-4.5,3.8c-0.9,2.1-0.4,3.7,1.2,3.7c1.9,0.1,3.6-1.7,4.5-3.8
			C482.8,291,482.2,289.7,480.6,289.7z M480.9,292.4c0,0-0.1,0.4-0.2,0.6c-0.4,1-1,1.9-1.7,2.6c-0.6,0.7-1.2,1-1.6,1
			c-0.4,0-0.6-0.4-0.6-1.1c0-0.5,0.1-1,0.4-1.6c0.4-1,1-1.9,1.7-2.7c0.6-0.7,1.2-1,1.6-1c0.2,0,0.4,0.1,0.5,0.3
			c0.2,0.4,0.1,0.9-0.3,1.1c-0.3,0.2-0.6-0.1-0.6-0.3c0-0.1-0.1-0.1-0.1,0C479.6,291.8,480.2,292.6,480.9,292.4z"/>
		<path fill="#FFFFFF" d="M484,293.4c0.2-0.3,0.6-0.6,1.1-0.5c0.2,0,0.3,0.1,0.3,0.3c0,0,0,0,0.1,0l0.4-0.7c0,0,0-0.1,0-0.1
			c-0.2-0.1-0.4-0.1-0.5-0.1c-0.4,0-0.8,0.2-1.1,0.5c0,0-0.1,0.1-0.1,0.1v-0.1c0-0.2-0.1-0.4-0.3-0.5c-0.4-0.2-0.9,0.2-1.1,0.5
			c-0.3,0.4-0.7,1-0.9,1.4l0.2,0.3c0.3-0.4,0.6-1,0.9-1.3c0.1-0.1,0.2-0.3,0.3-0.2c0.1,0,0.1,0.1,0.1,0.2l-1.9,3.5h1l1.2-2.3
			c0.1,0.1,0.3,0,0.4-0.1c0-0.1,0.1-0.2,0.1-0.2c0,0,0-0.1,0,0l0,0c-0.2,0.1-0.2-0.2-0.1-0.3L484,293.4z"/>
		<path fill="#FFFFFF" d="M498.3,295.1l-0.1,0.2c-0.3,0.6-0.4,1.3-0.1,1.5c0.3,0.2,0.8,0.1,1.2-0.4c0.8-0.9,1.3-1.9,1.6-2.3
			l-0.2-0.2c-0.4,0.5-0.9,1.4-1.4,2c-0.3,0.3-0.6,0.2-0.4-0.3c0.1-0.1,0.2-0.4,0.3-0.6c0.2-0.4,0.4-0.8,0.7-1.2
			c0.3-0.5,0.2-1.2-0.4-1.3c-0.3-0.1-0.6-0.1-0.9,0.1c-0.2,0.1-0.3,0.2-0.4,0.3c0-0.2,0-0.4-0.3-0.5c-0.4-0.2-0.9,0.2-1.1,0.6
			c-0.2,0.4-0.6,0.8-0.8,1.2l-0.1-0.1c0,0-0.6,0.9-1,1.3c-0.3,0.2-0.4,0.2-0.4,0.2c0.2-0.2,0.3-0.5,0.4-0.7c0.6-1.2,0.6-2.4-0.3-2.5
			c-0.6-0.1-1.4,0.3-1.9,0.8c-0.5,0.5-1,1.2-1.1,2c-0.3,0.4-0.6,0.8-1,1.1c-0.2,0.1-0.6,0.3-0.6,0.3l2.3-4.1h-0.9l-0.1,0.2
			c-0.2-0.2-0.4-0.3-0.6-0.3c-1.2-0.1-2.1,0.9-2.6,2c0,0,0,0.1-0.1,0.1c-0.1,0.1-0.2,0.3-0.3,0.4c-0.6,0.8-1.1,1.2-1.7,1.1
			c-0.4-0.1-0.5-0.5-0.4-1c0-0.2,0.1-0.3,0.1-0.3s0.1,0.4,0.7,0.3c0.5-0.1,1.3-0.5,1.8-1.5c0.3-0.5,0.1-1.2-0.6-1.2
			c-0.4,0-0.8,0.1-1.2,0.4c-0.9,0.6-1.6,1.6-1.7,2.6c-0.1,0.7,0,1.4,0.9,1.6c0.8,0.2,1.7-0.7,2.2-1.4c0,0.1,0,0.2,0,0.4
			c0.1,0.4,0.4,0.8,0.8,0.8c0.2,0,0.4-0.1,0.6-0.3l-0.3,0.5c-0.3,0.1-0.6,0.2-0.9,0.3c-0.6,0.2-1.3,0.5-1.4,1
			c-0.2,0.7,0.5,1.1,1.2,1c0.7-0.1,1.1-0.5,1.5-1.2l0.5-0.8c0.3-0.1,0.7-0.3,1-0.5c0.2-0.1,0.5-0.5,0.8-0.8c0,0.1,0,0.2,0,0.4
			c0.1,0.4,0.4,0.7,0.9,0.8c0.6,0,1.2-0.3,1.7-0.9c0.1,0.1,0.4,0,0.6-0.1c0.5-0.3,1-1,1.3-1.4l0.1,0.1c0.3-0.4,0.6-1,0.9-1.3
			c0.1-0.1,0.2-0.3,0.3-0.2c0.1,0,0.1,0.1,0,0.3l-1.9,3.5h0.9l1.2-2.3c0.1,0.1,0.4,0,0.5-0.1c0-0.1,0.1-0.2,0.1-0.2c0,0,0-0.1,0,0
			l0,0c-0.2,0-0.2-0.2-0.1-0.3c0,0,0.3-0.7,0.7-0.9c0.5-0.2,0.7,0.2,0.4,0.8L498.3,295.1z M486,294.2c0.1,0,0.1,0,0.1,0
			c0,0,0,0,0.1,0c0-0.3-0.1-0.3-0.1-0.3c0.4-0.6,0.9-1.1,1.3-1c0.4,0.2-0.2,1.1-0.6,1.4c-0.3,0.2-0.7,0.3-0.8,0.2
			C485.8,294.4,485.9,294.3,486,294.2z M488.5,297.7c-0.2,0.4-0.9,1.1-1.2,0.7c-0.4-0.4,0.4-0.8,0.8-1c0.3-0.1,0.7-0.2,0.7-0.2
			L488.5,297.7z M488.7,295.4c0-0.6,0.5-1.5,1-2c0.2-0.3,0.6-0.6,0.9-0.4c0.2,0.2,0.1,0.5,0,0.7c-0.1,0.2-0.4,0.4-0.7,0.3
			c0,0,0,0,0,0c0,0.2,0.2,0.4,0.4,0.3l0,0.1c-0.1,0.3-0.3,0.5-0.4,0.8C489.6,295.6,488.8,296.3,488.7,295.4z M493.9,294
			C493.8,294,493.8,294,493.9,294c0,0.3,0.2,0.4,0.4,0.3c0,0-0.1,0.2-0.4,0.7c-0.2,0.4-0.7,0.9-0.8,1c-0.6,0.4-0.9,0.4-0.7-0.6
			c0.2-0.9,0.7-1.5,0.9-1.8c0.2-0.3,0.8-1,1.2-0.8c0.2,0.1,0.1,0.6,0,0.8C494.3,293.9,494.1,294.1,493.9,294z"/>
		<path fill="#FFFFFF" d="M450.2,168c-11.1-0.1-15.8,8.5-16.1,28.8c-0.3,20.4,4.1,27.5,15.4,25.6c11.4-1.7,16.1-9.5,16.2-28
			C465.8,175.9,461.3,168.1,450.2,168z M453.3,216c0,3.9-1,4.9-3.7,5.3c-2.7,0.4-3.6-0.4-3.6-4.3c0.2-14.1,0.4-28.2,0.6-42.3
			c0-3.6,0.7-5.5,3.6-5.5c3,0,3.6,1.8,3.5,5.4C453.6,188.4,453.4,202.2,453.3,216z"/>
		<path fill="#FFFFFF" d="M487.8,168c-11.1,0-15.6,7.9-15.7,26.3c0,18.5,4.6,26,16.1,26.9c11.4,1.2,15.9-5.9,15.6-25.5
			C503.5,176.2,498.9,167.9,487.8,168z M488.2,220.1c-2.7-0.2-3.7-1.2-3.7-5c-0.1-13.6-0.2-27.1-0.2-40.7c0-3.5,0.5-5.3,3.5-5.3
			c3,0,3.6,1.8,3.6,5.4c0.1,13.7,0.3,27.4,0.4,41.1C491.8,219.5,490.9,220.3,488.2,220.1z"/>
		<path fill="#FFFFFF" d="M546.9,170.3c1.2,0,2.4,0,3.6,0.1c0-0.5,0-1,0-1.5c-5.4,0-10.7-0.1-16.1-0.1c-1.7,12-3.4,23.6-5.1,34.8
			c-0.2,0-0.4-0.1-0.6-0.1c-1.9-11.9-3.9-23.5-5.9-34.7c-5.4,0-10.7,0-16.1,0c0,0.4,0,0.8,0,1.2c1.3,0,2.6,0,3.9,0
			c0.2,16,0.5,32,0.7,47.9c0,2.9-1.3,4.1-4.5,4.1c0,0.4,0,0.8,0,1.2c3.9,0.8,7.7,1.7,11.5,2.7c0-0.4,0-0.8,0-1.3c-2.8-1.1-5-3-5-6.1
			c-0.2-15.1-0.5-30.2-0.7-45.2c0.2,0,0.4,0,0.6,0c3.1,17.2,6.3,35,9.4,53.8c1.6,0.5,3.2,1,4.8,1.5c2.6-17.3,5.3-35.5,8-54.6
			c0.2,0,0.3,0,0.5,0c0.2,18.9,0.4,37.7,0.6,56.6c-1.3-0.5-2.5-1-3.8-1.4c0,0.5,0,0.9,0,1.4c6.1,2.3,12.2,5,18.1,8.1
			c0-0.5,0-1,0-1.5c-1.2-0.6-2.4-1.2-3.6-1.8C547,213.6,546.9,191.9,546.9,170.3z M542.6,226.9c0,0.6-0.5,1.1-1.1,1.1
			c-0.6,0-1.1-0.5-1.1-1.1c0-0.5,0.3-0.9,0.7-1v-49.4c-0.4-0.2-0.7-0.5-0.7-1c0-0.6,0.5-1.1,1.1-1.1c0.6,0,1.1,0.5,1.1,1.1
			c0,0.5-0.3,0.9-0.7,1v49.4C542.3,226,542.6,226.4,542.6,226.9z"/>
		<path fill="#FFFFFF" d="M415.3,229.2c-1,0.4-2.1,0.8-3.1,1.2c0.2-20.1,0.4-40.2,0.6-60.2c1.3,0,2.7,0,4.1-0.1c0-0.5,0-0.9,0-1.4
			c-6.5,0-13.1,0.1-19.6,0.1c0,0.5,0,1,0,1.5c1.2,0,2.4,0,3.7-0.1c-0.1,21.7-0.1,43.4-0.2,65c-1.2,0.6-2.3,1.1-3.5,1.7
			c0,0.5,0,1,0,1.5c10.4-5.4,21.2-9.6,32.2-12.7c0.1-7.6,0.2-15.3,0.4-22.9c-0.5,0.1-0.9,0.2-1.4,0.2
			C423.5,224.5,421.6,227,415.3,229.2z M407.9,226.9c0,0.6-0.5,1.1-1.1,1.1c-0.6,0-1.1-0.5-1.1-1.1c0-0.5,0.3-0.9,0.7-1v-49.4
			c-0.4-0.2-0.7-0.5-0.7-1c0-0.6,0.5-1.1,1.1-1.1c0.6,0,1.1,0.5,1.1,1.1c0,0.5-0.3,0.9-0.7,1v49.4
			C407.6,226,407.9,226.4,407.9,226.9z"/>
		<path fill="#FFFFFF" d="M408.7,292.1c1.3-0.9,2.6-1.7,3.9-2.5c0.5-0.6,1-1.2,1.5-1.9c0.1,0.2,0.3,0.4,0.4,0.6
			c0.5-0.3,1-0.6,1.5-0.9c-0.6-1-1.1-1.9-1.7-2.9c0.4-0.2,0.7-0.4,1.1-0.6c-0.2-0.4-0.4-0.7-0.6-1.1c-2.1,1.2-4.2,2.4-6.3,3.8
			c0.2,0.4,0.5,0.7,0.7,1.1c0.5-0.3,0.9-0.6,1.4-0.9c0.3,0.4,0.6,0.9,0.8,1.3c-0.1,0.2-0.1,0.4-0.2,0.7c-0.6,0.4-1.1,0.7-1.7,1.1
			c-0.5-0.1-0.9-0.1-1.4-0.2c-0.8-1.2-1.5-2.3-2.3-3.5c0.2-0.6,0.3-1.2,0.5-1.8c0.6-0.4,1.2-0.8,1.8-1.2c1,0,2,0,3,0
			c0.1,0.2,0.2,0.3,0.3,0.5c0.5-0.3,1.1-0.6,1.6-1c-0.6-1-1.1-2-1.7-3c-0.5,0.3-1,0.6-1.5,0.9c0.1,0.1,0.2,0.3,0.2,0.4
			c-0.6,0.2-1.3,0.3-1.9,0.5c-1.5,0.9-3,1.9-4.5,2.9c-0.8,1.3-1.6,2.5-2.4,3.8c1.1,1.6,2.3,3.1,3.4,4.7
			C406,292.7,407.3,292.4,408.7,292.1z"/>
		<path fill="#FFFFFF" d="M416.6,285.6c0.2,0.4,0.4,0.7,0.6,1.1c1.4-0.8,2.8-1.5,4.2-2.2c-0.2-0.4-0.4-0.8-0.6-1.1
			c-0.4,0.2-0.8,0.4-1.2,0.6c-0.2-0.1-0.4-0.2-0.6-0.3c0-0.3,0-0.6,0-0.9c1.3-0.7,2.6-1.3,3.9-1.9c0.2,0.2,0.5,0.4,0.7,0.6
			c0,0.2-0.1,0.4-0.1,0.7c-0.4,0.2-0.9,0.4-1.3,0.6c0.2,0.4,0.4,0.8,0.6,1.2c2.2-1.1,4.5-2.1,6.8-3c-0.2-0.4-0.3-0.8-0.5-1.2
			c-0.2,0.1-0.5,0.2-0.7,0.3c-2-1.7-4-3.4-6-5c-0.1-0.2-0.2-0.3-0.2-0.5c-1.6,0.7-3.2,1.5-4.8,2.3c0.1,0.2,0.2,0.3,0.3,0.5
			c-0.1,2.7-0.2,5.4-0.2,8C417.1,285.3,416.9,285.4,416.6,285.6z M419.1,277.6c0.9,0.7,1.9,1.5,2.8,2.2c-0.9,0.4-1.8,0.9-2.8,1.4
			C419.1,280,419.1,278.8,419.1,277.6z"/>
		<path fill="#FFFFFF" d="M429.1,272.8c0.2,0.1,0.4,0.2,0.7,0.2c0.6,1.6,1.2,3.2,1.8,4.8c-0.1,0.3-0.2,0.5-0.2,0.8
			c-0.3,0.1-0.6,0.2-0.9,0.4c0.2,0.4,0.3,0.8,0.5,1.2c1.4-0.6,2.8-1.1,4.2-1.6c-0.1-0.4-0.3-0.8-0.4-1.2c-0.3,0.1-0.6,0.2-0.9,0.3
			c-0.2-0.1-0.5-0.3-0.7-0.4c-0.4-1.2-0.9-2.4-1.3-3.5c1.8,1.2,3.5,2.5,5.2,3.8c0,0.1,0.1,0.3,0.1,0.4c0.4-0.1,0.7-0.2,1.1-0.4
			c0-0.1-0.1-0.3-0.1-0.4c0.6-2.2,1.3-4.4,2-6.6c0.4,1.4,0.8,2.8,1.2,4.3c-0.1,0.2-0.2,0.4-0.4,0.6c-0.3,0.1-0.6,0.2-0.9,0.3
			c0.1,0.4,0.2,0.8,0.4,1.2c2.2-0.7,4.4-1.2,6.6-1.8c-0.1-0.4-0.2-0.8-0.3-1.3c-0.3,0.1-0.6,0.2-1,0.2c-0.2-0.1-0.4-0.2-0.6-0.3
			c-0.4-1.7-0.9-3.5-1.3-5.2c0.1-0.2,0.3-0.4,0.4-0.6c0.3-0.1,0.7-0.2,1-0.2c-0.1-0.4-0.2-0.8-0.3-1.3c-2,0.5-4,1-6,1.6
			c0.1,0.2,0.1,0.4,0.2,0.5c-0.5,1.5-1,3-1.5,4.5c-1.3-1-2.5-1.9-3.9-2.8c-0.1-0.2-0.1-0.3-0.2-0.5c-2,0.7-4.1,1.4-6.1,2.2
			c0.2,0.4,0.3,0.8,0.5,1.2C428.5,273,428.8,272.9,429.1,272.8z"/>
		<path fill="#FFFFFF" d="M447.9,267.2c0.2,0.1,0.4,0.2,0.6,0.4c0.4,1.7,0.7,3.5,1.1,5.2c-0.1,0.2-0.3,0.4-0.4,0.6
			c-0.3,0.1-0.6,0.1-1,0.2c0.1,0.4,0.2,0.8,0.3,1.3c3.8-0.9,7.7-1.5,11.6-2c-0.1-1.2-0.3-2.3-0.4-3.5c-0.5,0.1-1.1,0.1-1.6,0.2
			c0,0.2,0.1,0.5,0.1,0.7c-0.6,0.6-1.2,1.2-1.9,1.8c-0.9,0.1-1.8,0.3-2.6,0.4c-0.2-0.9-0.3-1.8-0.5-2.7c0.3-0.1,0.6-0.1,0.9-0.2
			c0.4,0.4,0.7,0.7,1.1,1.1c0.4-0.1,0.7-0.1,1.1-0.2c-0.2-1.2-0.4-2.4-0.5-3.7c-0.4,0.1-0.8,0.1-1.1,0.2c-0.2,0.4-0.5,0.9-0.7,1.3
			c-0.3,0-0.6,0.1-0.9,0.2c-0.1-0.8-0.3-1.5-0.4-2.3c1-0.2,2-0.3,3.1-0.5c0.6,0.3,1.2,0.6,1.8,0.9c0,0.3,0.1,0.5,0.1,0.8
			c0.5-0.1,1.1-0.1,1.6-0.2c-0.1-1.1-0.3-2.1-0.4-3.2c-4.1,0.5-8.2,1.2-12.3,2.1c0.1,0.4,0.2,0.8,0.3,1.3
			C447.2,267.3,447.5,267.3,447.9,267.2z"/>
		<path fill="#FFFFFF" d="M468.5,264.5c0.2,0.1,0.4,0.3,0.5,0.4c0.1,1.8,0.1,3.6,0.2,5.3c-0.2,0.2-0.3,0.3-0.5,0.5c-0.3,0-0.7,0-1,0
			c0,0.4,0,0.9,0.1,1.3c3.9-0.2,7.8-0.2,11.8,0c0.1-1.2,0.1-2.3,0.2-3.5c-0.5,0-1.1,0-1.6-0.1c0,0.2,0,0.5,0,0.7
			c-0.7,0.5-1.4,0.9-2.1,1.4c-0.9,0-1.8,0-2.7,0c0-0.9,0-1.8,0-2.8c0.3,0,0.6,0,0.9,0c0.3,0.4,0.6,0.9,0.9,1.3c0.4,0,0.7,0,1.1,0
			c0-1.2,0-2.5,0.1-3.7c-0.4,0-0.8,0-1.1,0c-0.3,0.4-0.6,0.8-0.9,1.2c-0.3,0-0.6,0-0.9,0c0-0.8,0-1.5,0-2.3c1,0,2.1,0,3.1,0
			c0.5,0.4,1.1,0.8,1.6,1.2c0,0.3,0,0.6,0,0.8c0.5,0,1.1,0,1.6,0.1c0-1.1,0.1-2.1,0.2-3.2c-4.1-0.2-8.3-0.2-12.4,0
			c0,0.4,0,0.9,0.1,1.3C467.8,264.6,468.1,264.5,468.5,264.5z"/>
		<path fill="#FFFFFF" d="M486.2,271.3c-0.5,0-0.9-0.1-1.4-0.1c-0.2-0.3-0.3-0.5-0.5-0.8c0.1-1.2,0.2-2.4,0.3-3.7
			c1.8,1.9,3.5,3.9,5.1,5.9c0,0.2,0,0.3-0.1,0.5c1.2,0.2,2.4,0.3,3.7,0.6c0.4-2.3,0.8-4.7,1.2-7c0.2-0.1,0.4-0.3,0.6-0.4
			c0.3,0.1,0.7,0.1,1,0.2c0.1-0.4,0.2-0.8,0.2-1.3c-1.7-0.3-3.4-0.6-5.1-0.8c-0.1,0.4-0.1,0.8-0.2,1.3c0.4,0.1,0.8,0.1,1.2,0.2
			c0.1,0.2,0.3,0.4,0.4,0.5c-0.2,1-0.3,2.1-0.5,3.1c-1.3-1.7-2.7-3.3-4.2-4.9c0-0.2,0-0.4,0.1-0.5c-2.2-0.2-4.4-0.4-6.6-0.6
			c0,0.4-0.1,0.9-0.1,1.3c0.3,0,0.7,0,1,0.1c0.2,0.2,0.3,0.3,0.5,0.5c-0.1,1.7-0.2,3.4-0.4,5c-0.2,0.2-0.4,0.5-0.6,0.7
			c-0.3,0-0.6,0-0.9-0.1c0,0.4-0.1,0.9-0.1,1.3c1.7,0.1,3.4,0.2,5,0.4C486.1,272.2,486.1,271.7,486.2,271.3z"/>
		<path fill="#FFFFFF" d="M504.1,276c0.8-0.1,1.5-0.2,2.3-0.2c-0.1,0.2-0.1,0.5-0.2,0.7c0.5,0.2,1.1,0.3,1.6,0.5
			c0.3-1.1,0.6-2.1,1-3.2c0.4,0.1,0.8,0.2,1.2,0.4c0.1-0.4,0.3-0.8,0.4-1.2c-2.3-0.7-4.6-1.4-6.9-1.9c-0.1,0.4-0.2,0.8-0.3,1.2
			c0.5,0.1,1,0.3,1.5,0.4c-0.1,0.5-0.3,1-0.4,1.5c-0.2,0.1-0.4,0.2-0.6,0.3c-0.6-0.2-1.3-0.3-1.9-0.5c-0.2-0.4-0.5-0.8-0.8-1.1
			c0.3-1.3,0.6-2.7,0.9-4c0.5-0.3,1.1-0.6,1.6-0.9c0.7,0.2,1.3,0.3,2,0.5c0.7,0.7,1.3,1.4,2,2.2c-0.1,0.2-0.1,0.4-0.2,0.5
			c0.6,0.2,1.2,0.3,1.8,0.5c0.3-1.1,0.7-2.2,1-3.3c-0.5-0.2-1.1-0.3-1.6-0.5c0,0.1-0.1,0.3-0.1,0.4c-0.5-0.3-1.1-0.7-1.6-1
			c-1.7-0.5-3.4-0.9-5-1.3c-1.4,0.3-2.9,0.6-4.3,0.9c-0.4,1.9-0.7,3.8-1.1,5.7c1.1,0.7,2.3,1.5,3.4,2.2
			C501.2,275.3,502.6,275.6,504.1,276z"/>
		<path fill="#FFFFFF" d="M516.8,280.1c0.2-0.4,0.3-0.8,0.5-1.2c-0.3-0.1-0.6-0.2-0.9-0.4c-0.1-0.2-0.2-0.4-0.3-0.6
			c0.6-1.7,1.3-3.3,1.9-5c0.2-0.1,0.4-0.2,0.7-0.3c0.3,0.1,0.7,0.3,1,0.4c0.2-0.4,0.3-0.8,0.5-1.2c-2.4-0.9-4.8-1.8-7.3-2.6
			c-0.1,0.4-0.3,0.8-0.4,1.2c0.3,0.1,0.7,0.2,1,0.3c0.1,0.2,0.2,0.4,0.3,0.6c-0.6,1.7-1.1,3.4-1.7,5.1c-0.2,0.1-0.4,0.2-0.6,0.3
			c-0.3-0.1-0.6-0.2-0.9-0.3c-0.1,0.4-0.3,0.8-0.4,1.2C512.3,278.4,514.5,279.2,516.8,280.1z"/>
		<path fill="#FFFFFF" d="M518.8,279.5c-0.2,0.4-0.3,0.8-0.5,1.2c1.6,0.6,3.2,1.3,4.7,2.1c0.2-0.4,0.4-0.8,0.5-1.2
			c-0.4-0.2-0.8-0.4-1.3-0.6c-0.1-0.3-0.2-0.6-0.2-0.9c0.5-1.1,1-2.2,1.5-3.4c1.1,2.4,2.1,4.8,3,7.2c-0.1,0.1-0.1,0.3-0.2,0.4
			c1.1,0.6,2.2,1.2,3.4,1.8c1.1-2.1,2.3-4.2,3.4-6.2c0.2-0.1,0.5-0.1,0.7-0.2c0.3,0.2,0.6,0.3,0.9,0.5c0.2-0.4,0.4-0.7,0.6-1.1
			c-1.5-0.9-3.1-1.7-4.6-2.5c-0.2,0.4-0.4,0.8-0.6,1.1c0.4,0.2,0.8,0.4,1.1,0.6c0.1,0.2,0.2,0.4,0.2,0.7c-0.5,0.9-1,1.8-1.5,2.8
			c-0.8-2-1.6-4.1-2.5-6.1c0.1-0.2,0.2-0.3,0.2-0.5c-2-1-4.1-1.9-6.1-2.7c-0.2,0.4-0.3,0.8-0.5,1.2c0.3,0.1,0.6,0.3,1,0.4
			c0.1,0.2,0.2,0.4,0.3,0.6c-0.7,1.6-1.3,3.1-2,4.7c-0.3,0.2-0.6,0.3-0.8,0.5C519.3,279.7,519,279.6,518.8,279.5z"/>
		<path fill="#FFFFFF" d="M537.2,282.2c-0.9,1.5-1.8,3.1-2.7,4.6c-0.2,0-0.4,0.1-0.7,0.1c-0.3-0.2-0.6-0.3-0.9-0.5
			c-0.2,0.4-0.4,0.7-0.6,1.1c3.5,2,6.9,4.2,10.3,6.7c0.7-0.9,1.4-1.9,2.1-2.8c-0.5-0.3-0.9-0.7-1.4-1c-0.1,0.2-0.3,0.4-0.4,0.6
			c-0.9,0-1.8,0-2.6,0c-0.8-0.5-1.5-1-2.3-1.5c0.5-0.8,1-1.6,1.5-2.3c0.3,0.2,0.5,0.3,0.8,0.5c0,0.5,0.1,1.1,0.1,1.6
			c0.3,0.2,0.6,0.4,1,0.6c0.7-1,1.4-2,2.1-3.1c-0.3-0.2-0.7-0.4-1-0.7c-0.5,0.2-1,0.3-1.5,0.5c-0.3-0.2-0.5-0.3-0.8-0.5
			c0.4-0.6,0.8-1.3,1.3-1.9c0.9,0.6,1.8,1.2,2.7,1.8c0.3,0.6,0.5,1.3,0.8,1.9c-0.2,0.2-0.3,0.5-0.5,0.7c0.5,0.3,0.9,0.7,1.4,1
			c0.6-0.9,1.3-1.7,1.9-2.6c-3.5-2.6-7.2-4.9-10.9-7c-0.2,0.4-0.4,0.7-0.6,1.1c0.3,0.2,0.6,0.4,0.9,0.5
			C537,281.8,537.1,282,537.2,282.2z"/>
		<path fill="#FFFFFF" d="M499.1,283.3c0.4,0,0.8-0.4,0.8-0.8c0-0.4-0.4-0.8-0.8-0.8c-0.4,0-0.6,0.2-0.8,0.5h-10.2v0.6h10.2
			C498.4,283.1,498.7,283.3,499.1,283.3z"/>
		<path fill="#FFFFFF" d="M448.7,283.3c0.3,0,0.6-0.2,0.8-0.5h10.2v-0.6h-10.2c-0.1-0.3-0.4-0.5-0.8-0.5c-0.4,0-0.8,0.4-0.8,0.8
			C447.9,283,448.3,283.3,448.7,283.3z"/>
		<path fill="#FFFFFF" d="M486.7,285.5v-5.9l-13-1.6l-12.7,1.6v5.9l12.7,1.7L486.7,285.5z M478.9,281.8l0.5-1l0.5,1l1.1,0.1
			l-0.8,0.8l0.2,1.1l-1-0.5l-1,0.5l0.2-1.1l-0.8-0.7L478.9,281.8z M469.4,283.8l-1-0.5l-1,0.5l0.2-1.1l-0.8-0.7l1.1-0.2l0.5-1l0.5,1
			l1.1,0.1l-0.8,0.8L469.4,283.8z M472.3,282l1.1-0.2l0.5-1l0.5,1l1.1,0.1l-0.8,0.8l0.2,1.1l-1-0.5l-1,0.5l0.2-1.1L472.3,282z"/>
		<path fill="#FFFFFF" d="M550.9,160.3c-0.5,0-1,0.3-1.2,0.8H398.2c-0.2-0.5-0.6-0.8-1.2-0.8c-0.7,0-1.2,0.6-1.2,1.2
			c0,0.7,0.6,1.2,1.2,1.2c0.5,0,1-0.3,1.2-0.8h151.6c0.2,0.5,0.6,0.8,1.2,0.8c0.7,0,1.2-0.6,1.2-1.2
			C552.1,160.9,551.6,160.3,550.9,160.3z"/>
		<path fill="#FFFFFF" d="M550.9,303.6c-0.5,0-1,0.3-1.2,0.8H398.2c-0.2-0.5-0.6-0.8-1.2-0.8c-0.7,0-1.2,0.6-1.2,1.2
			c0,0.7,0.6,1.2,1.2,1.2c0.5,0,1-0.3,1.2-0.8h151.6c0.2,0.5,0.6,0.8,1.2,0.8c0.7,0,1.2-0.6,1.2-1.2
			C552.1,304.1,551.6,303.6,550.9,303.6z"/>
		<path fill="#FFFFFF" d="M370.1,264.9v-13.3h-0.8v13.3c-0.4,0.2-0.7,0.5-0.7,1c0,0.6,0.5,1.1,1.1,1.1c0.6,0,1.1-0.5,1.1-1.1
			C370.8,265.4,370.5,265,370.1,264.9z"/>
		<path fill="#FFFFFF" d="M369.3,201.9v12.6h0.8v-12.6c0.4-0.2,0.7-0.5,0.7-1c0-0.6-0.5-1.1-1.1-1.1c-0.6,0-1.1,0.5-1.1,1.1
			C368.6,201.3,368.9,201.7,369.3,201.9z"/>
		<path fill="#FFFFFF" d="M365.7,215.8l-2.1,17.4l2.1,17h7.9l2.3-16.9l-2.3-17.5H365.7z M367.5,229.3h0.4l0.2-0.2V227l-0.2-0.2h-0.4
			v-0.5h4.3v1.3h-0.6v-0.3l-0.6-0.4h-1.1v0.9h0.3l0.3-0.5h0.4v1.5h-0.4l-0.3-0.5h-0.3v1.1h1l0.8-0.6v-0.3h0.6v1.4h-4.4V229.3z
			 M369.9,233.7H369l-1.2-0.6v-1.1l1.2-0.6h1.6l0.5,0.2v-0.1h0.5v1.1h-0.5l-0.1-0.1l-0.8-0.5h-0.8l-0.3,0.2v0.3l0.5,0.2h0.9l1.2,0.6
			v1.2l-1.2,0.6h-1.8l-0.5-0.2v0.1h-0.5v-1.3h0.5l0.1,0.2l1,0.6h0.7l0.3-0.2v-0.3L369.9,233.7z M371.9,237.9h-0.6v-0.4l-0.5-0.5
			h-0.3v2.3l0.2,0.2h0.5v0.5h-3v-0.5h0.5l0.2-0.2V237h-0.3l-0.5,0.5v0.4h-0.6v-1.4h4.4V237.9z"/>
		<path fill="#FFFFFF" d="M577.9,201.7v12.6h0.8v-12.6c0.4-0.2,0.7-0.5,0.7-1c0-0.6-0.5-1.1-1.1-1.1c-0.6,0-1.1,0.5-1.1,1.1
			C577.2,201.2,577.5,201.5,577.9,201.7z"/>
		<path fill="#FFFFFF" d="M578.6,264.7v-13.3h-0.8v13.3c-0.4,0.2-0.7,0.5-0.7,1c0,0.6,0.5,1.1,1.1,1.1c0.6,0,1.1-0.5,1.1-1.1
			C579.3,265.3,579,264.9,578.6,264.7z"/>
		<path fill="#FFFFFF" d="M574.2,215.7l-2.1,17.4l2.1,17h7.9l2.3-16.9l-2.3-17.4H574.2z M576.2,227l0.5-0.9l1.8-0.6V225l-0.3-0.3
			h-0.5l-0.2,0.2v0.4l-0.4,0.2h-0.6l-0.4-0.2v-0.6l1.1-0.5h1.7l1,0.4v1.2l-2.7,0.7l-0.2,0.3l0.6-0.1h1.7l0.1-0.1v-0.3h0.5v1.5h-3.9
			V227z M580.1,241.9h-3.9v-0.7l0.5-0.9l1.8-0.6v-0.5l-0.3-0.3h-0.5l-0.2,0.2v0.4l-0.4,0.2h-0.6l-0.4-0.2v-0.6l1.1-0.5h1.7l1,0.4
			v1.2l-2.7,0.7l-0.2,0.3l0.6-0.1h1.7l0.1-0.1v-0.3h0.5V241.9z M579.2,236.6h0.5v0.5h-2.9v-0.5h0.6l0.2-0.2v-2h-0.9v-0.5h0.8
			l0.7-0.3h0.8v2.8L579.2,236.6z M580.4,231.9l-1.2,0.6H577l-1-0.5v-2.5l1.2-0.6h2.2l1,0.5V231.9z"/>
		<polygon fill="#FFFFFF" points="577.8,229.4 577.5,229.8 577.5,231.6 577.8,231.9 578.6,231.9 578.9,231.6 578.9,229.8 
			578.6,229.4 		"/>
		<path fill="#FFFFFF" d="M587.4,193.1v-2.9l-0.7-0.1c-6.5-0.9-12-5.6-13.8-11.9c-0.2-0.7-0.3-1.5-0.4-2.3l-0.1-0.7h-2.9v-25.7h-95
			h-1.2h-95v25.7h-2.9l-0.1,0.7c-0.1,0.8-0.2,1.6-0.4,2.3c-1.8,6.3-7.3,11-13.7,11.9l-0.7,0.1v2.9h-5.9v62.2v18h5.9v2.9l0.7,0.1
			c6.5,0.9,12,5.7,13.8,12c0.2,0.7,0.3,1.4,0.4,2.2l0.1,0.7h2.9v25.7h95h1.2h95v-25.7h2.9l0.1-0.7c0.1-0.8,0.2-1.5,0.4-2.2
			c1.7-6.3,7.3-11.1,13.8-12l0.7-0.1v-2.9h5.9v-18v-44.2v-18H587.4z M591.7,212.6v41.2v18h-5.9v3.1c-6.8,1.2-12.5,6.3-14.4,13
			c-0.2,0.6-0.3,1.1-0.4,1.8H568v25.7h-93.5h-1.2h-93.5v-25.7h-3.1c-0.1-0.6-0.2-1.2-0.4-1.8c-1.8-6.7-7.6-11.8-14.4-13v-3.1h-5.9
			v-18v-41.2v-18h5.9v-3.1c6.8-1.2,12.5-6.3,14.4-12.9c0.2-0.6,0.3-1.2,0.4-1.9h3.1v-25.7h93.5h1.2H568v25.7h3.1
			c0.1,0.7,0.2,1.3,0.4,1.9c1.9,6.6,7.6,11.7,14.4,12.9v3.1h5.9V212.6z"/>
		<path fill="#FFFFFF" d="M558.6,159.3c-0.3-0.3-0.7-0.6-1-0.8c0.4-1,0.5-2,0.4-2.6h4.7c0.1,0.3,0.5,0.6,0.8,0.7v1v0.1
			c0,1.2-1.4,1.3-1.7,0.7c0.2,0,0.6-0.1,0.6-0.7c0-0.6-0.5-0.9-0.8-0.9c-0.3,0-1.1,0.1-1.1,1.6c0,1.2,1.3,1.8,2.3,1.7
			c1-0.1,1.8-1,1.8-2.1v-0.3v-1.4V156c-0.4-0.1-1-0.6-1.2-1.2h-6.7c0.2,1.1,0.1,2.1-0.3,3c-1.4-0.8-2.7-1-4.6-1.4v-1.6h-66.7h-22.4
			H396v1.6c-1.9,0.3-3.3,0.6-4.6,1.4c-0.3-0.9-0.5-1.9-0.3-3h-6.7c-0.2,0.6-0.7,1-1.2,1.2v0.3v1.4v0.3c0,1.1,0.8,2,1.8,2.1
			c1,0.1,2.3-0.5,2.3-1.7c0-1.6-0.8-1.6-1.1-1.6c-0.3,0-0.8,0.3-0.8,0.9c0,0.6,0.4,0.7,0.6,0.7c-0.3,0.6-1.7,0.5-1.7-0.7v-0.1v-1
			c0.2-0.1,0.6-0.4,0.8-0.7h4.7c-0.1,0.6,0,1.6,0.4,2.6c-0.3,0.2-0.6,0.5-1,0.8c-2.3,2-3.6,3.3-6.1,2.7l0,103.1v39.2
			c2.5-0.5,3.8,0.7,6.1,2.7c0.3,0.3,0.7,0.6,1,0.8c-0.4,1-0.5,2-0.4,2.6h-4.7c-0.1-0.3-0.5-0.6-0.8-0.7v-1v-0.1
			c0-1.2,1.4-1.3,1.7-0.7c-0.2,0-0.6,0.1-0.6,0.7c0,0.6,0.5,0.9,0.8,0.9c0.3,0,1.1-0.1,1.1-1.6c0-1.1-1.3-1.8-2.3-1.7
			c-1,0.1-1.8,1-1.8,2.1v0.3v1.4v0.3c0.4,0.1,1,0.6,1.2,1.2h6.8c-0.2-1.1-0.1-2.1,0.3-3c1.4,0.8,2.7,1,4.6,1.4v1.6h66.8h22.4h66.7
			V310c1.9-0.3,3.3-0.6,4.6-1.4c0.3,0.9,0.5,1.9,0.3,3h6.7c0.2-0.6,0.7-1,1.2-1.2v-0.3v-1.4v-0.3c0-1.1-0.8-2-1.8-2.1
			c-1-0.1-2.3,0.5-2.3,1.7c0,1.6,0.8,1.6,1.1,1.6c0.3,0,0.9-0.3,0.8-0.9c0-0.6-0.4-0.7-0.6-0.7c0.3-0.6,1.7-0.5,1.7,0.7v0.1v1
			c-0.2,0.1-0.6,0.4-0.8,0.7h-4.7c0.1-0.6,0-1.6-0.4-2.6c0.3-0.2,0.6-0.5,1-0.8c2.3-2,3.6-3.3,6.1-2.7v-36.6
			c0.1-0.1,0-105.7,0-105.7C562.2,162.6,560.9,161.4,558.6,159.3z M384.4,163.3c1.5,0.1,2.8-0.6,5.4-3c0.3-0.3,0.7-0.6,1-0.8
			c0.3,0.4,0.6,0.8,1,1.2v1.7c-0.6,0.3-1.3,0.8-2.1,1.5c-1.1,1-2.2,2.1-3,3.3c-1,1.4-1.8,2.9-2.4,4.5V163.3z M391.9,305.8
			c-0.4,0.3-0.8,0.7-1,1.2c-0.3-0.3-0.7-0.5-1-0.8c-2.6-2.4-3.9-3.1-5.4-3v-8.4c0.5,1.6,1.3,3.1,2.4,4.5c0.9,1.2,1.9,2.3,3,3.3
			c0.8,0.7,1.5,1.2,2.1,1.5V305.8z M563.6,303.1c-1.5-0.1-2.8,0.6-5.4,3c-0.3,0.3-0.7,0.6-1,0.8c-0.3-0.4-0.6-0.8-1-1.2V304
			c0.6-0.3,1.3-0.8,2.1-1.5c1.1-1,2.2-2.1,3-3.3c1-1.4,1.8-2.9,2.4-4.5V303.1z M563.6,287.5c-0.4-0.5-0.9-0.7-1.5-0.7
			c-1.6-0.1-2.2,2.5-0.9,2.9c0.3-0.9,1.3-0.7,1.5-0.2c0.2,0.4,0.3,1.5,0.1,3c-0.4,2.3-1.3,4.4-2.7,6.3c-0.8,1-1.7,2-2.7,2.8
			c-0.7,0.6-1.5,1.2-2.4,1.8v3.1c0.3,0.2,0.7,0.6,1.1,1.2c-1.8,1-3.5,1.3-5.2,1.4v1.5h-65.7h-22.4h-65.7V309
			c-1.7-0.1-3.4-0.3-5.2-1.4c0.4-0.6,0.8-1,1.1-1.2v-3.1c-0.9-0.6-1.7-1.2-2.4-1.8c-1-0.8-1.9-1.8-2.7-2.8c-1.4-1.9-2.3-4-2.7-6.3
			c-0.2-1.5-0.1-2.6,0.1-3c0.2-0.5,1.2-0.8,1.5,0.2c1.3-0.4,0.6-2.9-0.9-2.9c-0.6,0-1.1,0.2-1.5,0.7v-19.3v-13.3
			c3.1,0.1,6.3,0.7,8,2.4c0.5-1.8,1.3-3.4,2.4-4.8c3.3-4.4,9.3-7.2,14.9-7.3c2.7-0.1,5.4,0.4,7.4,2c0.8,0.7,1.4,1.8,1.4,2.9
			c0,0.5-0.1,1.2-0.6,1.6c-0.1,0.1-0.3,0.2-0.4,0.2c-0.2-0.4-0.8-0.9-1.5-1.3c-1.3-0.7-2.7-0.7-4.2-0.2c-2.6,0.9-4.5,3.5-4.1,6.1
			c0.2,1.4,1,2.4,2,3.2c2,1.4,4.4,1.7,6.9,1.5c3.8-0.4,7.5-1.8,10.9-3.5c4.2-2.1,8.3-4.5,12.3-6.9c1.6,2.7,4.6,4.1,7.8,3.4
			c2.7-0.6,4-1.7,4.6-2.8c0.4-0.3,0.9-0.4,1.3-0.5c0,0.1-0.1,0.2-0.1,0.3c0,0.4,0.3,0.7,0.7,0.7c0.4,0,0.7-0.3,0.7-0.7
			c0,0,0-0.1,0-0.1c0.4,0.2,0.8,0.6,1,1.1c0.2,0.6,1,0,1.6-0.2c0.2-0.1,0.3-0.3,0.3-0.5c-0.1-0.9,0.4-1.9,1.3-2.6
			c0.8-0.7,1.8-0.9,2.8-0.7c0,0.1,0,0.3,0,0.4c0,0.8-0.2,1.6-0.7,2.2c-0.4,0.6-1.1,1.3-2.4,1.5c-0.2,0-0.4,0.2-0.4,0.5
			c0,0.1,0.1,0.3,0.1,0.4l1.7,1.8c0.2,0.2,0.4,0.2,0.6,0.1c2.1-0.9,5.4-1.9,8.5-2.3c1.3-0.1,2.8,0,3.3,0.3c0,0.1-0.1,0.2-0.1,0.3
			c0,0.5,0.3,0.8,0.7,0.8c0.4,0,0.7-0.2,0.9-0.5c0.2,0.3,0.5,0.5,0.9,0.5c0.4,0,0.8-0.4,0.7-0.8c0-0.1,0-0.2-0.1-0.3
			c0.5-0.2,1.9-0.4,3.3-0.3c3.1,0.3,6.4,1.4,8.5,2.3c0.2,0.1,0.4,0,0.6-0.1l1.6-1.8c0.1-0.1,0.1-0.2,0.1-0.4c0-0.3-0.2-0.5-0.4-0.5
			c-1.3-0.2-2-1-2.4-1.5c-0.4-0.6-0.7-1.5-0.7-2.2c0-0.2,0-0.3,0-0.4c1-0.2,2,0,2.8,0.7c0.8,0.7,1.3,1.7,1.3,2.6
			c0,0.2,0.1,0.4,0.3,0.5c0.6,0.3,1.4,0.9,1.6,0.2c0.2-0.6,0.6-0.9,1-1.1c0,0,0,0.1,0,0.1c0,0.4,0.3,0.7,0.7,0.7
			c0.4,0,0.7-0.3,0.7-0.7c0-0.1,0-0.2-0.1-0.3c0.4,0.1,0.9,0.2,1.3,0.5c0.6,1.1,1.9,2.2,4.6,2.8c3.2,0.6,6.1-0.7,7.8-3.4
			c4,2.4,8.1,4.9,12.3,6.9c3.5,1.7,7.2,3.1,11,3.5c2.4,0.2,4.8-0.1,6.9-1.5c1.1-0.8,1.9-1.8,2-3.2c0.4-2.6-1.5-5.2-4.1-6.1
			c-1.4-0.5-2.8-0.4-4.2,0.2c-0.7,0.4-1.3,0.9-1.5,1.3c-0.2,0-0.3-0.1-0.4-0.2c-0.4-0.4-0.5-1.1-0.6-1.6c0-1.1,0.5-2.2,1.4-2.9
			c2-1.7,4.7-2.1,7.4-2c5.7,0.1,11.7,3,14.9,7.3c1,1.4,1.9,3,2.4,4.8c1.7-1.7,5-2.3,8.1-2.4c0,7.7,0,12.7,0,12.7V287.5z M441,244.2
			c0.3,0.7,0.8,1.2,1.5,1.4c0.7,0.3,1.5,0.2,2.2-0.1c0.6-0.3,0.9-0.9,0.8-1.5c-0.1-0.5-0.4-0.9-0.9-0.9c-0.4,0-0.8,0.3-0.8,0.7
			c0,0.1,0,0.2,0.1,0.3c-0.4,0.4-1.5,0.4-1.9-0.3c-1-1.9,1.4-3.3,2.8-4.1c0.4-0.2,0.3-0.4-0.5-0.6c0.1-0.1,0.1-0.1,0.2-0.1
			c1.5-0.9,3.3-1.8,5.3-2.6c3.2-1.2,7-2.3,11.2-2.9c4-0.7,8.4-1,13-1c4.6,0,8.9,0.4,13,1c4.2,0.7,8,1.7,11.2,2.9
			c2,0.8,3.8,1.6,5.3,2.6c0.1,0,0.1,0.1,0.2,0.1c-0.8,0.2-0.9,0.4-0.5,0.6c1.4,0.7,3.8,2.2,2.8,4.1c-0.4,0.7-1.4,0.7-1.9,0.3
			c0-0.1,0.1-0.2,0.1-0.3c0-0.4-0.3-0.7-0.8-0.7c-0.5,0-0.8,0.4-0.9,0.9c-0.1,0.6,0.3,1.2,0.8,1.5c0.6,0.3,1.5,0.3,2.1,0.1
			c0.7-0.2,1.2-0.8,1.5-1.4c0.2-0.5,0.2-1,0.1-1.5c0.9,1.6,1.2,3.2,1.1,4.6c-0.3-0.5-0.5-0.4-0.6,0.2c-0.2,1.3-0.8,3-2,3.7
			c-1.1,0.6-1.7,0.1-1.9-0.3c0.2-0.1,0.5-0.3,0.5-0.5c0.2-0.6-0.4-1-0.9-1c-0.7,0-1.2,0.7-1.3,1.3c-0.1,0.6,0.3,1.2,0.8,1.5
			c0.6,0.4,1.5,0.5,2.2,0.3c-1.2,0.7-2.7,1.1-4.4,0.7c-2.8-0.6-4.3-2-4.2-3.8c0-0.5,0.2-1,0.5-1.4c0.7-0.8,1.6-0.5,1.6,0
			c-0.1,0.1-0.1,0.2-0.1,0.4c0,0.6,0.5,1,1,0.9c0.6-0.1,1-0.9,0.7-1.5c-0.3-0.7-1.2-1.4-2.4-1.3c-1.2,0.1-2.3,1.4-2.3,2.9
			c0,0.2,0,0.4,0,0.8c-0.8-0.2-1.6-0.3-2.2,0c-0.7,0.2-1.2,0.7-1.6,1.3c-0.1,0-0.1-0.1-0.2-0.1c0-1.1-0.6-2.3-1.7-3.2
			c-1.2-0.9-2.7-1.2-4.1-0.8c-0.2,0.1-0.3,0.2-0.3,0.4c-0.2,1.3,0,2.7,0.8,3.8c0.5,0.8,1.3,1.4,2.2,1.7c-0.4,0.4-0.6,0.7-0.8,0.9
			c-2.1-0.9-5.5-2-8.8-2.3c-1.8-0.2-2.8-0.1-3.5,0.1c-0.5,0.1-0.8,0.4-1,0.8c-0.2-0.4-0.5-0.7-1-0.8c-0.7-0.2-1.7-0.2-3.5-0.1
			c-3.3,0.3-6.7,1.4-8.8,2.3c-0.2-0.2-0.4-0.5-0.8-0.9c0.9-0.3,1.6-0.9,2.2-1.7c0.7-1.1,1-2.5,0.8-3.8c0-0.2-0.2-0.3-0.3-0.4
			c-1.4-0.5-2.9-0.2-4.1,0.8c-1,0.8-1.6,2-1.7,3.2c-0.1,0-0.1,0-0.2,0.1c-0.4-0.6-0.9-1.1-1.6-1.3c-0.7-0.2-1.5-0.2-2.2,0
			c0-0.3,0-0.6,0-0.8c-0.1-1.5-1.1-2.8-2.3-2.9c-1.2-0.1-2.1,0.6-2.4,1.3c-0.3,0.6,0.1,1.5,0.7,1.5c0.5,0.1,1.1-0.3,1-0.9
			c0-0.1,0-0.3-0.1-0.4c0-0.5,0.9-0.8,1.5,0c0.3,0.4,0.5,0.9,0.5,1.4c0.1,1.8-1.5,3.2-4.2,3.8c-1.7,0.3-3.2,0-4.4-0.7
			c0.8,0.2,1.6,0.1,2.2-0.3c0.5-0.3,0.8-0.9,0.8-1.5c-0.1-0.7-0.6-1.3-1.3-1.3c-0.5,0-1,0.4-0.9,1c0.1,0.2,0.3,0.4,0.5,0.5
			c-0.3,0.5-0.9,0.9-1.9,0.3c-1.2-0.7-1.9-2.4-2-3.7c-0.1-0.6-0.3-0.7-0.6-0.2c-0.1-1.4,0.2-3.1,1.1-4.6
			C440.7,243.2,440.8,243.7,441,244.2z M471.9,230.8c1.1-0.5,1.7-1.2,2-1.9c0.3,0.7,0.9,1.4,2,1.9c-0.7,0-1.3,0-2,0
			C473.3,230.8,472.6,230.8,471.9,230.8z M563.5,253.9c-0.6,0-1.2,0-1.8,0.1c-2.5,0.2-4.4,0.8-5.8,1.6c-0.6-1.6-1.5-3.1-2.6-4.4
			c-3.5-4.2-9.4-6.8-15.1-7c-3.3-0.1-6.6,0.4-8.7,2.7c-0.7,0.8-1.2,2-1.2,3.1c0,1,0.5,2.1,1.3,2.7c0.3,0.2,0.8,0.3,1.1,0.2
			c0.4-0.2,0.5-0.6,0.9-0.9c1.2-0.9,2.7-1.1,4.2-0.5c2.1,0.8,3.6,2.8,3.3,5c-0.2,1.5-1.2,2.5-2.6,3.1c-1.6,0.8-3.4,0.9-5.2,0.8
			c-3.8-0.3-7.5-1.9-11-3.6c-4.1-2-8-4.4-12-6.7c0.1-0.1,0.1-0.2,0.2-0.3c0.3-0.8,0.5-1.6,0.6-2.6c0.3,0.3,0.6,0.4,0.9,0.4
			c0.8-0.1,0.9-0.7,0.8-1c-0.1-0.4-0.8-0.5-0.9-0.3c-0.1,0.2-0.6-0.6-0.9-1.3c-0.5-2.3-1.9-4.7-4.9-6.6c-1.4-0.9-2.9-1.6-4.7-2.4
			c-3.3-1.4-7.2-2.4-11.5-3.2c-1.3-0.2-2.7-0.4-4.1-0.6c1.9-0.3,3.7-1.4,3.6-3.4c-0.1-1.4-1.4-2.1-2.7-2c-0.7,0.1-1.3,0.6-1.2,1.3
			c0,0.4,0.4,0.9,0.9,0.9c0.5,0,0.9-0.3,1-0.7c0.5,0.1,0.9,0.6,0.5,1.4c-0.6,1.1-2.4,1.3-3.5,1.4c-1.6,0.2-3.4,0.2-4.9-0.4
			c-2.9-1-2.8-2.7-2.5-3.6c0.1-0.3,0.2-0.5,0.5-0.7c0.5-0.2,0.8-0.2,0.9,0.1c-0.1,0.1-0.2,0.3-0.2,0.5c0,0.4,0.4,0.8,0.9,0.8
			c0.5,0,0.9-0.5,0.9-0.9c0.2-0.8-0.2-1.4-1-1.7c-1.1-0.5-2.5,0.1-3.1,1.1c-0.6-1-1.9-1.6-3.1-1.1c-0.7,0.3-1.1,1-1,1.7
			c0.1,0.4,0.5,0.9,0.9,0.9c0.5,0,0.9-0.4,0.9-0.8c0-0.2-0.1-0.4-0.2-0.5c0.1-0.3,0.4-0.4,0.9-0.1c0.3,0.1,0.4,0.4,0.5,0.7
			c0.3,0.9,0.4,2.6-2.5,3.6c-1.5,0.5-3.3,0.6-4.9,0.4c-1.1-0.2-2.9-0.4-3.5-1.4c-0.5-0.8,0-1.3,0.5-1.4c0.1,0.4,0.5,0.7,0.9,0.7
			c0.5,0,0.9-0.5,0.9-0.9c0.1-0.7-0.5-1.3-1.2-1.3c-1.3-0.1-2.6,0.6-2.7,2c-0.1,2,1.7,3,3.6,3.4c-1.4,0.2-2.7,0.4-4.1,0.6
			c-4.3,0.8-8.1,1.8-11.5,3.2c-1.8,0.7-3.3,1.5-4.7,2.4c-3,1.9-4.5,4.3-4.9,6.6c-0.2,0.7-0.7,1.5-0.9,1.3c-0.1-0.3-0.8-0.2-0.9,0.3
			c-0.1,0.4,0,1,0.8,1c0.3,0,0.6-0.1,0.9-0.4c0.1,0.9,0.3,1.8,0.6,2.6c0,0.1,0.1,0.2,0.1,0.3c-4,2.4-7.9,4.7-12,6.8
			c-3.5,1.7-7.2,3.2-11,3.6c-1.8,0.2-3.6,0-5.2-0.8c-1.3-0.6-2.4-1.7-2.6-3.1c-0.3-2.1,1.2-4.2,3.3-5c1.5-0.6,3-0.4,4.2,0.5
			c0.3,0.3,0.5,0.7,0.9,0.9c0.4,0.2,0.8,0.1,1.1-0.2c0.8-0.6,1.3-1.6,1.3-2.7c0-1.1-0.5-2.3-1.2-3.1c-2.1-2.3-5.4-2.8-8.7-2.7
			c-5.6,0.2-11.5,2.9-15.1,7c-1.1,1.3-2,2.8-2.6,4.4c-1.4-0.9-3.3-1.4-5.8-1.6c-0.6,0-1.1-0.1-1.7-0.1l0-74.9
			c0.4,0.5,0.9,0.7,1.5,0.7c1.6,0.1,2.2-2.5,0.9-2.9c-0.3,0.9-1.3,0.7-1.5,0.2c-0.2-0.4-0.3-1.5-0.1-3c0.4-2.3,1.3-4.4,2.7-6.3
			c0.8-1,1.7-2,2.7-2.8c0.7-0.6,1.5-1.2,2.4-1.8V160c-0.3-0.2-0.7-0.6-1.1-1.2c1.8-1,3.5-1.3,5.2-1.4V156h65.7h22.4h65.7v1.5
			c1.7,0.1,3.4,0.3,5.2,1.4c-0.4,0.6-0.8,1-1.1,1.2v3.1c0.9,0.6,1.7,1.2,2.4,1.8c1,0.8,1.9,1.8,2.7,2.8c1.4,1.8,2.3,4,2.7,6.3
			c0.2,1.5,0.1,2.6-0.1,3c-0.2,0.5-1.2,0.8-1.5-0.2c-1.3,0.4-0.6,2.9,0.9,2.9c0.6,0,1.1-0.2,1.5-0.7
			C563.6,179,563.5,229,563.5,253.9z M563.6,171.8c-0.5-1.6-1.3-3.1-2.4-4.5c-0.9-1.2-1.9-2.3-3-3.3c-0.8-0.7-1.5-1.2-2.1-1.5v-1.7
			c0.4-0.3,0.8-0.7,1-1.2c0.3,0.3,0.7,0.5,1,0.8c2.6,2.4,3.9,3.1,5.4,3V171.8z"/>
	</g>
</g>
</svg>
