<?xml version="1.0" encoding="UTF-8" standalone="no"?>
<!-- Generator: Adobe Illustrator 13.0.0, SVG Export Plug-In . SVG Version: 6.00 Build 14948)  -->

<svg
   xmlns:dc="http://purl.org/dc/elements/1.1/"
   xmlns:cc="http://creativecommons.org/ns#"
   xmlns:rdf="http://www.w3.org/1999/02/22-rdf-syntax-ns#"
   xmlns:svg="http://www.w3.org/2000/svg"
   xmlns="http://www.w3.org/2000/svg"
   xmlns:sodipodi="http://sodipodi.sourceforge.net/DTD/sodipodi-0.dtd"
   xmlns:inkscape="http://www.inkscape.org/namespaces/inkscape"
   version="1.1"
   id="Layer_1"
   x="0px"
   y="0px"
   width="640px"
   height="480px"
   viewBox="0 0 640 480"
   enable-background="new 0 0 640 480"
   xml:space="preserve"
   inkscape:version="0.48.4 r9939"
   sodipodi:docname="nano.svg"><metadata
   id="metadata9661"><rdf:RDF><cc:Work
       rdf:about=""><dc:format>image/svg+xml</dc:format><dc:type
         rdf:resource="http://purl.org/dc/dcmitype/StillImage" /><dc:title /></cc:Work></rdf:RDF></metadata><defs
   id="defs9659" /><sodipodi:namedview
   pagecolor="#ffffff"
   bordercolor="#666666"
   borderopacity="1"
   objecttolerance="10"
   gridtolerance="10"
   guidetolerance="10"
   inkscape:pageopacity="0"
   inkscape:pageshadow="2"
   inkscape:window-width="519"
   inkscape:window-height="443"
   id="namedview9657"
   showgrid="false"
   inkscape:zoom="0.5609375"
   inkscape:cx="203.74794"
   inkscape:cy="401.35898"
   inkscape:window-x="685"
   inkscape:window-y="140"
   inkscape:window-maximized="0"
   inkscape:current-layer="Layer_1"
   showguides="true"
   inkscape:guide-bbox="true" />
<path
   d="m 126.158,110.771 c 0,5.31 -1.031,10.156 -3.087,14.543 -2.059,4.387 -4.984,8.152 -8.774,11.293 -3.793,3.144 -8.477,5.58 -14.055,7.312 -5.581,1.731 -11.836,2.601 -18.767,2.601 -9.968,0 -18.605,-1.572 -25.917,-4.713 -7.312,-3.141 -13.299,-6.986 -17.955,-11.536 L 51.415,115.16 c 4.116,3.684 8.584,6.499 13.405,8.449 4.819,1.95 9.993,2.925 15.518,2.925 5.525,0 9.856,-1.219 12.999,-3.656 3.141,-2.438 4.712,-5.769 4.712,-9.993 0,-2.056 -0.3,-3.844 -0.894,-5.361 -0.596,-1.517 -1.653,-2.925 -3.168,-4.226 -1.518,-1.3 -3.549,-2.519 -6.093,-3.655 -2.546,-1.138 -5.768,-2.301 -9.668,-3.494 -6.5,-2.056 -11.943,-4.25 -16.33,-6.58 -4.387,-2.328 -7.937,-4.9 -10.643,-7.719 -2.709,-2.815 -4.659,-5.931 -5.849,-9.343 -1.193,-3.412 -1.788,-7.23 -1.788,-11.455 0,-5.2 1.082,-9.831 3.25,-13.893 2.166,-4.062 5.144,-7.5 8.937,-10.318 3.791,-2.815 8.178,-4.956 13.162,-6.418 4.981,-1.462 10.343,-2.193 16.086,-2.193 8.449,0 15.842,1.247 22.179,3.737 6.337,2.493 11.997,6.121 16.98,10.887 l -12.674,14.624 c -7.583,-6.281 -15.655,-9.424 -24.21,-9.424 -4.875,0 -8.721,0.95 -11.537,2.844 -2.818,1.896 -4.225,4.578 -4.225,8.043 0,1.843 0.297,3.412 0.894,4.712 0.594,1.3 1.65,2.519 3.168,3.656 1.516,1.137 3.656,2.249 6.418,3.331 2.763,1.084 6.309,2.33 10.643,3.736 5.306,1.734 10.046,3.631 14.218,5.688 4.169,2.06 7.662,4.524 10.48,7.394 2.815,2.871 4.981,6.174 6.5,9.911 1.513,3.734 2.273,8.202 2.273,13.402 z m 53.295,10.562 20.637,-90.181 h 27.46 L 195.539,143.756 H 161.905 L 129.732,31.152 h 28.598 l 20.311,90.181 h 0.812 z m 101.879,25.186 c -16.357,0 -28.896,-5.01 -37.615,-15.03 -8.722,-10.019 -13.081,-24.779 -13.081,-44.278 0,-9.531 1.407,-17.98 4.225,-25.348 2.815,-7.366 6.688,-13.54 11.618,-18.524 4.928,-4.981 10.668,-8.747 17.223,-11.293 6.555,-2.544 13.568,-3.818 21.043,-3.818 8.23,0 15.436,1.3 21.611,3.899 6.174,2.6 11.537,5.959 16.086,10.075 l -14.137,14.624 c -3.467,-3.032 -6.906,-5.281 -10.318,-6.744 -3.412,-1.463 -7.393,-2.193 -11.941,-2.193 -4.01,0 -7.693,0.731 -11.051,2.193 -3.358,1.462 -6.256,3.793 -8.691,6.987 -2.438,3.196 -4.334,7.287 -5.688,12.268 -1.355,4.984 -2.031,10.996 -2.031,18.037 0,7.367 0.486,13.567 1.463,18.604 0.975,5.037 2.408,9.1 4.305,12.187 1.895,3.087 4.307,5.309 7.23,6.662 2.926,1.355 6.338,2.031 10.238,2.031 5.631,0 10.613,-1.244 14.947,-3.737 V 97.935 h -14.785 l -2.6,-18.849 h 43.547 v 55.57 c -5.85,3.793 -12.297,6.718 -19.336,8.774 -7.043,2.057 -14.463,3.089 -22.262,3.089 z M 367,12 C 367,5.373 361.627,0 355,0 H 12 C 5.373,0 0,5.373 0,12 v 150 c 0,6.627 5.373,12 12,12 h 343 c 6.627,0 12,-5.373 12,-12 V 12 z"
   id="path9655"
   inkscape:connector-curvature="0"
   style="fill-rule:evenodd;fill-opacity:1;fill:#000000" />
</svg>