<?xml version="1.0" encoding="UTF-8" standalone="no"?>
<!-- Created with Inkscape (http://www.inkscape.org/) -->

<svg
   xmlns:dc="http://purl.org/dc/elements/1.1/"
   xmlns:cc="http://creativecommons.org/ns#"
   xmlns:rdf="http://www.w3.org/1999/02/22-rdf-syntax-ns#"
   xmlns:svg="http://www.w3.org/2000/svg"
   xmlns="http://www.w3.org/2000/svg"
   xmlns:sodipodi="http://sodipodi.sourceforge.net/DTD/sodipodi-0.dtd"
   xmlns:inkscape="http://www.inkscape.org/namespaces/inkscape"
   width="512"
   height="512"
   id="svg5762"
   version="1.1"
   inkscape:version="0.48.4 r9939"
   sodipodi:docname="icon.svg"
   inkscape:export-filename="D:\loom\loomsdk\docs\examples\Thrusties\icons\icon-1024.png"
   inkscape:export-xdpi="180"
   inkscape:export-ydpi="180">
  <defs
     id="defs5764" />
  <sodipodi:namedview
     id="base"
     pagecolor="#ffffff"
     bordercolor="#666666"
     borderopacity="1.0"
     inkscape:pageopacity="0"
     inkscape:pageshadow="2"
     inkscape:zoom="0.7"
     inkscape:cx="-95.056338"
     inkscape:cy="207.9287"
     inkscape:document-units="px"
     inkscape:current-layer="layer1"
     showgrid="false"
     fit-margin-top="0"
     fit-margin-left="0"
     fit-margin-right="0"
     fit-margin-bottom="0"
     inkscape:window-width="1920"
     inkscape:window-height="1017"
     inkscape:window-x="-8"
     inkscape:window-y="-8"
     inkscape:window-maximized="1" />
  <metadata
     id="metadata5767">
    <rdf:RDF>
      <cc:Work
         rdf:about="">
        <dc:format>image/svg+xml</dc:format>
        <dc:type
           rdf:resource="http://purl.org/dc/dcmitype/StillImage" />
        <dc:title></dc:title>
      </cc:Work>
    </rdf:RDF>
  </metadata>
  <g
     inkscape:label="Layer 1"
     inkscape:groupmode="layer"
     id="layer1"
     transform="translate(-282.10714,132.16282)">
    <g
       id="g9389">
      <path
         id="path3729"
         d="m 529.54977,44.126336 -61.60356,-45.7888275 -5.26716,3.397211 -4.91602,3.17074 -5.26716,3.397212 16.30589,75.0048915 -8.78903,-1.29233 -15.59841,-71.98067 q -0.6566,-2.5598295 0.30644,-4.9212445 0.96304,-2.361399 3.24549,-3.833535 l 15.45034,-9.965164 q 2.28244,-1.4721235 4.83086,-1.3755315 l 4.78514,1.6372685 59.25357,44.0726035 -2.73639,8.477376 m 118.57324,190.778494 10.18317,-6.56794 -1.52949,-40.53138 8.7205,5.81152 1.33209,34.44346 -1.04823,4.15661 -2.94524,3.14267 -74.79376,48.24045 -4.07766,1.38696 -4.04338,-0.87266 -30.82823,-15.41906 -1.87319,-10.22788 36.29283,18.10976 10.18319,-6.56796 54.4274,-35.10455 m 65.54251,-198.649276 -9.73967,-7.391671 0.38541,-2.48608 q 0.78747,-2.248166 2.78109,-3.782619 l 4.42879,-1.613432 30.46241,-2.493543 q 2.32193,-0.254547 4.50777,0.821737 l 3.2559,3.120814 1.32463,4.366462 0.79869,130.750958 -1.63725,4.78515 -3.98725,3.06892 -6.05987,2.1682 -1.66954,-8.37035 0.63996,-0.16411 4.25322,-1.50019 -0.79871,-130.750946 -30.46241,2.493534 0.75841,3.488605 0.75843,3.488604 m -327.05162,212.184613 -6.64792,-4.91082 -14.83522,26.72251 118.78325,54.65335 3.12083,-3.25591 0.17556,-0.11319 6.76116,5.08639 -3.88542,3.99767 -4.6158,2.47987 -4.8589,-0.59526 -118.78326,-54.65334 q -2.36142,-0.96303 -3.60707,-2.89432 -1.24564,-1.9313 -1.32461,-4.36647 -0.25455,-2.32193 0.93498,-4.3322 l 14.83523,-26.7225 q 1.07627,-2.18585 3.29637,-3.36914 2.22011,-1.18333 4.59294,-0.97349 l 3.40341,1.03681 2.65447,12.21008"
         inkscape:connector-curvature="0"
         style="fill:#cbcbcb;stroke:none;" />
      <path
         id="path3731"
         d="m 386.6139,248.44016 94.17507,68.53623 1.72145,1.1272 1.0306,0.82695 3.49381,2.71875 -3.12081,3.25592 -118.78326,-54.65335 14.83523,-26.72251 6.64791,4.91081 m 76.06515,-246.7054405 5.26716,-3.397211 61.60356,45.7888275 124.76441,92.064894 2.46251,51.61428 1.52949,40.53138 -10.18317,6.56794 L 624.63204,148.37452 462.67905,1.7347195 m 6.12271,81.5728435 -16.30589,-75.0048915 5.26716,-3.397212 66.79281,208.0161405 69.13977,57.08778 -10.18319,6.56796 -36.29283,-18.10976 -46.00441,-23.53064 -32.41342,-151.629377 m 109.616,43.909157 -75.5207,-68.137433 -9.48091,6.114997 31.27651,96.674026 -0.17558,0.11318 -35.63056,-103.810144 9.4809,-6.114986 80.05034,75.16032 m 160.73881,31.81923 -25.37781,-122.604834 -0.87167,-3.664172 -0.75843,-3.488604 30.46244,-2.493535 0.7987,130.750945 -4.25323,1.5002"
         inkscape:connector-curvature="0"
         style="fill:#f2f2f2;stroke:none;" />
      <path
         id="path3733"
         d="m 739.15659,159.03596 -0.63997,0.1641 -6.87539,2.44559 -3.90009,-14.14138 -11.10602,-39.57553 -19.5119,-69.953758 -1.21759,0.03948 17.87313,-1.583381 25.37781,122.604839 m -82.37989,28.76955 -2.46251,-51.61427 -124.76441,-92.064902 16.12881,-1.204185 11.60864,6.434845 -0.17558,0.113186 3.90728,2.203455 116.25376,83.880561 3.50549,43.98047 -24.00149,8.27079 m -194.88754,-76.67012 -1.0743,-13.229244 7.98692,-14.59859 32.41341,151.629384 46.00442,23.53064 -17.43355,18.45397 -38.61995,-21.33237 -29.1637,-144.27821 -0.11319,-0.17559 m -12.12385,168.91894 23.51653,19.88634 4.12235,3.30781 3.83353,3.24548 11.27413,9.3853 -0.0623,0.2888 -5.23913,5.36799 -0.17557,0.1132 -3.49382,-2.71876 -1.03059,-0.82696 -1.72146,-1.1272 -94.17506,-68.53621 8.16247,-14.71181 54.98893,46.32597"
         inkscape:connector-curvature="0"
         style="fill:#c94d2a;stroke:none;" />
      <path
         id="path3735"
         d="m 449.7653,280.05433 -54.98892,-46.32598 67.11276,-122.59296 0.1132,0.17557 29.16369,144.27822 38.61997,21.33238 -16.54428,17.13458 -10.86064,-9.90059 -30.35665,-27.4079 -22.25919,23.30669 m 107.52193,-230.697344 70.26344,-5.540863 34.7551,-2.776152 30.52475,-2.782336 3.07511,-0.243135 1.2176,-0.03947 19.5119,69.95375 -30.41248,10.66548 12.44826,38.95841 4.54005,13.97724 -22.43277,8.00482 -3.5055,-43.98048 -116.25376,-83.880548 -3.90727,-2.203457 0.17557,-0.113197"
         inkscape:connector-curvature="0"
         style="fill:#de532c;stroke:none;" />
      <path
         id="path3737"
         d="m 557.28723,49.356986 -11.60865,-6.434835 -16.12881,1.204185 2.73639,-8.477376 12.76489,-1.023389 4.79656,0.884068 9.4228,5.358545 67.65268,-5.34866 34.75513,-2.776134 30.52476,-2.782357 11.72287,-1.09715 9.73967,7.391671 0.11319,0.175573 -17.87313,1.583382 -3.07511,0.243135 -30.52474,2.782334 -34.75511,2.776152 -70.26345,5.540866 m -97.27448,32.658247 8.78903,1.29233 -7.9869,14.59857 1.07429,13.229247 -67.11276,122.59297 -8.16249,14.71181 -2.65447,-12.21009 69.37858,-126.78907 -0.81976,-10.907327 q -0.25454,-2.32192 0.9973,-4.62101 l 6.49718,-11.89743 m 69.77331,194.906317 17.43355,-18.45398 1.87319,10.2279 -29.6789,31.07557 -6.17211,-5.71492 16.54427,-17.13457 m 135.71115,-83.30453 -8.7205,-5.81151 24.00149,-8.27078 22.43277,-8.00484 2.48509,8.09298 -40.19885,13.99415 m -171.52565,133.00542 -6.76114,-5.08639 5.23913,-5.36799 6.2344,5.42609 -4.71239,5.02829 m 246.21462,-159.052 -6.23541,2.28145 -2.30951,-8.2062 6.87539,-2.44559 1.66953,8.37034"
         inkscape:connector-curvature="0"
         style="fill:#a13e22;stroke:none;" />
      <path
         id="path3739"
         d="m 457.76303,4.9054595 4.91602,-3.17074 161.95299,146.6398005 23.49097,86.53031 -54.4274,35.10455 L 524.55584,212.9216 457.76303,4.9054595 m 66.92963,156.9628505 1.21138,4.19087 55.6564,-35.89723 -3.14268,-2.94523 -80.05032,-75.160316 -9.48092,6.114986 35.63057,103.81015 0.17558,-0.11319"
         inkscape:connector-curvature="0"
         style="fill:#d7d7d7;stroke:none;" />
      <path
         id="path3741"
         d="m 524.69266,161.86831 -31.27651,-96.674026 9.48091,-6.114997 75.5207,68.137433 3.14268,2.94523 -55.6564,35.89723 -1.21138,-4.19087"
         inkscape:connector-curvature="0"
         style="fill:#4a3c55;stroke:none;" />
      <path
         id="path3743"
         d="m 449.7653,280.05433 22.25919,-23.30668 30.35665,27.40789 -21.14343,22.33841 -3.83353,-3.24548 -4.12236,-3.3078 -23.51652,-19.88634 m 266.86983,-172.12555 11.10602,39.57553 -29.07025,10.04835 -12.44826,-38.95841 30.41249,-10.66547"
         inkscape:connector-curvature="0"
         style="fill:#ffcc00;stroke:none;" />
      <path
         id="path3745"
         d="m 481.23771,306.49395 21.14343,-22.33841 10.86063,9.90059 -20.72993,21.82311 -11.27413,-9.38529 m 246.50344,-158.98964 3.90009,14.14139 -28.43029,9.8842 -4.54005,-13.97724 29.07025,-10.04835"
         inkscape:connector-curvature="0"
         style="fill:#ecbd02;stroke:none;" />
      <path
         id="path3747"
         d="m 513.24177,294.05613 6.17211,5.71492 -20.72994,21.82311 -6.23441,-5.42609 0.0623,-0.28882 20.72994,-21.82312 m 220.70899,-124.20423 -28.25471,9.77098 -2.4851,-8.09298 28.43029,-9.8842 2.30952,8.2062"
         inkscape:connector-curvature="0"
         style="fill:#bf9900;stroke:none;" />
      <path
         id="path3749"
         d="m 713.77876,36.43112 -0.11319,-0.175574 -0.75843,-3.488605 0.87166,3.66417"
         inkscape:connector-curvature="0"
         style="fill:#99cc33;stroke:none;" />
    </g>
  </g>
</svg>
